<?xml version="1.0" standalone="no"?>
<!DOCTYPE svg PUBLIC "-//W3C//DTD SVG 1.1//EN" "http://www.w3.org/Graphics/SVG/1.1/DTD/svg11.dtd" >
<svg xmlns="http://www.w3.org/2000/svg">
<metadata>
Created by FontPrep 20130207 at Thu Feb 11 15:45:20 2016
 By Tyler Finck
Copyright (c) 2016 by Tyler Finck. All rights reserved.
</metadata>
<defs>
<font id="70d2bfc85c35028265fa73bb826a63f0" horiz-adv-x='1024' >
  <font-face 
    font-family="KatahdinRound-Bold"
    font-weight="700"
    font-stretch="normal"
    units-per-em="1000"
    panose-1="0 0 8 0 0 0 0 0 0 0"
    ascent="750"
    descent="-250"
    x-height="740"
    cap-height="740"
    bbox="-200 -259.529 1147 959.571"
    underline-thickness="50"
    underline-position="-50"
    unicode-range="U+000D-2122"
  />
<missing-glyph horiz-adv-x="291" 
 />
    <glyph glyph-name=".notdef" horiz-adv-x="291" 
 />
    <glyph glyph-name=".null" horiz-adv-x="0" 
 />
    <glyph glyph-name="nonmarkingreturn" horiz-adv-x="333" 
 />
    <glyph glyph-name="NULL" horiz-adv-x="0" 
 />
    <glyph glyph-name="NULL" horiz-adv-x="0" 
 />
    <glyph glyph-name="CR" unicode="&#xd;" horiz-adv-x="291" 
 />
    <glyph glyph-name="space" unicode=" " horiz-adv-x="322" 
 />
    <glyph glyph-name="exclam" unicode="!" horiz-adv-x="337" 
d="M228 691q1 46 -44 46h-97q-45 0 -44 -46l20 -390q2 -44 46 -44h54q44 0 46 44zM136 -16q45 0 74 31q31 31 31 74q0 44 -31 75t-74 31q-45 0 -75.5 -30.5t-30.5 -75.5q0 -43 31 -74q29 -31 75 -31z" />
    <glyph glyph-name="quotedbl" unicode="&#x22;" horiz-adv-x="448" 
d="M196 665q1 4 1 9v8q0 40 -20.5 61t-54.5 21t-55 -21t-21 -61q0 -7 2 -17l36 -149q10 -39 26 -39q40 0 51 44q18 74 19 78q2 8 5.5 23t5.5 20q1 3 2 7.5t1.5 7t0.5 3.5q1 2 1 5zM378 665q1 4 1 9v8q0 40 -20.5 61t-54.5 21t-55 -21t-21 -61q0 -7 2 -17l36 -149
q10 -39 26 -39q40 0 51 44q18 74 19 78q2 8 5.5 23t5.5 20q1 3 2 7.5t1.5 7t0.5 3.5q1 2 1 5z" />
    <glyph glyph-name="numbersign" unicode="#" horiz-adv-x="919" 
d="M655 788q-42 0 -49 -40l-36 -184h-154l35 175q9 49 -40 49h-51q-42 0 -49 -40l-37 -184h-119q-42 0 -49 -40l-10 -51q-9 -49 40 -49h110l-28 -142h-119q-42 0 -49 -40l-10 -51q-9 -49 40 -49h110l-27 -140q-9 -49 40 -49h51q42 0 49 40l30 149h153l-28 -140
q-9 -49 40 -49h51q42 0 49 40l30 149h110q42 0 49 40l10 51q9 49 -40 49h-101l28 142h110q42 0 49 40l10 51q9 49 -40 49h-101l34 175q9 49 -40 49h-51zM542 424l-28 -142h-154l28 142h154z" />
    <glyph glyph-name="dollar" unicode="$" horiz-adv-x="703" 
d="M320 457q-37 4 -70 16q-60 23 -40 61q11 19 28 31q31 20 85 20q61 0 115 -39q36 -25 63 0l47 39q38 33 2 64q-66 53 -148 72v45q0 45 -45 45h-76q-45 0 -45 -45v-47q-67 -18 -114 -55.5t-64 -89.5q-27 -85 21 -160q60 -94 224 -112q57 -6 103 -22q16 -6 41 -24
q16 -16 11 -39q-5 -31 -47 -49q-35 -15 -67 -15q-94 0 -164 65q-32 32 -63 6l-51 -41q-37 -30 -6 -64q71 -74 176 -98v-47q0 -45 45 -45h76q45 0 45 45v40q82 10 136 52q60 45 71 118q14 85 -40 157q-34 42 -83 69q-65 36 -166 47z" />
    <glyph glyph-name="percent" unicode="%" horiz-adv-x="1009" 
d="M409 556q0 77 -54 131t-130 54q-77 0 -131 -54t-54 -131t54 -131t131 -54q76 0 130 54t54 131zM231 54q-13 -24 -4 -39t36 -15h69q36 0 53 32l354 655q13 24 4 39t-36 15h-69q-36 0 -53 -32zM165 556q0 25 17.5 42t42.5 17q24 0 41.5 -17t17.5 -42t-17.5 -42t-41.5 -17
q-25 0 -42.5 17t-17.5 42zM749 370q-76 0 -130 -54t-54 -130q0 -77 54 -131t130 -54q77 0 131 54t54 131q0 76 -54 130t-131 54zM749 126q-25 0 -42 17.5t-17 42.5q0 24 17 41.5t42 17.5t42.5 -17.5t17.5 -41.5q0 -25 -17.5 -42.5t-42.5 -17.5z" />
    <glyph glyph-name="ampersand" unicode="&#x26;" horiz-adv-x="875" 
d="M670 320q-30 30 -64 0q-4 -3 -11 -8.5t-9 -7.5q-21 -18 -34 -27l-88 100q36 22 67 51q68 62 68 134q0 76 -54 132q-62 62 -166 62q-114 0 -175.5 -52.5t-61.5 -141.5q0 -39 28 -83q7 -12 60 -80q-78 -41 -125 -88q-61 -61 -61 -124q0 -104 93 -158q71 -43 175 -43
q74 0 133 32q40 22 80 58l49 -52q21 -24 55 -24h99q30 0 37.5 16.5t-12.5 38.5l-101 111q29 24 57 52q31 31 -1 64zM368 472l-18 19q-10 11 -21 24q-24 30 -24 51q0 64 65 70q35 4 56 -20q16 -20 16 -54q0 -26 -24 -52q-17 -19 -50 -38zM315 139q-39 0 -62 11q-33 13 -33 50
q0 20 15 38q30 36 84 61l105 -111q-15 -15 -32 -25q-40 -24 -77 -24z" />
    <glyph glyph-name="quotesingle" unicode="'" horiz-adv-x="249" 
d="M186 665q1 4 1 9v8q0 40 -20.5 61t-54.5 21t-55 -21t-21 -61q0 -7 2 -17l36 -149q10 -39 26 -39q40 0 51 44q18 74 19 78q2 8 5.5 23t5.5 20q1 3 2 7.5t1.5 7t0.5 3.5q1 2 1 5z" />
    <glyph glyph-name="parenleft" unicode="(" horiz-adv-x="376" 
d="M276 -81q45 19 18 60q-44 73 -72 153q-42 116 -42 228q0 111 47 236q34 91 79 161q28 41 -18 61l-36 15q-37 15 -61 -13q-59 -73 -99 -164q-62 -140 -62 -296q0 -87 17 -161q32 -139 88 -221q3 -5 11 -17t11 -16t10 -13.5t10.5 -12.5t10 -9t11.5 -7.5t12 -3t14 0t15 4.5z
" />
    <glyph glyph-name="parenright" unicode=")" horiz-adv-x="376" 
d="M94 -96q37 -15 61 13q56 68 93 156q56 134 56 287q0 89 -18 164q-32 133 -96 232q-38 57 -51 68q-25 22 -57 9l-36 -15q-46 -20 -18 -61q55 -94 80 -161q46 -122 46 -236q0 -110 -41 -228q-30 -81 -73 -153q-27 -41 18 -60z" />
    <glyph glyph-name="asterisk" unicode="*" horiz-adv-x="455" 
d="M109 427q35 -24 62 11l36 48l37 -48q17 -22 42 -18.5t34 23.5t-4 45l-35 53l62 23q26 9 30 34.5t-14 43t-45 8.5l-60 -18l-1 61q0 45 -45 45h-1q-45 0 -45 -45l-1 -61l-61 18q-26 9 -44 -8.5t-14 -43t30 -34.5l61 -23l-35 -53q-25 -37 11 -61z" />
    <glyph glyph-name="plus" unicode="+" horiz-adv-x="578" 
d="M275 147q45 0 45 45v105h105q45 0 45 45v50q0 45 -45 45h-105v105q0 45 -45 45h-50q-45 0 -45 -45v-105h-105q-45 0 -45 -45v-50q0 -45 45 -45h105v-105q0 -45 45 -45h50z" />
    <glyph glyph-name="comma" unicode="," horiz-adv-x="344" 
d="M134 0v-1q0 -4 -1 -5q-18 -43 -52 -69q-26 -19 -25 -31q1 -17 25 -13q16 2 39 13q19 9 59 51q25 27 38 47q28 48 28 96q0 43 -31 76q-33 31 -77 31t-75 -31q-32 -32 -32 -76q0 -38 29 -64q33 -29 75 -24z" />
    <glyph glyph-name="hyphen" unicode="-" horiz-adv-x="589" 
d="M77 437q-45 0 -45 -45v-50q0 -45 45 -45h350q45 0 45 45v50q0 45 -45 45h-350z" />
    <glyph glyph-name="period" unicode="." horiz-adv-x="334" 
d="M156 -16q45 0 74 31q31 31 31 74q0 44 -31 75t-74 31q-45 0 -75.5 -30.5t-30.5 -75.5q0 -43 31 -74q29 -31 75 -31z" />
    <glyph glyph-name="slash" unicode="/" horiz-adv-x="490" 
d="M332 808q-39 0 -50 -38l-237 -793q-7 -23 3 -37t35 -14h74q39 0 50 38l237 793q7 23 -3 37t-35 14h-74z" />
    <glyph glyph-name="zero" unicode="0" horiz-adv-x="815" 
d="M392 759q-156 -4 -249 -124q-87 -110 -87 -265q0 -166 89 -275q92 -113 247 -113q161 0 254 119q83 107 83 269q0 159 -93 272q-99 117 -244 117zM392 161q-83 0 -119 71q-28 53 -28 138q0 76 37 138q41 72 110 72q70 0 112 -76q35 -63 35 -134q0 -85 -28 -138
q-36 -71 -119 -71z" />
    <glyph glyph-name="one" unicode="1" horiz-adv-x="498" 
d="M182 513v-468q0 -45 45 -45h99q45 0 45 45v650q0 45 -45 45h-87q-34 0 -55 -27l-112 -145q-17 -23 -9.5 -39t36.5 -16h83z" />
    <glyph glyph-name="two" unicode="2" horiz-adv-x="686" 
d="M504 324q78 78 90 132q15 71 -13 141q-31 75 -99 120q-71 44 -157 44q-115 0 -210 -80q-20 -17 -38 -41q-3 -4 -13.5 -16.5t-14.5 -19t-10 -18t-5.5 -19t6 -17t17.5 -17.5l82 -57q36 -25 63 11q29 39 53 57q34 27 70 27q34 0 56 -14t30 -33q7 -19 0 -42q-7 -20 -21 -33
q-27 -27 -62 -58q-76 -69 -169 -147l-73 -63q-22 -18 -30 -31q-15 -22 -15 -56v-49q0 -45 45 -45h471q45 0 45 45v90q0 45 -45 45h-225q83 66 94 75q54 45 78 69z" />
    <glyph glyph-name="three" unicode="3" horiz-adv-x="705" 
d="M504 371q55 18 84 87q28 67 8 145q-17 59 -79 105q-81 60 -199 53q-101 -6 -175 -62q-45 -35 -87 -97q-9 -17 -4 -26t27 -22l80 -48q35 -20 62 14q48 58 112 62q37 1 67 -20q25 -19 30 -47q3 -23 -9 -40q-17 -27 -65 -36q-46 -10 -46 -47v-47q0 -38 47 -46q49 -10 66 -33
q12 -16 9 -39q-1 -28 -30 -49q-30 -21 -69 -20q-64 3 -112 66q-26 35 -62 12l-94 -56q-17 -11 -10 -30q5 -18 16 -33q40 -59 88 -90q68 -46 174 -46q116 0 188 55q55 42 77 114q22 67 -9 139q-31 70 -85 82z" />
    <glyph glyph-name="four" unicode="4" horiz-adv-x="741" 
d="M421 740q-34 0 -55 -26l-316 -379q-20 -25 -20 -56v-77q0 -45 45 -45h293v-112q0 -45 45 -45h84q45 0 45 45v112h44q45 0 45 45v64q0 45 -45 45h-44v384q0 45 -45 45h-76zM368 485v-174h-149z" />
    <glyph glyph-name="five" unicode="5" horiz-adv-x="719" 
d="M341 511q-32 -2 -51 -8q-43 -15 -59 -31l-9 -9l17 112h272q45 0 45 45v75q0 45 -45 45h-359q-40 0 -48 -41l-55 -312q-7 -43 35 -52l73 -16q29 -6 60 17q65 50 138 28q30 -10 51 -31t24 -46q8 -58 -16 -89q-30 -39 -104 -38q-55 1 -97 47q-28 34 -62 11l-83 -56
q-39 -28 -10 -63q97 -111 243 -118h17q179 0 251 142q37 71 32 150q-5 85 -51 147q-31 43 -86 68t-123 23z" />
    <glyph glyph-name="six" unicode="6" horiz-adv-x="683" 
d="M426 687q14 23 5 38.5t-36 15.5h-95q-36 0 -53 -32l-170 -316q-43 -79 -36 -177q8 -92 74 -158q75 -77 192 -77q115 0 189 77q73 75 73 184q0 98 -58 159q-46 48 -118 65q-62 14 -90 -2zM307 149q-42 0 -67 30q-22 26 -20 66t27.5 67t61.5 27q39 0 64.5 -22t25.5 -64
q0 -48 -20 -73q-23 -31 -72 -31z" />
    <glyph glyph-name="seven" unicode="7" horiz-adv-x="607" 
d="M337 575l-278 -521q-13 -24 -4 -39t36 -15h92q36 0 53 32l283 539q14 24 14 56v68q0 45 -45 45h-402q-45 0 -45 -45v-75q0 -45 45 -45h251z" />
    <glyph glyph-name="eight" unicode="8" horiz-adv-x="716" 
d="M509 392q38 20 58 67q17 38 17 82q0 94 -74 157q-73 62 -184 62t-184 -62q-75 -64 -75 -157q0 -44 15 -79q19 -45 60 -70q-52 -23 -79 -76q-23 -46 -23 -99q0 -103 77 -169q78 -67 209 -67t209 67q76 66 76 169q0 48 -25 98q-28 53 -77 77zM326 459q-40 0 -69 22
q-28 21 -28 54q0 35 24 55.5t73 20.5q47 0 71.5 -21t24.5 -55q0 -30 -28 -53t-68 -23zM326 146q-43 0 -72.5 23t-29.5 58q0 37 25.5 58.5t76.5 21.5q50 0 76 -22.5t26 -57.5q0 -32 -30 -56q-30 -25 -72 -25z" />
    <glyph glyph-name="nine" unicode="9" horiz-adv-x="631" 
d="M292 759q-114 0 -188 -76t-74 -184q0 -97 59 -159q47 -50 118 -66q61 -14 89 2l-124 -222q-13 -23 -4 -38.5t36 -15.5h95q36 0 53 32l170 316q43 79 36 177q-8 91 -74 158q-74 76 -192 76zM290 402q-39 0 -64.5 22t-25.5 63q0 47 20 74q24 30 72 30q41 0 67 -29
q22 -25 20 -67q-2 -39 -27.5 -66t-61.5 -27z" />
    <glyph glyph-name="colon" unicode=":" horiz-adv-x="373" 
d="M156 489q45 0 74 31q31 31 31 74q0 44 -31 75t-74 31q-45 0 -75.5 -30.5t-30.5 -75.5q0 -43 31 -74q29 -31 75 -31zM156 34q45 0 74 31q31 31 31 74q0 44 -31 75t-74 31q-45 0 -75.5 -30.5t-30.5 -75.5q0 -43 31 -74q29 -31 75 -31z" />
    <glyph glyph-name="semicolon" unicode=";" horiz-adv-x="373" 
d="M156 489q45 0 74 31q31 31 31 74q0 44 -31 75t-74 31q-45 0 -75.5 -30.5t-30.5 -75.5q0 -43 31 -74q29 -31 75 -31zM154 49q0 -4 -1 -5q-18 -43 -52 -69q-26 -19 -25 -31q1 -17 25 -13q16 2 39 13q19 9 59 51q25 27 38 47q28 48 28 96q0 43 -31 76q-33 31 -77 31t-75 -31
q-32 -32 -32 -76q0 -38 29 -64q33 -29 75 -24v-1z" />
    <glyph glyph-name="less" unicode="&#x3c;" horiz-adv-x="509" 
d="M411 190q0 36 -32 53l-222 113l222 113q32 17 32 53v59q0 26 -15 35t-38 -2l-283 -141q-33 -17 -33 -53v-128q0 -36 33 -53l283 -141q23 -11 38 -2t15 35v59z" />
    <glyph glyph-name="equal" unicode="=" horiz-adv-x="530" 
d="M75 551q-45 0 -45 -45v-49q0 -45 45 -45h302q45 0 45 45v49q0 45 -45 45h-302zM75 321q-45 0 -45 -45v-50q0 -45 45 -45h302q45 0 45 45v50q0 45 -45 45h-302z" />
    <glyph glyph-name="greater" unicode="&#x3e;" horiz-adv-x="509" 
d="M42 131q0 -26 15 -35t38 2l283 141q33 17 33 53v128q0 36 -33 53l-283 141q-23 11 -38 2t-15 -35v-59q0 -36 32 -53l222 -113l-222 -113q-32 -17 -32 -53v-59z" />
    <glyph glyph-name="question" unicode="?" horiz-adv-x="589" 
d="M296 599q33 0 49 -16q30 -30 16 -60q-11 -24 -40 -47l-18 -15q-115 -96 -115 -169q0 -20 11 -27.5t34 -7.5h75q7 0 13 2t9 3.5t7 7t5.5 7.5t5.5 10l5 10q21 38 74 77q49 37 74 80q40 69 19 150q-19 70 -83 112q-62 40 -141 40q-83 0 -154 -53q-55 -40 -88 -95
q-26 -39 18 -60l52 -25q35 -17 61 15q53 61 111 61zM382 89q0 45 -30.5 75.5t-75.5 30.5q-43 0 -74 -31q-31 -29 -31 -75q0 -45 31 -74q29 -31 74 -31q46 0 75 31q31 31 31 74z" />
    <glyph glyph-name="at" unicode="@" horiz-adv-x="902" 
d="M444 -17q46 0 81 7q64 12 117 44q64 38 64 66q0 17 -23 32l-33 22q-13 10 -29 10q-15 0 -34 -13q-59 -37 -143 -37q-116 0 -197 75q-83 75 -83 188t82 193t198 80q122 0 199 -69q79 -71 79 -177q0 -54 -6 -66q-8 -15 -37 -15q-19 3 -27 17q-12 19 -25 80q-4 22 -17 48
q-27 56 -78 83q-39 21 -91 21q-46 0 -89 -22q-44 -22 -73 -73t-29 -102q0 -49 25 -90t71 -66q45 -23 85 -23q59 0 109 41q42 34 42 63q7 -31 34 -56q27 -29 80 -29q58 0 96 44q45 52 45 145q0 160 -115 265q-114 101 -278 101q-171 0 -291 -109q-123 -112 -123 -284
q0 -173 123 -285q120 -109 291 -109zM437 325q-54 0 -54 62q0 20 14 37q17 21 48 21q53 0 53 -58q0 -26 -15.5 -44t-45.5 -18z" />
    <glyph glyph-name="A" unicode="A" horiz-adv-x="824" 
d="M334 740q-38 0 -51 -36l-229 -652q-8 -24 1.5 -38t35.5 -14h108q39 0 52 37l31 91h220l31 -91q12 -37 51 -37h107q26 0 35.5 14t1.5 38l-228 652q-14 36 -52 36h-114zM391 497l69 -205h-132z" />
    <glyph glyph-name="B" unicode="B" horiz-adv-x="733" 
d="M416 0q80 0 135 42q48 36 71 94q18 45 16 98q-5 66 -48 114q-32 36 -63 43q26 9 46 46q23 41 23 83v1q0 60 -24 105q-13 24 -49 58q-65 56 -160 56h-278q-45 0 -45 -45v-650q0 -45 45 -45h331zM220 448v124h143q28 0 42.5 -19t14.5 -46q0 -26 -22 -44q-20 -15 -45 -15
h-133zM220 171v124h158q71 0 71 -62q0 -31 -18 -46.5t-47 -15.5h-164z" />
    <glyph glyph-name="C" unicode="C" horiz-adv-x="815" 
d="M425 -19q155 0 266 105q35 32 -3 64l-77 65q-29 24 -64 -2q-53 -42 -122 -42q-83 0 -141 58q-59 59 -59 141t59 141t141 59q72 0 126 -45q33 -28 63 -3l79 62q39 30 6 63q-114 112 -274 112q-161 0 -275 -114t-114 -275t114 -275t275 -114z" />
    <glyph glyph-name="D" unicode="D" horiz-adv-x="789" 
d="M320 0q146 0 251 110q106 109 106 260q0 146 -102 257q-105 113 -254 113h-236q-45 0 -45 -45v-650q0 -45 45 -45h235zM229 189v362h92q66 0 117 -54q49 -54 49 -127q0 -74 -50 -126q-52 -55 -117 -55h-91z" />
    <glyph glyph-name="E" unicode="E" horiz-adv-x="693" 
d="M559 144q0 45 -45 45h-285v94h210q45 0 45 45v85q0 45 -45 45h-210v93h285q45 0 45 45v99q0 45 -45 45h-429q-45 0 -45 -45v-650q0 -45 45 -45h429q45 0 45 45v99z" />
    <glyph glyph-name="F" unicode="F" horiz-adv-x="646" 
d="M229 283h196q45 0 45 45v85q0 45 -45 45h-196v93h271q45 0 45 45v99q0 45 -45 45h-415q-45 0 -45 -45v-650q0 -45 45 -45h99q45 0 45 45v238z" />
    <glyph glyph-name="G" unicode="G" horiz-adv-x="883" 
d="M428 -17q215 0 321 160q12 19 12 50v181q0 45 -45 45h-267q-45 0 -45 -45v-62q0 -45 45 -45h123v-48q-19 -22 -45 -34q-42 -21 -99 -21q-81 0 -141 63q-58 61 -58 143q0 83 58 141t141 58q71 0 125 -45q33 -28 63 -3l79 62q36 30 5 64q-111 111 -272 111t-274 -113
q-114 -114 -114 -275q0 -159 114 -273t274 -114z" />
    <glyph glyph-name="H" unicode="H" horiz-adv-x="744" 
d="M623 695q0 45 -45 45h-99q-45 0 -45 -45v-230h-205v230q0 45 -45 45h-99q-45 0 -45 -45v-650q0 -45 45 -45h99q45 0 45 45v230h205v-230q0 -45 45 -45h99q45 0 45 45v650z" />
    <glyph glyph-name="I" unicode="I" horiz-adv-x="348" 
d="M85 740q-45 0 -45 -45v-650q0 -45 45 -45h99q45 0 45 45v650q0 45 -45 45h-99z" />
    <glyph glyph-name="J" unicode="J" horiz-adv-x="714" 
d="M77 197q-40 -25 -18 -61q31 -52 60 -81q74 -74 188 -74q150 0 226 100q60 79 60 194v419q0 45 -45 45h-100q-45 0 -45 -45v-396q0 -77 -30 -104q-22 -21 -66 -21t-82 58q-26 38 -61 16z" />
    <glyph glyph-name="K" unicode="K" horiz-adv-x="731" 
d="M329 377l264 307q19 22 11 38.5t-37 16.5h-109q-34 0 -55 -25l-174 -201v182q0 45 -45 45h-99q-45 0 -45 -45v-650q0 -45 45 -45h99q45 0 45 45v182l170 -201q23 -26 55 -26h128q29 0 37 16.5t-12 38.5z" />
    <glyph glyph-name="L" unicode="L" horiz-adv-x="646" 
d="M229 189v506q0 45 -45 45h-99q-45 0 -45 -45v-650q0 -45 45 -45h409q45 0 45 45v99q0 45 -45 45h-265z" />
    <glyph glyph-name="M" unicode="M" horiz-adv-x="908" 
d="M40 45q0 -45 45 -45h99q45 0 45 45v257l112 -267q15 -35 53 -35h40q38 0 53 35l113 268v-258q0 -45 45 -45h99q45 0 45 45v650q0 45 -45 45h-84q-37 0 -53 -34l-193 -415l-192 415q-16 34 -53 34h-84q-45 0 -45 -45v-650z" />
    <glyph glyph-name="N" unicode="N" horiz-adv-x="777" 
d="M184 0q45 0 45 45v322l231 -338q20 -29 55 -29h86q45 0 45 45v650q0 45 -45 45h-99q-45 0 -45 -45v-319l-231 335q-20 29 -55 29h-86q-45 0 -45 -45v-650q0 -45 45 -45h99z" />
    <glyph glyph-name="O" unicode="O" horiz-adv-x="913" 
d="M429 -18q159 0 275 114q114 112 114 274q0 161 -114 275t-275 114t-275 -114t-114 -275q0 -162 114 -274q116 -114 275 -114zM429 570q82 0 141 -59q58 -58 58 -141t-58 -141t-141 -58t-141 58q-59 59 -59 141t59 141t141 59z" />
    <glyph glyph-name="P" unicode="P" horiz-adv-x="703" 
d="M618 497q0 62 -24 117q-19 42 -49 70q-65 56 -160 56h-304q-45 0 -45 -45v-650q0 -45 45 -45h99q45 0 45 45v207h143q98 0 166 54q40 31 62 83t22 108zM436 497q0 -28 -20 -45.5t-48 -17.5h-143v124h150q29 0 45 -17t16 -44z" />
    <glyph glyph-name="Q" unicode="Q" horiz-adv-x="927" 
d="M782 -29q35 29 8 64l-65 83q93 107 93 252q0 161 -114 275t-275 114t-275 -114t-114 -275q0 -162 114 -274q116 -114 275 -114q73 0 142 26l70 -90q27 -35 63 -7zM443 172q-3 -1 -14 -1q-83 0 -141 58q-59 59 -59 141t59 141t141 59t141 -59q58 -58 58 -141
q0 -53 -25 -96l-53 69q-26 34 -64 8l-78 -61q-35 -27 -7 -64z" />
    <glyph glyph-name="R" unicode="R" horiz-adv-x="715" 
d="M622 497q0 62 -24 117q-19 42 -49 70q-65 56 -160 56h-304q-45 0 -45 -45v-650q0 -45 45 -45h99q45 0 45 45v219h91l118 -229q19 -35 52 -35h110q27 0 37.5 14t-2.5 38l-130 235l1 1q1 0 2.5 0.5t4 1.5t4.5 2q12 6 21 14q40 31 62 83t22 108zM439 497q0 -28 -20 -45.5
t-47 -17.5h-143v124h150q29 0 44.5 -17t15.5 -44z" />
    <glyph glyph-name="S" unicode="S" horiz-adv-x="764" 
d="M472 178q-36 -25 -128 -14q-78 10 -149 52q-38 23 -63 -11l-67 -84q-31 -39 12 -63q122 -70 266 -77q7 -1 20 -1h18q137 0 214 61q67 52 79 132q18 101 -38 174q-59 77 -277 120q-56 12 -77 25q-30 18 -19 45q7 18 27 29q30 17 77 17q71 0 143 -42q39 -22 62 13l54 75
q28 37 -10 62q-48 31 -98 47q-75 22 -151 22q-107 0 -188 -47q-85 -49 -108 -125q-12 -35 -9 -83q3 -50 32 -95q57 -81 244 -121q39 -7 67 -15q41 -12 65 -27q10 -8 12 -10q11 -11 9 -28q-2 -19 -19 -31z" />
    <glyph glyph-name="T" unicode="T" horiz-adv-x="706" 
d="M383 0q45 0 45 45v506h154q45 0 45 45v99q0 45 -45 45h-497q-45 0 -45 -45v-99q0 -45 45 -45h154v-506q0 -45 45 -45h99z" />
    <glyph glyph-name="U" unicode="U" 
d="M726 695q0 45 -45 45h-100q-45 0 -45 -45v-348q0 -78 -45 -129q-44 -52 -108 -52q-65 0 -109 52q-45 51 -45 129v348q0 45 -45 45h-99q-45 0 -45 -45v-348q5 -153 98 -257q97 -108 245 -108q149 0 249 113q92 107 94 252v348z" />
    <glyph glyph-name="V" unicode="V" horiz-adv-x="805" 
d="M386 320l-133 385q-14 36 -52 36h-107q-25 0 -34.5 -14t-1.5 -37l226 -654q14 -36 52 -36h101q39 0 52 36l225 654q8 23 -1.5 37t-34.5 14h-107q-39 0 -52 -36z" />
    <glyph glyph-name="W" unicode="W" horiz-adv-x="1038" 
d="M194 40q9 -40 50 -40h116q39 0 51 38l95 348l95 -348q11 -38 50 -38h116q41 0 50 40l142 652q5 23 -5.5 36t-34.5 13h-101q-41 0 -50 -40l-69 -323l-89 325q-11 38 -50 38h-109q-39 0 -50 -38l-89 -327l-69 325q-9 40 -50 40h-102q-24 0 -34.5 -13t-5.5 -36z" />
    <glyph glyph-name="X" unicode="X" horiz-adv-x="849" 
d="M407 541l-116 170q-20 29 -55 29h-128q-28 0 -36.5 -16t7.5 -39l213 -312l-216 -318q-16 -23 -7.5 -39t36.5 -16h128q35 0 55 29l119 175l118 -175q20 -29 55 -29h128q28 0 36.5 16t-7.5 39l-216 318l213 312q16 23 7.5 39t-36.5 16h-128q-35 0 -55 -29z" />
    <glyph glyph-name="Y" unicode="Y" horiz-adv-x="757" 
d="M421 0q45 0 45 45v299l212 342q15 23 6.5 38.5t-36.5 15.5h-119q-35 0 -54 -30l-104 -167l-104 167q-19 30 -54 30h-119q-28 0 -36 -15.5t6 -38.5l213 -342v-299q0 -45 45 -45h99z" />
    <glyph glyph-name="Z" unicode="Z" horiz-adv-x="688" 
d="M544 0q45 0 45 45v99q0 45 -45 45h-257l269 373q18 26 18 56v77q0 45 -45 45h-429q-45 0 -45 -45v-99q0 -45 45 -45h236l-277 -372q-19 -24 -19 -56v-78q0 -45 45 -45h459z" />
    <glyph glyph-name="bracketleft" unicode="[" horiz-adv-x="365" 
d="M189 11v703h94q45 0 45 45v29q0 45 -45 45h-198q-45 0 -45 -45v-852q0 -45 45 -45h198q45 0 45 45v30q0 45 -45 45h-94z" />
    <glyph glyph-name="backslash" unicode="\" horiz-adv-x="507" 
d="M207 770q-11 38 -50 38h-74q-25 0 -35 -14t-3 -37l237 -793q11 -38 50 -38h74q25 0 35 14t3 37z" />
    <glyph glyph-name="bracketright" unicode="]" horiz-adv-x="388" 
d="M169 714v-703h-94q-45 0 -45 -45v-30q0 -45 45 -45h198q45 0 45 45v852q0 45 -45 45h-198q-45 0 -45 -45v-29q0 -45 45 -45h94z" />
    <glyph glyph-name="asciicircum" unicode="^" horiz-adv-x="474" 
d="M218 627l47 -56q22 -26 56 -26h17q29 0 37 16t-11 39l-90 112q-21 26 -55 26h-2q-34 0 -55 -26l-91 -112q-18 -23 -10.5 -39t36.5 -16h18q33 0 55 25z" />
    <glyph glyph-name="underscore" unicode="_" horiz-adv-x="660" 
d="M524 -83q45 0 45 45v76q0 45 -45 45h-449q-45 0 -45 -45v-76q0 -45 45 -45h449z" />
    <glyph glyph-name="grave" unicode="`" horiz-adv-x="235" 
d="M117 935q-56 36 -82 -5q-10 -21 -8.5 -36t18 -29t31 -22t31.5 -16q3 -1 5 -2q54 -27 86 -27q17 0 23 9q11 17 -22 57q-32 38 -82 71z" />
    <glyph glyph-name="a" unicode="a" horiz-adv-x="824" 
d="M334 740q-38 0 -51 -36l-229 -652q-8 -24 1.5 -38t35.5 -14h108q39 0 52 37l31 91h220l31 -91q12 -37 51 -37h107q26 0 35.5 14t1.5 38l-228 652q-14 36 -52 36h-114zM391 497l69 -205h-132z" />
    <glyph glyph-name="b" unicode="b" horiz-adv-x="733" 
d="M416 0q80 0 135 42q48 36 71 94q18 45 16 98q-5 66 -48 114q-32 36 -63 43q26 9 46 46q23 41 23 83v1q0 60 -24 105q-13 24 -49 58q-65 56 -160 56h-278q-45 0 -45 -45v-650q0 -45 45 -45h331zM220 448v124h143q28 0 42.5 -19t14.5 -46q0 -26 -22 -44q-20 -15 -45 -15
h-133zM220 171v124h158q71 0 71 -62q0 -31 -18 -46.5t-47 -15.5h-164z" />
    <glyph glyph-name="c" unicode="c" horiz-adv-x="815" 
d="M425 -19q155 0 266 105q35 32 -3 64l-77 65q-29 24 -64 -2q-53 -42 -122 -42q-83 0 -141 58q-59 59 -59 141t59 141t141 59q72 0 126 -45q33 -28 63 -3l79 62q39 30 6 63q-114 112 -274 112q-161 0 -275 -114t-114 -275t114 -275t275 -114z" />
    <glyph glyph-name="d" unicode="d" horiz-adv-x="789" 
d="M320 0q146 0 251 110q106 109 106 260q0 146 -102 257q-105 113 -254 113h-236q-45 0 -45 -45v-650q0 -45 45 -45h235zM229 189v362h92q66 0 117 -54q49 -54 49 -127q0 -74 -50 -126q-52 -55 -117 -55h-91z" />
    <glyph glyph-name="e" unicode="e" horiz-adv-x="693" 
d="M229 189v94h210q45 0 45 45v85q0 45 -45 45h-210v93h285q45 0 45 45v99q0 45 -45 45h-429q-45 0 -45 -45v-650q0 -45 45 -45h429q45 0 45 45v99q0 45 -45 45h-285z" />
    <glyph glyph-name="f" unicode="f" horiz-adv-x="646" 
d="M229 283h196q45 0 45 45v85q0 45 -45 45h-196v93h271q45 0 45 45v99q0 45 -45 45h-415q-45 0 -45 -45v-650q0 -45 45 -45h99q45 0 45 45v238z" />
    <glyph glyph-name="g" unicode="g" horiz-adv-x="883" 
d="M428 -17q215 0 321 160q12 19 12 50v181q0 45 -45 45h-267q-45 0 -45 -45v-62q0 -45 45 -45h123v-48q-19 -22 -45 -34q-42 -21 -99 -21q-81 0 -141 63q-58 61 -58 143q0 83 58 141t141 58q71 0 125 -45q33 -28 63 -3l79 62q36 30 5 64q-111 111 -272 111t-274 -113
q-114 -114 -114 -275q0 -159 114 -273t274 -114z" />
    <glyph glyph-name="h" unicode="h" horiz-adv-x="744" 
d="M623 695q0 45 -45 45h-99q-45 0 -45 -45v-230h-205v230q0 45 -45 45h-99q-45 0 -45 -45v-650q0 -45 45 -45h99q45 0 45 45v230h205v-230q0 -45 45 -45h99q45 0 45 45v650z" />
    <glyph glyph-name="i" unicode="i" horiz-adv-x="348" 
d="M85 740q-45 0 -45 -45v-650q0 -45 45 -45h99q45 0 45 45v650q0 45 -45 45h-99z" />
    <glyph glyph-name="j" unicode="j" horiz-adv-x="714" 
d="M77 197q-40 -25 -18 -61q31 -52 60 -81q74 -74 188 -74q150 0 226 100q60 79 60 194v419q0 45 -45 45h-100q-45 0 -45 -45v-396q0 -77 -30 -104q-22 -21 -66 -21t-82 58q-26 38 -61 16z" />
    <glyph glyph-name="k" unicode="k" horiz-adv-x="731" 
d="M458 739q-34 0 -55 -25l-174 -201v182q0 45 -45 45h-99q-45 0 -45 -45v-650q0 -45 45 -45h99q45 0 45 45v182l170 -201q23 -26 55 -26h128q29 0 37 16.5t-12 38.5l-278 322l264 307q19 22 11 38.5t-37 16.5h-109z" />
    <glyph glyph-name="l" unicode="l" horiz-adv-x="646" 
d="M229 189v506q0 45 -45 45h-99q-45 0 -45 -45v-650q0 -45 45 -45h409q45 0 45 45v99q0 45 -45 45h-265z" />
    <glyph glyph-name="m" unicode="m" horiz-adv-x="909" 
d="M40 45q0 -45 45 -45h99q45 0 45 45v257l112 -267q15 -35 53 -35h40q38 0 53 35l113 268v-258q0 -45 45 -45h99q45 0 45 45v650q0 45 -45 45h-84q-37 0 -53 -34l-193 -415l-192 415q-16 34 -53 34h-84q-45 0 -45 -45v-650z" />
    <glyph glyph-name="n" unicode="n" horiz-adv-x="776" 
d="M184 0q45 0 45 45v322l231 -338q20 -29 55 -29h86q45 0 45 45v650q0 45 -45 45h-99q-45 0 -45 -45v-319l-231 335q-20 29 -55 29h-86q-45 0 -45 -45v-650q0 -45 45 -45h99z" />
    <glyph glyph-name="o" unicode="o" horiz-adv-x="913" 
d="M429 -18q159 0 275 114q114 112 114 274q0 161 -114 275t-275 114t-275 -114t-114 -275q0 -162 114 -274q116 -114 275 -114zM429 570q82 0 141 -59q58 -58 58 -141t-58 -141t-141 -58t-141 58q-59 59 -59 141t59 141t141 59z" />
    <glyph glyph-name="p" unicode="p" horiz-adv-x="703" 
d="M618 497q0 62 -24 117q-19 42 -49 70q-65 56 -160 56h-304q-45 0 -45 -45v-650q0 -45 45 -45h99q45 0 45 45v207h143q98 0 166 54q40 31 62 83t22 108zM436 497q0 -28 -20 -45.5t-48 -17.5h-143v124h150q29 0 45 -17t16 -44z" />
    <glyph glyph-name="q" unicode="q" horiz-adv-x="927" 
d="M782 -29q35 29 8 64l-65 83q93 107 93 252q0 161 -114 275t-275 114t-275 -114t-114 -275q0 -162 114 -274q116 -114 275 -114q73 0 142 26l70 -90q27 -35 63 -7zM443 172q-3 -1 -14 -1q-83 0 -141 58q-59 59 -59 141t59 141t141 59t141 -59q58 -58 58 -141
q0 -53 -25 -96l-53 69q-26 34 -64 8l-78 -61q-35 -27 -7 -64z" />
    <glyph glyph-name="r" unicode="r" horiz-adv-x="715" 
d="M622 497q0 62 -24 117q-19 42 -49 70q-65 56 -160 56h-304q-45 0 -45 -45v-650q0 -45 45 -45h99q45 0 45 45v219h91l88 -229q15 -35 52 -35h110q26 0 35.5 14.5t-0.5 37.5l-100 235l1 1q1 0 2.5 0.5t4 1.5t4.5 2q12 6 21 14q40 31 62 83t22 108zM439 497q0 -28 -20 -45.5
t-47 -17.5h-143v124h150q29 0 44.5 -17t15.5 -44z" />
    <glyph glyph-name="s" unicode="s" horiz-adv-x="764" 
d="M472 178q-36 -25 -128 -14q-78 10 -149 52q-38 23 -63 -11l-67 -84q-31 -39 12 -63q122 -70 266 -77q7 -1 20 -1h18q137 0 214 61q67 52 79 132q18 101 -38 174q-59 77 -277 120q-56 12 -77 25q-30 18 -19 45q7 18 27 29q30 17 77 17q71 0 143 -42q39 -22 62 13l54 75
q28 37 -10 62q-48 31 -98 47q-75 22 -151 22q-107 0 -188 -47q-85 -49 -108 -125q-12 -35 -9 -83q3 -50 32 -95q57 -81 244 -121q39 -7 67 -15q41 -12 65 -27q10 -8 12 -10q11 -11 9 -28q-2 -19 -19 -31z" />
    <glyph glyph-name="t" unicode="t" horiz-adv-x="706" 
d="M383 0q45 0 45 45v506h154q45 0 45 45v99q0 45 -45 45h-497q-45 0 -45 -45v-99q0 -45 45 -45h154v-506q0 -45 45 -45h99z" />
    <glyph glyph-name="u" unicode="u" 
d="M581 740q-45 0 -45 -45v-348q0 -78 -45 -129q-44 -52 -108 -52q-65 0 -109 52q-45 51 -45 129v348q0 45 -45 45h-99q-45 0 -45 -45v-348q5 -153 98 -257q97 -108 245 -108q149 0 249 113q92 107 94 252v348q0 45 -45 45h-100z" />
    <glyph glyph-name="v" unicode="v" horiz-adv-x="805" 
d="M386 320l-133 385q-14 36 -52 36h-107q-25 0 -34.5 -14t-1.5 -37l226 -654q14 -36 52 -36h101q39 0 52 36l225 654q8 23 -1.5 37t-34.5 14h-107q-39 0 -52 -36z" />
    <glyph glyph-name="w" unicode="w" horiz-adv-x="1038" 
d="M360 0q39 0 51 38l95 348l95 -348q11 -38 50 -38h116q41 0 50 40l142 652q5 23 -5.5 36t-34.5 13h-101q-41 0 -50 -40l-69 -323l-89 325q-11 38 -50 38h-109q-39 0 -50 -38l-89 -327l-69 325q-9 40 -50 40h-102q-24 0 -34.5 -13t-5.5 -36l143 -652q9 -40 50 -40h116z" />
    <glyph glyph-name="x" unicode="x" horiz-adv-x="849" 
d="M407 541l-116 170q-20 29 -55 29h-128q-28 0 -36.5 -16t7.5 -39l213 -312l-216 -318q-16 -23 -7.5 -39t36.5 -16h128q35 0 55 29l119 175l118 -175q20 -29 55 -29h128q28 0 36.5 16t-7.5 39l-216 318l213 312q16 23 7.5 39t-36.5 16h-128q-35 0 -55 -29z" />
    <glyph glyph-name="y" unicode="y" horiz-adv-x="757" 
d="M421 0q45 0 45 45v299l212 342q15 23 6.5 38.5t-36.5 15.5h-119q-35 0 -54 -30l-104 -167l-104 167q-19 30 -54 30h-119q-28 0 -36 -15.5t6 -38.5l213 -342v-299q0 -45 45 -45h99z" />
    <glyph glyph-name="z" unicode="z" horiz-adv-x="688" 
d="M544 0q45 0 45 45v99q0 45 -45 45h-257l269 373q18 26 18 56v77q0 45 -45 45h-429q-45 0 -45 -45v-99q0 -45 45 -45h236l-277 -372q-19 -24 -19 -56v-78q0 -45 45 -45h459z" />
    <glyph glyph-name="braceleft" unicode="{" horiz-adv-x="363" 
d="M87 52q0 -77 37 -119t106 -42h46q45 0 45 45v39q0 45 -45 45q-18 0 -29 12t-11 32v187q0 91 -87 111q39 7 63 37.5t24 74.5v187q0 19 11.5 31.5t28.5 12.5q45 0 45 45v38q0 45 -45 45h-46q-69 0 -106 -41.5t-37 -118.5v-219q0 -41 -45 -41q-12 0 -12 -45v-11
q0 -45 12 -45q45 0 45 -41v-219z" />
    <glyph glyph-name="bar" unicode="|" horiz-adv-x="312" 
d="M75 808q-45 0 -45 -45v-792q0 -45 45 -45h76q45 0 45 45v792q0 45 -45 45h-76z" />
    <glyph glyph-name="braceright" unicode="}" horiz-adv-x="363" 
d="M264 271q0 41 45 41q12 0 12 45v11q0 45 -12 45q-45 0 -45 41v219q0 77 -37 118.5t-106 41.5h-46q-45 0 -45 -45v-38q0 -45 45 -45q17 0 28.5 -12.5t11.5 -31.5v-187q0 -44 24 -74.5t63 -37.5q-87 -20 -87 -111v-187q0 -20 -11 -32t-29 -12q-45 0 -45 -45v-39
q0 -45 45 -45h46q69 0 106 42t37 119v219z" />
    <glyph glyph-name="exclamdown" unicode="&#xa1;" horiz-adv-x="337" 
d="M136 753q-46 0 -75 -31q-31 -31 -31 -74q0 -45 30.5 -75.5t75.5 -30.5q43 0 74 31t31 75q0 43 -31 74q-29 31 -74 31zM228 46l-19 390q-2 44 -46 44h-54q-44 0 -46 -44l-20 -390q-1 -46 44 -46h97q45 0 44 46z" />
    <glyph glyph-name="cent" unicode="&#xa2;" horiz-adv-x="656" 
d="M550 206q29 -22 2 -46q-56 -53 -131 -70v-45q0 -45 -45 -45h-39q-45 0 -45 45v46q-76 18 -135 75q-83 85 -83 201t83 201q59 57 135 75v52q0 45 45 45h39q45 0 45 -45v-51q79 -17 137 -75q23 -23 -4 -46l-58 -45q-22 -18 -46 2q-39 33 -92 33q-58 0 -103 -43
q-43 -43 -43 -103t43 -103q44 -42 103 -42q52 0 89 30q26 20 47 2z" />
    <glyph glyph-name="dieresis" unicode="&#xa8;" horiz-adv-x="380" 
d="M99 802q27 0 46 19t19 46t-19 46t-46 19q-26 0 -45 -19t-19 -46t19 -46t45 -19zM292 802q27 0 46 19t19 46t-19 46t-46 19q-26 0 -45 -19t-19 -46t19 -46t45 -19z" />
    <glyph glyph-name="copyright" unicode="&#xa9;" horiz-adv-x="893" 
d="M418 -14q161 0 275 114q113 113 113 274q0 162 -113 275t-275 113q-161 0 -274 -113q-114 -114 -114 -275q0 -160 114 -274t274 -114zM418 628q106 0 180 -74t74 -180q0 -105 -74 -179q-75 -75 -180 -75q-104 0 -179 75t-75 179q0 105 75 180q74 74 179 74zM421 208
q46 0 89 27q20 12 21 29t-15 29q-19 13 -30 12.5t-32 -10.5q-13 -7 -33 -7q-35 0 -60 25t-25 60t25 59.5t60 24.5q19 0 37 -9q36 -17 53 -3q19 15 20 31.5t-18 31.5q-41 28 -92 28q-65 0 -115 -48q-49 -47 -49 -115q0 -67 49 -116t115 -49z" />
    <glyph glyph-name="registered" unicode="&#xae;" horiz-adv-x="833" 
d="M418 -14q161 0 275 114q113 113 113 274q0 162 -113 275t-275 113q-161 0 -274 -113q-114 -114 -114 -275q0 -160 114 -274t274 -114zM418 628q106 0 180 -74t74 -180q0 -105 -74 -179q-75 -75 -180 -75q-104 0 -179 75t-75 179q0 105 75 180q74 74 179 74zM533 423
q0 48 -28 72q-25 22 -61 22h-89q-45 0 -45 -45v-195q0 -45 27 -45q45 0 45 45v57h35l25 -66q14 -36 36 -36q26 0 35.5 14.5t-0.5 37.5l-25 59l2 1q2 0 3 1q6 3 8 5q32 24 32 73zM463 423q0 -24 -26 -24h-55v48h58q23 0 23 -24z" />
    <glyph glyph-name="macron" unicode="&#xaf;" horiz-adv-x="430" 
d="M77 897q-45 0 -45 -45t45 -45h290q45 0 45 45t-45 45h-290z" />
    <glyph glyph-name="degree" unicode="&#xb0;" horiz-adv-x="241" 
d="M126 578q42 0 71 29t29 67q0 43 -29 72t-71 29q-40 0 -69 -29q-30 -30 -30 -72q0 -37 30 -67q29 -29 69 -29zM126 714q17 0 28.5 -11.5t11.5 -28.5q0 -15 -11.5 -26.5t-28.5 -11.5q-16 0 -28 11.5t-12 26.5q0 17 12 28.5t28 11.5z" />
    <glyph glyph-name="acute" unicode="&#xb4;" horiz-adv-x="238" 
d="M137 935q-27 -19 -45 -34q-46 -39 -58 -70q-7 -15 -1 -24t23 -9q18 0 39 7q45 14 96 47q26 17 33 40t-4.5 37.5t-32 19.5t-50.5 -14z" />
    <glyph glyph-name="cedilla" unicode="&#xb8;" horiz-adv-x="306" 
d="M128 9q-5 -55 -5 -86q0 -38 14 -49q24 -17 100 3q20 6 32.5 -0.5t13.5 -18.5t-12 -23.5t-39 -16.5q-37 -6 -55 -12q-21 -8 -27 -18q-6 -11 -3.5 -23t13.5 -17q34 -16 105 2q119 29 94 130q-8 29 -20 42q-27 30 -67 30q-20 0 -36 -3q-11 -2 -15 1q-7 5 -4 30q1 8 1 29
q0 23 -12.5 36t-29.5 13t-31 -13t-17 -36z" />
    <glyph glyph-name="ordmasculine" unicode="&#xba;" horiz-adv-x="229" 
d="M116 578q42 0 71 29t29 67q0 43 -29 72t-71 29q-40 0 -69 -29q-30 -30 -30 -72q0 -37 30 -67q29 -29 69 -29zM116 714q17 0 28.5 -11.5t11.5 -28.5q0 -15 -11.5 -26.5t-28.5 -11.5q-16 0 -28 11.5t-12 26.5q0 17 12 28.5t28 11.5z" />
    <glyph glyph-name="questiondown" unicode="&#xbf;" horiz-adv-x="589" 
d="M207 655q0 -45 30.5 -75.5t75.5 -30.5q43 0 74 31q31 29 31 75q0 45 -31 74q-29 31 -74 31q-46 0 -75 -31q-31 -31 -31 -74zM293 145q-33 0 -49 16q-30 30 -16 60q11 24 40 47l18 15q115 96 115 169q0 20 -11 27.5t-34 7.5h-75q-7 0 -13 -2t-9 -3.5t-7 -7t-5.5 -7.5
t-5.5 -10l-5 -10q-21 -38 -74 -77q-49 -37 -74 -80q-40 -69 -19 -150q19 -70 83 -112q62 -40 141 -40q83 0 154 53q55 40 88 95q26 39 -18 60l-52 25q-35 17 -61 -15q-53 -61 -111 -61z" />
    <glyph glyph-name="Agrave" unicode="&#xc0;" horiz-adv-x="824" 
d="M335 935q-56 36 -82 -5q-10 -21 -8.5 -36t18 -29t31 -22t31.5 -16q3 -1 5 -2q54 -27 86 -27q17 0 23 9q11 17 -22 57q-32 38 -82 71zM334 740q-38 0 -51 -36l-229 -652q-8 -24 1.5 -38t35.5 -14h108q39 0 52 37l31 91h220l31 -91q12 -37 51 -37h107q26 0 35.5 14t1.5 38
l-228 652q-14 36 -52 36h-114zM391 497l69 -205h-132z" />
    <glyph glyph-name="Aacute" unicode="&#xc1;" horiz-adv-x="824" 
d="M434 935q-27 -19 -45 -34q-46 -39 -58 -70q-7 -15 -1 -24t23 -9q18 0 39 7q45 14 96 47q26 17 33 40t-4.5 37.5t-32 19.5t-50.5 -14zM334 740q-38 0 -51 -36l-229 -652q-8 -24 1.5 -38t35.5 -14h108q39 0 52 37l31 91h220l31 -91q12 -37 51 -37h107q26 0 35.5 14t1.5 38
l-228 652q-14 36 -52 36h-114zM391 497l69 -205h-132z" />
    <glyph glyph-name="Acircumflex" unicode="&#xc2;" horiz-adv-x="824" 
d="M390 867l39 -47q18 -21 47 -21h14q24 0 30.5 13.5t-9.5 32.5l-75 93q-16 21 -45 21h-2q-28 0 -46 -21l-75 -93q-15 -19 -8.5 -32.5t29.5 -13.5h15q28 0 46 21zM334 740q-38 0 -51 -36l-229 -652q-8 -24 1.5 -38t35.5 -14h108q39 0 52 37l31 91h220l31 -91q12 -37 51 -37
h107q26 0 35.5 14t1.5 38l-228 652q-14 36 -52 36h-114zM391 497l69 -205h-132z" />
    <glyph glyph-name="Atilde" unicode="&#xc3;" horiz-adv-x="824" 
d="M367 832q61 -44 123 -36q62 6 96 73q16 36 -8 50q-20 11 -52 -19q-35 -33 -66 -26q-29 10 -49 24q-63 44 -123 36q-66 -8 -96 -72q-18 -37 7 -51q10 -2 14 -4t13 4t12.5 9t12.5 11q36 32 66 25q24 -6 50 -24zM334 740q-38 0 -51 -36l-229 -652q-8 -24 1.5 -38t35.5 -14
h108q39 0 52 37l31 91h220l31 -91q12 -37 51 -37h107q26 0 35.5 14t1.5 38l-228 652q-14 36 -52 36h-114zM391 497l69 -205h-132z" />
    <glyph glyph-name="Adieresis" unicode="&#xc4;" horiz-adv-x="824" 
d="M293 802q27 0 46 19t19 46t-19 46t-46 19q-26 0 -45 -19t-19 -46t19 -46t45 -19zM486 802q27 0 46 19t19 46t-19 46t-46 19q-26 0 -45 -19t-19 -46t19 -46t45 -19zM334 740q-38 0 -51 -36l-229 -652q-8 -24 1.5 -38t35.5 -14h108q39 0 52 37l31 91h220l31 -91
q12 -37 51 -37h107q26 0 35.5 14t1.5 38l-228 652q-14 36 -52 36h-114zM391 497l69 -205h-132z" />
    <glyph glyph-name="Aring" unicode="&#xc5;" horiz-adv-x="824" 
d="M388 796q33 0 55.5 22t22.5 53q0 33 -22.5 55.5t-55.5 22.5q-32 0 -54.5 -22.5t-22.5 -55.5q0 -31 22.5 -53t54.5 -22zM388 902q13 0 22 -9t9 -22q0 -12 -9 -21t-22 -9q-12 0 -21.5 9t-9.5 21q0 13 9.5 22t21.5 9zM334 740q-38 0 -51 -36l-229 -652q-8 -24 1.5 -38
t35.5 -14h108q39 0 52 37l31 91h220l31 -91q12 -37 51 -37h107q26 0 35.5 14t1.5 38l-228 652q-14 36 -52 36h-114zM391 497l69 -205h-132z" />
    <glyph glyph-name="AE" unicode="&#xc6;" horiz-adv-x="1150" 
d="M1073 144q0 45 -45 45h-285v94h210q45 0 45 45v85q0 45 -45 45h-210v93h285q45 0 45 45v99q0 45 -45 45h-414h-15q-39 0 -64 -36l-453 -652q-17 -24 -12 -38t31 -14h107q38 0 65 37l62 91h220v-91q-1 -19 8.5 -28t29.5 -9h26h409q45 0 45 45v99zM570 498v-206h-132z" />
    <glyph glyph-name="Ccedilla" unicode="&#xc7;" horiz-adv-x="815" 
d="M688 150q38 -32 3 -64q-107 -100 -255 -105v-1q-3 -25 4 -30q4 -3 15 -1q17 3 36 3q40 0 67 -30q12 -13 20 -42q25 -101 -94 -130q-71 -18 -105 -2q-11 5 -13.5 17t3.5 23q6 10 27 18q18 6 55 12q26 5 39 16.5t12 23.5t-13.5 18.5t-32.5 0.5q-76 -20 -100 -3
q-14 11 -14 49q0 30 3 66q-113 24 -195 106q-114 114 -114 275t114 275t275 114q160 0 274 -112q33 -33 -6 -63l-79 -62q-30 -25 -63 3q-54 45 -126 45q-82 0 -141 -59t-59 -141t59 -141q58 -58 141 -58q69 0 122 42q35 26 64 2z" />
    <glyph glyph-name="Egrave" unicode="&#xc8;" horiz-adv-x="693" 
d="M244 935q-56 36 -82 -5q-10 -21 -8.5 -36t18 -29t31 -22t31.5 -16q3 -1 5 -2q54 -27 86 -27q17 0 23 9q11 17 -22 57q-32 38 -82 71zM559 144q0 45 -45 45h-285v94h210q45 0 45 45v85q0 45 -45 45h-210v93h285q45 0 45 45v99q0 45 -45 45h-429q-45 0 -45 -45v-650
q0 -45 45 -45h429q45 0 45 45v99z" />
    <glyph glyph-name="Eacute" unicode="&#xc9;" horiz-adv-x="693" 
d="M327 935q-27 -19 -45 -34q-46 -39 -58 -70q-7 -15 -1 -24t23 -9q18 0 39 7q45 14 96 47q26 17 33 40t-4.5 37.5t-32 19.5t-50.5 -14zM559 144q0 45 -45 45h-285v94h210q45 0 45 45v85q0 45 -45 45h-210v93h285q45 0 45 45v99q0 45 -45 45h-429q-45 0 -45 -45v-650
q0 -45 45 -45h429q45 0 45 45v99z" />
    <glyph glyph-name="Ecircumflex" unicode="&#xca;" horiz-adv-x="693" 
d="M288 867l39 -47q18 -21 47 -21h14q24 0 30.5 13.5t-9.5 32.5l-75 93q-16 21 -45 21h-2q-28 0 -46 -21l-75 -93q-15 -19 -8.5 -32.5t29.5 -13.5h15q28 0 46 21zM559 144q0 45 -45 45h-285v94h210q45 0 45 45v85q0 45 -45 45h-210v93h285q45 0 45 45v99q0 45 -45 45h-429
q-45 0 -45 -45v-650q0 -45 45 -45h429q45 0 45 45v99z" />
    <glyph glyph-name="Edieresis" unicode="&#xcb;" horiz-adv-x="693" 
d="M188 802q27 0 46 19t19 46t-19 46t-46 19q-26 0 -45 -19t-19 -46t19 -46t45 -19zM381 802q27 0 46 19t19 46t-19 46t-46 19q-26 0 -45 -19t-19 -46t19 -46t45 -19zM559 144q0 45 -45 45h-285v94h210q45 0 45 45v85q0 45 -45 45h-210v93h285q45 0 45 45v99q0 45 -45 45
h-429q-45 0 -45 -45v-650q0 -45 45 -45h429q45 0 45 45v99z" />
    <glyph glyph-name="Igrave" unicode="&#xcc;" horiz-adv-x="348" 
d="M81 935q-56 36 -82 -5q-10 -21 -8.5 -36t18 -29t31 -22t31.5 -16q3 -1 5 -2q54 -27 86 -27q17 0 23 9q11 17 -22 57q-32 38 -82 71zM85 740q-45 0 -45 -45v-650q0 -45 45 -45h99q45 0 45 45v650q0 45 -45 45h-99z" />
    <glyph glyph-name="Iacute" unicode="&#xcd;" horiz-adv-x="348" 
d="M159 935q-27 -19 -45 -34q-46 -39 -58 -70q-7 -15 -1 -24t23 -9q18 0 39 7q45 14 96 47q26 17 33 40t-4.5 37.5t-32 19.5t-50.5 -14zM85 740q-45 0 -45 -45v-650q0 -45 45 -45h99q45 0 45 45v650q0 45 -45 45h-99z" />
    <glyph glyph-name="Icircumflex" unicode="&#xce;" horiz-adv-x="348" 
d="M133 867l39 -47q18 -21 47 -21h14q24 0 30.5 13.5t-9.5 32.5l-75 93q-17 21 -45 21h-2q-28 0 -46 -21l-75 -93q-15 -19 -8.5 -32.5t29.5 -13.5h15q28 0 46 21zM85 740q-45 0 -45 -45v-650q0 -45 45 -45h99q45 0 45 45v650q0 45 -45 45h-99z" />
    <glyph glyph-name="Idieresis" unicode="&#xcf;" horiz-adv-x="348" 
d="M33 802q27 0 46 19t19 46t-19 46t-46 19q-26 0 -45 -19t-19 -46t19 -46t45 -19zM226 802q27 0 46 19t19 46t-19 46t-46 19q-26 0 -45 -19t-19 -46t19 -46t45 -19zM85 740q-45 0 -45 -45v-650q0 -45 45 -45h99q45 0 45 45v650q0 45 -45 45h-99z" />
    <glyph glyph-name="Eth" unicode="&#xd0;" horiz-adv-x="789" 
d="M575 627q102 -111 102 -257q0 -151 -106 -260q-105 -110 -251 -110h-235q-45 0 -45 45v277q-40 3 -40 45t40 45v283q0 45 45 45h236q149 0 254 -113zM437 244q50 52 50 126q0 73 -49 127q-51 54 -117 54h-92v-139h106q45 0 45 -45t-45 -45h-106v-133h91q65 0 117 55z" />
    <glyph glyph-name="Ntilde" unicode="&#xd1;" horiz-adv-x="777" 
d="M306 832q61 -44 123 -36q62 6 96 73q16 36 -8 50q-20 11 -52 -19q-35 -33 -66 -26q-29 10 -49 24q-63 44 -123 36q-66 -8 -96 -72q-18 -37 7 -51q10 -2 14 -4t13 4t12.5 9t12.5 11q36 32 66 25q24 -6 50 -24zM184 0q45 0 45 45v322l231 -338q20 -29 55 -29h86q45 0 45 45
v650q0 45 -45 45h-99q-45 0 -45 -45v-319l-231 335q-20 29 -55 29h-86q-45 0 -45 -45v-650q0 -45 45 -45h99z" />
    <glyph glyph-name="Ograve" unicode="&#xd2;" horiz-adv-x="913" 
d="M359 935q-56 36 -82 -5q-10 -21 -8.5 -36t18 -29t31 -22t31.5 -16q3 -1 5 -2q54 -27 86 -27q17 0 23 9q11 17 -22 57q-32 38 -82 71zM429 -18q159 0 275 114q114 112 114 274q0 161 -114 275t-275 114t-275 -114t-114 -275q0 -162 114 -274q116 -114 275 -114zM429 570
q82 0 141 -59q58 -58 58 -141t-58 -141t-141 -58t-141 58q-59 59 -59 141t59 141t141 59z" />
    <glyph glyph-name="Oacute" unicode="&#xd3;" horiz-adv-x="913" 
d="M466 935q-27 -19 -45 -34q-46 -39 -58 -70q-7 -15 -1 -24t23 -9q18 0 39 7q45 14 96 47q26 17 33 40t-4.5 37.5t-32 19.5t-50.5 -14zM429 -18q159 0 275 114q114 112 114 274q0 161 -114 275t-275 114t-275 -114t-114 -275q0 -162 114 -274q116 -114 275 -114zM429 570
q82 0 141 -59q58 -58 58 -141t-58 -141t-141 -58t-141 58q-59 59 -59 141t59 141t141 59z" />
    <glyph glyph-name="Ocircumflex" unicode="&#xd4;" horiz-adv-x="913" 
d="M423 867l39 -47q18 -21 47 -21h14q24 0 30.5 13.5t-9.5 32.5l-75 93q-17 21 -45 21h-2q-28 0 -46 -21l-75 -93q-15 -19 -8.5 -32.5t29.5 -13.5h15q28 0 46 21zM429 -18q159 0 275 114q114 112 114 274q0 161 -114 275t-275 114t-275 -114t-114 -275q0 -162 114 -274
q116 -114 275 -114zM429 570q82 0 141 -59q58 -58 58 -141t-58 -141t-141 -58t-141 58q-59 59 -59 141t59 141t141 59z" />
    <glyph glyph-name="Otilde" unicode="&#xd5;" horiz-adv-x="913" 
d="M419 832q61 -44 123 -36q62 6 96 73q16 36 -8 50q-20 11 -52 -19q-35 -33 -66 -26q-29 10 -49 24q-63 44 -123 36q-66 -8 -96 -72q-18 -37 7 -51q10 -2 14 -4t13 4t12.5 9t12.5 11q36 32 66 25q24 -6 50 -24zM429 -18q159 0 275 114q114 112 114 274q0 161 -114 275
t-275 114t-275 -114t-114 -275q0 -162 114 -274q116 -114 275 -114zM429 570q82 0 141 -59q58 -58 58 -141t-58 -141t-141 -58t-141 58q-59 59 -59 141t59 141t141 59z" />
    <glyph glyph-name="Odieresis" unicode="&#xd6;" horiz-adv-x="913" 
d="M321 802q27 0 46 19t19 46t-19 46t-46 19q-26 0 -45 -19t-19 -46t19 -46t45 -19zM514 802q27 0 46 19t19 46t-19 46t-46 19q-26 0 -45 -19t-19 -46t19 -46t45 -19zM429 -18q159 0 275 114q114 112 114 274q0 161 -114 275t-275 114t-275 -114t-114 -275q0 -162 114 -274
q116 -114 275 -114zM429 570q82 0 141 -59q58 -58 58 -141t-58 -141t-141 -58t-141 58q-59 59 -59 141t59 141t141 59z" />
    <glyph glyph-name="Oslash" unicode="&#xd8;" horiz-adv-x="913" 
d="M704 645q114 -114 114 -275q0 -162 -114 -274q-116 -114 -275 -114h-5l-5 -18q-11 -38 -50 -38h-74q-25 0 -35 14t-3 37l12 40q-65 28 -115 79q-114 112 -114 274q0 161 114 275t275 114q28 0 60 -5l5 16q11 38 50 38h74q25 0 35 -14t3 -37l-18 -59q35 -22 66 -53z
M288 229q15 -15 36 -28l110 369h-5q-82 0 -141 -59t-59 -141t59 -141zM570 229q58 58 58 141q0 76 -49 131l-96 -323q52 16 87 51z" />
    <glyph glyph-name="Ugrave" unicode="&#xd9;" 
d="M336 935q-56 36 -82 -5q-10 -21 -8.5 -36t18 -29t31 -22t31.5 -16q3 -1 5 -2q54 -27 86 -27q17 0 23 9q11 17 -22 57q-32 38 -82 71zM726 695q0 45 -45 45h-100q-45 0 -45 -45v-348q0 -78 -45 -129q-44 -52 -108 -52q-65 0 -109 52q-45 51 -45 129v348q0 45 -45 45h-99
q-45 0 -45 -45v-348q5 -153 98 -257q97 -108 245 -108q149 0 249 113q92 107 94 252v348z" />
    <glyph glyph-name="Uacute" unicode="&#xda;" 
d="M433 935q-27 -19 -45 -34q-46 -39 -58 -70q-7 -15 -1 -24t23 -9q18 0 39 7q45 14 96 47q26 17 33 40t-4.5 37.5t-32 19.5t-50.5 -14zM726 695q0 45 -45 45h-100q-45 0 -45 -45v-348q0 -78 -45 -129q-44 -52 -108 -52q-65 0 -109 52q-45 51 -45 129v348q0 45 -45 45h-99
q-45 0 -45 -45v-348q5 -153 98 -257q97 -108 245 -108q149 0 249 113q92 107 94 252v348z" />
    <glyph glyph-name="Ucircumflex" unicode="&#xdb;" 
d="M377 867l39 -47q18 -21 47 -21h14q24 0 30.5 13.5t-9.5 32.5l-75 93q-17 21 -45 21h-2q-28 0 -46 -21l-75 -93q-15 -19 -8.5 -32.5t29.5 -13.5h15q28 0 46 21zM726 695q0 45 -45 45h-100q-45 0 -45 -45v-348q0 -78 -45 -129q-44 -52 -108 -52q-65 0 -109 52
q-45 51 -45 129v348q0 45 -45 45h-99q-45 0 -45 -45v-348q5 -153 98 -257q97 -108 245 -108q149 0 249 113q92 107 94 252v348z" />
    <glyph glyph-name="Udieresis" unicode="&#xdc;" 
d="M283 802q27 0 46 19t19 46t-19 46t-46 19q-26 0 -45 -19t-19 -46t19 -46t45 -19zM476 802q27 0 46 19t19 46t-19 46t-46 19q-26 0 -45 -19t-19 -46t19 -46t45 -19zM726 695q0 45 -45 45h-100q-45 0 -45 -45v-348q0 -78 -45 -129q-44 -52 -108 -52q-65 0 -109 52
q-45 51 -45 129v348q0 45 -45 45h-99q-45 0 -45 -45v-348q5 -153 98 -257q97 -108 245 -108q149 0 249 113q92 107 94 252v348z" />
    <glyph glyph-name="Yacute" unicode="&#xdd;" horiz-adv-x="757" 
d="M414 935q-27 -19 -45 -34q-46 -39 -58 -70q-7 -15 -1 -24t23 -9q18 0 39 7q45 14 96 47q26 17 33 40t-4.5 37.5t-32 19.5t-50.5 -14zM421 0q45 0 45 45v299l212 342q15 23 6.5 38.5t-36.5 15.5h-119q-35 0 -54 -30l-104 -167l-104 167q-19 30 -54 30h-119
q-28 0 -36 -15.5t6 -38.5l213 -342v-299q0 -45 45 -45h99z" />
    <glyph glyph-name="Thorn" unicode="&#xde;" horiz-adv-x="756" 
d="M596 557q80 -72 80 -177q0 -107 -77 -174q-75 -67 -183 -70h-187v-91q0 -45 -45 -45h-99q-45 0 -45 45v650q0 45 45 45h99q45 0 45 -45v-71h187q104 -2 180 -67zM415 300q52 0 73.5 25t21.5 55q0 29 -22 54t-73 25h-186v-159h186z" />
    <glyph glyph-name="germandbls" unicode="&#xdf;" horiz-adv-x="705" 
d="M505 371q9 -2 26 -12t39 -28.5t37.5 -51t15.5 -72.5q0 -226 -289 -226q-34 0 -56 11.5t-17 37.5l17 84q4 18 15 26.5t21.5 8t19.5 -0.5q48 -2 78 20q24 17 29 51q3 28 -17 50q-21 21 -66 30q-47 8 -47 46v47q0 37 46 47q48 9 65 36q12 18 7 52q-12 65 -95 65
q-49 0 -83 -39.5t-34 -122.5v-128v-118v-139q0 -45 -45 -45h-82q-45 0 -45 45v139v118v173q0 81 30 137t69 87q74 56 175 62q118 7 199 -53q62 -46 79 -105q20 -78 -8 -145q-29 -69 -84 -87z" />
    <glyph glyph-name="agrave" unicode="&#xe0;" horiz-adv-x="824" 
d="M293 802q27 0 46 19t19 46t-19 46t-46 19q-26 0 -45 -19t-19 -46t19 -46t45 -19zM486 802q27 0 46 19t19 46t-19 46t-46 19q-26 0 -45 -19t-19 -46t19 -46t45 -19zM334 740q-38 0 -51 -36l-229 -652q-8 -24 1.5 -38t35.5 -14h108q39 0 52 37l31 91h220l31 -91
q12 -37 51 -37h107q26 0 35.5 14t1.5 38l-228 652q-14 36 -52 36h-114zM391 497l69 -205h-132z" />
    <glyph glyph-name="aacute" unicode="&#xe1;" horiz-adv-x="824" 
d="M434 935q-27 -19 -45 -34q-46 -39 -58 -70q-7 -15 -1 -24t23 -9q18 0 39 7q45 14 96 47q26 17 33 40t-4.5 37.5t-32 19.5t-50.5 -14zM334 740q-38 0 -51 -36l-229 -652q-8 -24 1.5 -38t35.5 -14h108q39 0 52 37l31 91h220l31 -91q12 -37 51 -37h107q26 0 35.5 14t1.5 38
l-228 652q-14 36 -52 36h-114zM391 497l69 -205h-132z" />
    <glyph glyph-name="acircumflex" unicode="&#xe2;" horiz-adv-x="824" 
d="M390 867l39 -47q18 -21 47 -21h14q24 0 30.5 13.5t-9.5 32.5l-75 93q-16 21 -45 21h-2q-28 0 -46 -21l-75 -93q-15 -19 -8.5 -32.5t29.5 -13.5h15q28 0 46 21zM334 740q-38 0 -51 -36l-229 -652q-8 -24 1.5 -38t35.5 -14h108q39 0 52 37l31 91h220l31 -91q12 -37 51 -37
h107q26 0 35.5 14t1.5 38l-228 652q-14 36 -52 36h-114zM391 497l69 -205h-132z" />
    <glyph glyph-name="atilde" unicode="&#xe3;" horiz-adv-x="824" 
d="M367 832q61 -44 123 -36q62 6 96 73q16 36 -8 50q-20 11 -52 -19q-35 -33 -66 -26q-29 10 -49 24q-63 44 -123 36q-66 -8 -96 -72q-18 -37 7 -51q10 -2 14 -4t13 4t12.5 9t12.5 11q36 32 66 25q24 -6 50 -24zM334 740q-38 0 -51 -36l-229 -652q-8 -24 1.5 -38t35.5 -14
h108q39 0 52 37l31 91h220l31 -91q12 -37 51 -37h107q26 0 35.5 14t1.5 38l-228 652q-14 36 -52 36h-114zM391 497l69 -205h-132z" />
    <glyph glyph-name="adieresis" unicode="&#xe4;" horiz-adv-x="824" 
d="M335 935q-56 36 -82 -5q-10 -21 -8.5 -36t18 -29t31 -22t31.5 -16q3 -1 5 -2q54 -27 86 -27q17 0 23 9q11 17 -22 57q-32 38 -82 71zM334 740q-38 0 -51 -36l-229 -652q-8 -24 1.5 -38t35.5 -14h108q39 0 52 37l31 91h220l31 -91q12 -37 51 -37h107q26 0 35.5 14t1.5 38
l-228 652q-14 36 -52 36h-114zM391 497l69 -205h-132z" />
    <glyph glyph-name="aring" unicode="&#xe5;" horiz-adv-x="824" 
d="M388 796q33 0 55.5 22t22.5 53q0 33 -22.5 55.5t-55.5 22.5q-32 0 -54.5 -22.5t-22.5 -55.5q0 -31 22.5 -53t54.5 -22zM388 902q13 0 22 -9t9 -22q0 -12 -9 -21t-22 -9q-12 0 -21.5 9t-9.5 21q0 13 9.5 22t21.5 9zM334 740q-38 0 -51 -36l-229 -652q-8 -24 1.5 -38
t35.5 -14h108q39 0 52 37l31 91h220l31 -91q12 -37 51 -37h107q26 0 35.5 14t1.5 38l-228 652q-14 36 -52 36h-114zM391 497l69 -205h-132z" />
    <glyph glyph-name="ae" unicode="&#xe6;" horiz-adv-x="1150" 
d="M1073 144q0 45 -45 45h-285v94h210q45 0 45 45v85q0 45 -45 45h-210v93h285q45 0 45 45v99q0 45 -45 45h-414h-15q-39 0 -64 -36l-453 -652q-17 -24 -12 -38t31 -14h107q38 0 65 37l62 91h220v-91q-1 -19 8.5 -28t29.5 -9h26h409q45 0 45 45v99zM570 498v-206h-132z" />
    <glyph glyph-name="ccedilla" unicode="&#xe7;" horiz-adv-x="815" 
d="M688 150q38 -32 3 -64q-107 -100 -255 -105v-1q-3 -25 4 -30q4 -3 15 -1q17 3 36 3q40 0 67 -30q12 -13 20 -42q25 -101 -94 -130q-71 -18 -105 -2q-11 5 -13.5 17t3.5 23q6 10 27 18q18 6 55 12q26 5 39 16.5t12 23.5t-13.5 18.5t-32.5 0.5q-76 -20 -100 -3
q-14 11 -14 49q0 30 3 66q-113 24 -195 106q-114 114 -114 275t114 275t275 114q160 0 274 -112q33 -33 -6 -63l-79 -62q-30 -25 -63 3q-54 45 -126 45q-82 0 -141 -59t-59 -141t59 -141q58 -58 141 -58q69 0 122 42q35 26 64 2z" />
    <glyph glyph-name="egrave" unicode="&#xe8;" horiz-adv-x="693" 
d="M244 935q-56 36 -82 -5q-10 -21 -8.5 -36t18 -29t31 -22t31.5 -16q3 -1 5 -2q54 -27 86 -27q17 0 23 9q11 17 -22 57q-32 38 -82 71zM559 144q0 45 -45 45h-285v94h210q45 0 45 45v85q0 45 -45 45h-210v93h285q45 0 45 45v99q0 45 -45 45h-429q-45 0 -45 -45v-650
q0 -45 45 -45h429q45 0 45 45v99z" />
    <glyph glyph-name="eacute" unicode="&#xe9;" horiz-adv-x="693" 
d="M327 935q-27 -19 -45 -34q-46 -39 -58 -70q-7 -15 -1 -24t23 -9q18 0 39 7q45 14 96 47q26 17 33 40t-4.5 37.5t-32 19.5t-50.5 -14zM559 144q0 45 -45 45h-285v94h210q45 0 45 45v85q0 45 -45 45h-210v93h285q45 0 45 45v99q0 45 -45 45h-429q-45 0 -45 -45v-650
q0 -45 45 -45h429q45 0 45 45v99z" />
    <glyph glyph-name="ecircumflex" unicode="&#xea;" horiz-adv-x="693" 
d="M288 867l39 -47q18 -21 47 -21h14q24 0 30.5 13.5t-9.5 32.5l-75 93q-16 21 -45 21h-2q-28 0 -46 -21l-75 -93q-15 -19 -8.5 -32.5t29.5 -13.5h15q28 0 46 21zM559 144q0 45 -45 45h-285v94h210q45 0 45 45v85q0 45 -45 45h-210v93h285q45 0 45 45v99q0 45 -45 45h-429
q-45 0 -45 -45v-650q0 -45 45 -45h429q45 0 45 45v99z" />
    <glyph glyph-name="edieresis" unicode="&#xeb;" horiz-adv-x="693" 
d="M188 802q27 0 46 19t19 46t-19 46t-46 19q-26 0 -45 -19t-19 -46t19 -46t45 -19zM381 802q27 0 46 19t19 46t-19 46t-46 19q-26 0 -45 -19t-19 -46t19 -46t45 -19zM559 144q0 45 -45 45h-285v94h210q45 0 45 45v85q0 45 -45 45h-210v93h285q45 0 45 45v99q0 45 -45 45
h-429q-45 0 -45 -45v-650q0 -45 45 -45h429q45 0 45 45v99z" />
    <glyph glyph-name="igrave" unicode="&#xec;" horiz-adv-x="348" 
d="M81 935q-56 36 -82 -5q-10 -21 -8.5 -36t18 -29t31 -22t31.5 -16q3 -1 5 -2q54 -27 86 -27q17 0 23 9q11 17 -22 57q-32 38 -82 71zM85 740q-45 0 -45 -45v-650q0 -45 45 -45h99q45 0 45 45v650q0 45 -45 45h-99z" />
    <glyph glyph-name="iacute" unicode="&#xed;" horiz-adv-x="348" 
d="M159 935q-27 -19 -45 -34q-46 -39 -58 -70q-7 -15 -1 -24t23 -9q18 0 39 7q45 14 96 47q26 17 33 40t-4.5 37.5t-32 19.5t-50.5 -14zM85 740q-45 0 -45 -45v-650q0 -45 45 -45h99q45 0 45 45v650q0 45 -45 45h-99z" />
    <glyph glyph-name="icircumflex" unicode="&#xee;" horiz-adv-x="348" 
d="M133 867l39 -47q18 -21 47 -21h14q24 0 30.5 13.5t-9.5 32.5l-75 93q-17 21 -45 21h-2q-28 0 -46 -21l-75 -93q-15 -19 -8.5 -32.5t29.5 -13.5h15q28 0 46 21zM85 740q-45 0 -45 -45v-650q0 -45 45 -45h99q45 0 45 45v650q0 45 -45 45h-99z" />
    <glyph glyph-name="idieresis" unicode="&#xef;" horiz-adv-x="348" 
d="M33 802q27 0 46 19t19 46t-19 46t-46 19q-26 0 -45 -19t-19 -46t19 -46t45 -19zM226 802q27 0 46 19t19 46t-19 46t-46 19q-26 0 -45 -19t-19 -46t19 -46t45 -19zM85 740q-45 0 -45 -45v-650q0 -45 45 -45h99q45 0 45 45v650q0 45 -45 45h-99z" />
    <glyph glyph-name="eth" unicode="&#xf0;" horiz-adv-x="789" 
d="M575 627q102 -111 102 -257q0 -151 -106 -260q-105 -110 -251 -110h-235q-45 0 -45 45v277q-40 3 -40 45t40 45v283q0 45 45 45h236q149 0 254 -113zM437 244q50 52 50 126q0 73 -49 127q-51 54 -117 54h-92v-139h106q45 0 45 -45t-45 -45h-106v-133h91q65 0 117 55z" />
    <glyph glyph-name="ntilde" unicode="&#xf1;" horiz-adv-x="777" 
d="M306 832q61 -44 123 -36q62 6 96 73q16 36 -8 50q-20 11 -52 -19q-35 -33 -66 -26q-29 10 -49 24q-63 44 -123 36q-66 -8 -96 -72q-18 -37 7 -51q10 -2 14 -4t13 4t12.5 9t12.5 11q36 32 66 25q24 -6 50 -24zM184 0q45 0 45 45v322l231 -338q20 -29 55 -29h86q45 0 45 45
v650q0 45 -45 45h-99q-45 0 -45 -45v-319l-231 335q-20 29 -55 29h-86q-45 0 -45 -45v-650q0 -45 45 -45h99z" />
    <glyph glyph-name="ograve" unicode="&#xf2;" horiz-adv-x="913" 
d="M359 935q-56 36 -82 -5q-10 -21 -8.5 -36t18 -29t31 -22t31.5 -16q3 -1 5 -2q54 -27 86 -27q17 0 23 9q11 17 -22 57q-32 38 -82 71zM429 -18q159 0 275 114q114 112 114 274q0 161 -114 275t-275 114t-275 -114t-114 -275q0 -162 114 -274q116 -114 275 -114zM429 570
q82 0 141 -59q58 -58 58 -141t-58 -141t-141 -58t-141 58q-59 59 -59 141t59 141t141 59z" />
    <glyph glyph-name="oacute" unicode="&#xf3;" horiz-adv-x="913" 
d="M466 935q-27 -19 -45 -34q-46 -39 -58 -70q-7 -15 -1 -24t23 -9q18 0 39 7q45 14 96 47q26 17 33 40t-4.5 37.5t-32 19.5t-50.5 -14zM429 -18q159 0 275 114q114 112 114 274q0 161 -114 275t-275 114t-275 -114t-114 -275q0 -162 114 -274q116 -114 275 -114zM429 570
q82 0 141 -59q58 -58 58 -141t-58 -141t-141 -58t-141 58q-59 59 -59 141t59 141t141 59z" />
    <glyph glyph-name="ocircumflex" unicode="&#xf4;" horiz-adv-x="913" 
d="M423 867l39 -47q18 -21 47 -21h14q24 0 30.5 13.5t-9.5 32.5l-75 93q-17 21 -45 21h-2q-28 0 -46 -21l-75 -93q-15 -19 -8.5 -32.5t29.5 -13.5h15q28 0 46 21zM429 -18q159 0 275 114q114 112 114 274q0 161 -114 275t-275 114t-275 -114t-114 -275q0 -162 114 -274
q116 -114 275 -114zM429 570q82 0 141 -59q58 -58 58 -141t-58 -141t-141 -58t-141 58q-59 59 -59 141t59 141t141 59z" />
    <glyph glyph-name="otilde" unicode="&#xf5;" horiz-adv-x="913" 
d="M419 832q61 -44 123 -36q62 6 96 73q16 36 -8 50q-20 11 -52 -19q-35 -33 -66 -26q-29 10 -49 24q-63 44 -123 36q-66 -8 -96 -72q-18 -37 7 -51q10 -2 14 -4t13 4t12.5 9t12.5 11q36 32 66 25q24 -6 50 -24zM429 -18q159 0 275 114q114 112 114 274q0 161 -114 275
t-275 114t-275 -114t-114 -275q0 -162 114 -274q116 -114 275 -114zM429 570q82 0 141 -59q58 -58 58 -141t-58 -141t-141 -58t-141 58q-59 59 -59 141t59 141t141 59z" />
    <glyph glyph-name="odieresis" unicode="&#xf6;" horiz-adv-x="913" 
d="M321 802q27 0 46 19t19 46t-19 46t-46 19q-26 0 -45 -19t-19 -46t19 -46t45 -19zM514 802q27 0 46 19t19 46t-19 46t-46 19q-26 0 -45 -19t-19 -46t19 -46t45 -19zM429 -18q159 0 275 114q114 112 114 274q0 161 -114 275t-275 114t-275 -114t-114 -275q0 -162 114 -274
q116 -114 275 -114zM429 570q82 0 141 -59q58 -58 58 -141t-58 -141t-141 -58t-141 58q-59 59 -59 141t59 141t141 59z" />
    <glyph glyph-name="oslash" unicode="&#xf8;" horiz-adv-x="913" 
d="M704 645q114 -114 114 -275q0 -162 -114 -274q-116 -114 -275 -114h-5l-5 -18q-11 -38 -50 -38h-74q-25 0 -35 14t-3 37l12 40q-65 28 -115 79q-114 112 -114 274q0 161 114 275t275 114q28 0 60 -5l5 16q11 38 50 38h74q25 0 35 -14t3 -37l-18 -59q35 -22 66 -53z
M288 229q15 -15 36 -28l110 369h-5q-82 0 -141 -59t-59 -141t59 -141zM570 229q58 58 58 141q0 76 -49 131l-96 -323q52 16 87 51z" />
    <glyph glyph-name="ugrave" unicode="&#xf9;" 
d="M333 932q-37 -33 -60 -70q-24 -41 -13 -54q11 -15 52 4q35 17 74 51q26 23 23.5 50.5t-25 33.5t-51.5 -15zM483 932q-37 -33 -60 -70q-24 -41 -13 -54q11 -15 52 4q35 17 74 51q26 23 23.5 50.5t-25 33.5t-51.5 -15zM726 695q0 45 -45 45h-100q-45 0 -45 -45v-348
q0 -78 -45 -129q-44 -52 -108 -52q-65 0 -109 52q-45 51 -45 129v348q0 45 -45 45h-99q-45 0 -45 -45v-348q5 -153 98 -257q97 -108 245 -108q149 0 249 113q92 107 94 252v348z" />
    <glyph glyph-name="uacute" unicode="&#xfa;" 
d="M433 935q-27 -19 -45 -34q-46 -39 -58 -70q-7 -15 -1 -24t23 -9q18 0 39 7q45 14 96 47q26 17 33 40t-4.5 37.5t-32 19.5t-50.5 -14zM726 695q0 45 -45 45h-100q-45 0 -45 -45v-348q0 -78 -45 -129q-44 -52 -108 -52q-65 0 -109 52q-45 51 -45 129v348q0 45 -45 45h-99
q-45 0 -45 -45v-348q5 -153 98 -257q97 -108 245 -108q149 0 249 113q92 107 94 252v348z" />
    <glyph glyph-name="ucircumflex" unicode="&#xfb;" 
d="M377 867l39 -47q18 -21 47 -21h14q24 0 30.5 13.5t-9.5 32.5l-75 93q-17 21 -45 21h-2q-28 0 -46 -21l-75 -93q-15 -19 -8.5 -32.5t29.5 -13.5h15q28 0 46 21zM726 695q0 45 -45 45h-100q-45 0 -45 -45v-348q0 -78 -45 -129q-44 -52 -108 -52q-65 0 -109 52
q-45 51 -45 129v348q0 45 -45 45h-99q-45 0 -45 -45v-348q5 -153 98 -257q97 -108 245 -108q149 0 249 113q92 107 94 252v348z" />
    <glyph glyph-name="udieresis" unicode="&#xfc;" 
d="M283 802q27 0 46 19t19 46t-19 46t-46 19q-26 0 -45 -19t-19 -46t19 -46t45 -19zM476 802q27 0 46 19t19 46t-19 46t-46 19q-26 0 -45 -19t-19 -46t19 -46t45 -19zM726 695q0 45 -45 45h-100q-45 0 -45 -45v-348q0 -78 -45 -129q-44 -52 -108 -52q-65 0 -109 52
q-45 51 -45 129v348q0 45 -45 45h-99q-45 0 -45 -45v-348q5 -153 98 -257q97 -108 245 -108q149 0 249 113q92 107 94 252v348z" />
    <glyph glyph-name="yacute" unicode="&#xfd;" horiz-adv-x="757" 
d="M414 935q-27 -19 -45 -34q-46 -39 -58 -70q-7 -15 -1 -24t23 -9q18 0 39 7q45 14 96 47q26 17 33 40t-4.5 37.5t-32 19.5t-50.5 -14zM421 0q45 0 45 45v299l212 342q15 23 6.5 38.5t-36.5 15.5h-119q-35 0 -54 -30l-104 -167l-104 167q-19 30 -54 30h-119
q-28 0 -36 -15.5t6 -38.5l213 -342v-299q0 -45 45 -45h99z" />
    <glyph glyph-name="thorn" unicode="&#xfe;" horiz-adv-x="756" 
d="M596 557q80 -72 80 -177q0 -107 -77 -174q-75 -67 -183 -70h-187v-91q0 -45 -45 -45h-99q-45 0 -45 45v650q0 45 45 45h99q45 0 45 -45v-71h187q104 -2 180 -67zM415 300q52 0 73.5 25t21.5 55q0 29 -22 54t-73 25h-186v-159h186z" />
    <glyph glyph-name="ydieresis" unicode="&#xff;" horiz-adv-x="757" 
d="M274 802q27 0 46 19t19 46t-19 46t-46 19q-26 0 -45 -19t-19 -46t19 -46t45 -19zM467 802q27 0 46 19t19 46t-19 46t-46 19q-26 0 -45 -19t-19 -46t19 -46t45 -19zM421 0q45 0 45 45v299l212 342q15 23 6.5 38.5t-36.5 15.5h-119q-35 0 -54 -30l-104 -167l-104 167
q-19 30 -54 30h-119q-28 0 -36 -15.5t6 -38.5l213 -342v-299q0 -45 45 -45h99z" />
    <glyph glyph-name="Amacron" unicode="&#x100;" horiz-adv-x="824" 
d="M245 897q-45 0 -45 -45t45 -45h290q45 0 45 45t-45 45h-290zM334 740q-38 0 -51 -36l-229 -652q-8 -24 1.5 -38t35.5 -14h108q39 0 52 37l31 91h220l31 -91q12 -37 51 -37h107q26 0 35.5 14t1.5 38l-228 652q-14 36 -52 36h-114zM391 497l69 -205h-132z" />
    <glyph glyph-name="amacron" unicode="&#x101;" horiz-adv-x="824" 
d="M245 897q-45 0 -45 -45t45 -45h290q45 0 45 45t-45 45h-290zM334 740q-38 0 -51 -36l-229 -652q-8 -24 1.5 -38t35.5 -14h108q39 0 52 37l31 91h220l31 -91q12 -37 51 -37h107q26 0 35.5 14t1.5 38l-228 652q-14 36 -52 36h-114zM391 497l69 -205h-132z" />
    <glyph glyph-name="Abreve" unicode="&#x102;" horiz-adv-x="824" 
d="M387 883h-5q-29 1 -52 43q-8 14 -12 19.5t-12.5 10.5t-19.5 3q-28 -6 -21 -46q7 -51 47 -84q35 -30 76 -30q44 0 77 30q33 29 44 84q7 40 -21 46q-11 2 -20 -3.5t-12.5 -11t-12.5 -19.5q-8 -14 -13 -20.5t-17 -14t-26 -7.5zM334 740q-38 0 -51 -36l-229 -652
q-8 -24 1.5 -38t35.5 -14h108q39 0 52 37l31 91h220l31 -91q12 -37 51 -37h107q26 0 35.5 14t1.5 38l-228 652q-14 36 -52 36h-114zM391 497l69 -205h-132z" />
    <glyph glyph-name="abreve" unicode="&#x103;" horiz-adv-x="824" 
d="M387 883h-5q-29 1 -52 43q-8 14 -12 19.5t-12.5 10.5t-19.5 3q-28 -6 -21 -46q7 -51 47 -84q35 -30 76 -30q44 0 77 30q33 29 44 84q7 40 -21 46q-11 2 -20 -3.5t-12.5 -11t-12.5 -19.5q-8 -14 -13 -20.5t-17 -14t-26 -7.5zM334 740q-38 0 -51 -36l-229 -652
q-8 -24 1.5 -38t35.5 -14h108q39 0 52 37l31 91h220l31 -91q12 -37 51 -37h107q26 0 35.5 14t1.5 38l-228 652q-14 36 -52 36h-114zM391 497l69 -205h-132z" />
    <glyph glyph-name="Aogonek" unicode="&#x104;" horiz-adv-x="824" 
d="M804 -111q2 -15 -7 -24.5t-36 -21.5q-22 -10 -47 -15t-58 -1t-56 23q-38 32 -44 83q-4 40 12 69q-26 6 -35 35l-31 91h-220l-31 -91q-13 -37 -52 -37h-108q-26 0 -35.5 14t-1.5 38l229 652q13 36 51 36h114q38 0 52 -36l228 -652q14 -41 -20 -50q-10 -6 -15 -8
q-2 -1 -32 -11q-20 -6 -27.5 -21.5t0.5 -30.5q7 -16 25.5 -25.5t44.5 -4.5q37 8 52 13q17 6 31 -1.5t17 -23.5zM328 292h132l-69 205z" />
    <glyph glyph-name="aogonek" unicode="&#x105;" horiz-adv-x="824" 
d="M804 -111q2 -15 -7 -24.5t-36 -21.5q-22 -10 -47 -15t-58 -1t-56 23q-38 32 -44 83q-4 40 12 69q-26 6 -35 35l-31 91h-220l-31 -91q-13 -37 -52 -37h-108q-26 0 -35.5 14t-1.5 38l229 652q13 36 51 36h114q38 0 52 -36l228 -652q14 -41 -20 -50q-10 -6 -15 -8
q-2 -1 -32 -11q-20 -6 -27.5 -21.5t0.5 -30.5q7 -16 25.5 -25.5t44.5 -4.5q37 8 52 13q17 6 31 -1.5t17 -23.5zM328 292h132l-69 205z" />
    <glyph glyph-name="Cacute" unicode="&#x106;" horiz-adv-x="815" 
d="M439 935q-27 -19 -45 -34q-46 -39 -58 -70q-7 -15 -1 -24t23 -9q18 0 39 7q45 14 96 47q26 17 33 40t-4.5 37.5t-32 19.5t-50.5 -14zM425 -19q155 0 266 105q35 32 -3 64l-77 65q-29 24 -64 -2q-53 -42 -122 -42q-83 0 -141 58q-59 59 -59 141t59 141t141 59
q72 0 126 -45q33 -28 63 -3l79 62q39 30 6 63q-114 112 -274 112q-161 0 -275 -114t-114 -275t114 -275t275 -114z" />
    <glyph glyph-name="cacute" unicode="&#x107;" horiz-adv-x="815" 
d="M439 935q-27 -19 -45 -34q-46 -39 -58 -70q-7 -15 -1 -24t23 -9q18 0 39 7q45 14 96 47q26 17 33 40t-4.5 37.5t-32 19.5t-50.5 -14zM425 -19q155 0 266 105q35 32 -3 64l-77 65q-29 24 -64 -2q-53 -42 -122 -42q-83 0 -141 58q-59 59 -59 141t59 141t141 59
q72 0 126 -45q33 -28 63 -3l79 62q39 30 6 63q-114 112 -274 112q-161 0 -275 -114t-114 -275t114 -275t275 -114z" />
    <glyph glyph-name="Ccircumflex" unicode="&#x108;" horiz-adv-x="815" 
d="M407 867l39 -47q18 -21 47 -21h14q24 0 30.5 13.5t-9.5 32.5l-75 93q-17 21 -45 21h-2q-28 0 -46 -21l-75 -93q-15 -19 -8.5 -32.5t29.5 -13.5h15q28 0 46 21zM425 -19q155 0 266 105q35 32 -3 64l-77 65q-29 24 -64 -2q-53 -42 -122 -42q-83 0 -141 58q-59 59 -59 141
t59 141t141 59q72 0 126 -45q33 -28 63 -3l79 62q39 30 6 63q-114 112 -274 112q-161 0 -275 -114t-114 -275t114 -275t275 -114z" />
    <glyph glyph-name="ccircumflex" unicode="&#x109;" horiz-adv-x="815" 
d="M407 867l39 -47q18 -21 47 -21h14q24 0 30.5 13.5t-9.5 32.5l-75 93q-17 21 -45 21h-2q-28 0 -46 -21l-75 -93q-15 -19 -8.5 -32.5t29.5 -13.5h15q28 0 46 21zM425 -19q155 0 266 105q35 32 -3 64l-77 65q-29 24 -64 -2q-53 -42 -122 -42q-83 0 -141 58q-59 59 -59 141
t59 141t141 59q72 0 126 -45q33 -28 63 -3l79 62q39 30 6 63q-114 112 -274 112q-161 0 -275 -114t-114 -275t114 -275t275 -114z" />
    <glyph glyph-name="Cdotaccent" unicode="&#x10a;" horiz-adv-x="815" 
d="M407 802q27 0 46 19t19 46t-19 46t-46 19q-26 0 -45 -19t-19 -46t19 -46t45 -19zM425 -19q155 0 266 105q35 32 -3 64l-77 65q-29 24 -64 -2q-53 -42 -122 -42q-83 0 -141 58q-59 59 -59 141t59 141t141 59q72 0 126 -45q33 -28 63 -3l79 62q39 30 6 63
q-114 112 -274 112q-161 0 -275 -114t-114 -275t114 -275t275 -114z" />
    <glyph glyph-name="cdotaccent" unicode="&#x10b;" horiz-adv-x="815" 
d="M407 802q27 0 46 19t19 46t-19 46t-46 19q-26 0 -45 -19t-19 -46t19 -46t45 -19zM425 -19q155 0 266 105q35 32 -3 64l-77 65q-29 24 -64 -2q-53 -42 -122 -42q-83 0 -141 58q-59 59 -59 141t59 141t141 59q72 0 126 -45q33 -28 63 -3l79 62q39 30 6 63
q-114 112 -274 112q-161 0 -275 -114t-114 -275t114 -275t275 -114z" />
    <glyph glyph-name="Ccaron" unicode="&#x10c;" horiz-adv-x="815" 
d="M367 938q-18 21 -46 21h-15q-23 0 -29.5 -13.5t8.5 -32.5l75 -93q18 -21 46 -21h2q28 0 45 21l75 93q16 19 9.5 32.5t-30.5 13.5h-14q-29 0 -47 -21l-39 -47zM425 -19q155 0 266 105q35 32 -3 64l-77 65q-29 24 -64 -2q-53 -42 -122 -42q-83 0 -141 58q-59 59 -59 141
t59 141t141 59q72 0 126 -45q33 -28 63 -3l79 62q39 30 6 63q-114 112 -274 112q-161 0 -275 -114t-114 -275t114 -275t275 -114z" />
    <glyph glyph-name="ccaron" unicode="&#x10d;" horiz-adv-x="815" 
d="M367 938q-18 21 -46 21h-15q-23 0 -29.5 -13.5t8.5 -32.5l75 -93q18 -21 46 -21h2q28 0 45 21l75 93q16 19 9.5 32.5t-30.5 13.5h-14q-29 0 -47 -21l-39 -47zM425 -19q155 0 266 105q35 32 -3 64l-77 65q-29 24 -64 -2q-53 -42 -122 -42q-83 0 -141 58q-59 59 -59 141
t59 141t141 59q72 0 126 -45q33 -28 63 -3l79 62q39 30 6 63q-114 112 -274 112q-161 0 -275 -114t-114 -275t114 -275t275 -114z" />
    <glyph glyph-name="Dcaron" unicode="&#x10e;" horiz-adv-x="789" 
d="M258 938q-18 21 -46 21h-15q-23 0 -29.5 -13.5t8.5 -32.5l75 -93q18 -21 46 -21h2q29 0 45 21l75 93q16 19 9.5 32.5t-30.5 13.5h-14q-29 0 -47 -21l-39 -47zM320 0q146 0 251 110q106 109 106 260q0 146 -102 257q-105 113 -254 113h-236q-45 0 -45 -45v-650
q0 -45 45 -45h235zM229 189v362h92q66 0 117 -54q49 -54 49 -127q0 -74 -50 -126q-52 -55 -117 -55h-91z" />
    <glyph glyph-name="dcaron" unicode="&#x10f;" horiz-adv-x="789" 
d="M258 938q-18 21 -46 21h-15q-23 0 -29.5 -13.5t8.5 -32.5l75 -93q18 -21 46 -21h2q29 0 45 21l75 93q16 19 9.5 32.5t-30.5 13.5h-14q-29 0 -47 -21l-39 -47zM320 0q146 0 251 110q106 109 106 260q0 146 -102 257q-105 113 -254 113h-236q-45 0 -45 -45v-650
q0 -45 45 -45h235zM229 189v362h92q66 0 117 -54q49 -54 49 -127q0 -74 -50 -126q-52 -55 -117 -55h-91z" />
    <glyph glyph-name="Dcroat" unicode="&#x110;" horiz-adv-x="789" 
d="M575 627q102 -111 102 -257q0 -151 -106 -260q-105 -110 -251 -110h-235q-45 0 -45 45v287h-53q-45 0 -45 45t45 45h53v273q0 45 45 45h236q149 0 254 -113zM437 244q50 52 50 126q0 73 -49 127q-51 54 -117 54h-92v-129h48q45 0 45 -45t-45 -45h-48v-143h91q65 0 117 55
z" />
    <glyph glyph-name="dcroat" unicode="&#x111;" horiz-adv-x="789" 
d="M575 627q102 -111 102 -257q0 -151 -106 -260q-105 -110 -251 -110h-235q-45 0 -45 45v287h-53q-45 0 -45 45t45 45h53v273q0 45 45 45h236q149 0 254 -113zM437 244q50 52 50 126q0 73 -49 127q-51 54 -117 54h-92v-129h48q45 0 45 -45t-45 -45h-48v-143h91q65 0 117 55
z" />
    <glyph glyph-name="Emacron" unicode="&#x112;" horiz-adv-x="693" 
d="M152 897q-45 0 -45 -45t45 -45h290q45 0 45 45t-45 45h-290zM559 144q0 45 -45 45h-285v94h210q45 0 45 45v85q0 45 -45 45h-210v93h285q45 0 45 45v99q0 45 -45 45h-429q-45 0 -45 -45v-650q0 -45 45 -45h429q45 0 45 45v99z" />
    <glyph glyph-name="emacron" unicode="&#x113;" horiz-adv-x="693" 
d="M152 897q-45 0 -45 -45t45 -45h290q45 0 45 45t-45 45h-290zM559 144q0 45 -45 45h-285v94h210q45 0 45 45v85q0 45 -45 45h-210v93h285q45 0 45 45v99q0 45 -45 45h-429q-45 0 -45 -45v-650q0 -45 45 -45h429q45 0 45 45v99z" />
    <glyph glyph-name="Ebreve" unicode="&#x114;" horiz-adv-x="693" 
d="M289 883h-5q-29 1 -52 43q-8 14 -12 19.5t-12.5 10.5t-19.5 3q-28 -6 -21 -46q7 -51 47 -84q34 -30 76 -30q44 0 77 30q33 29 44 84q7 40 -21 46q-11 2 -20 -3.5t-12.5 -11t-12.5 -19.5q-8 -14 -13 -20.5t-17 -14t-26 -7.5zM559 144q0 45 -45 45h-285v94h210q45 0 45 45
v85q0 45 -45 45h-210v93h285q45 0 45 45v99q0 45 -45 45h-429q-45 0 -45 -45v-650q0 -45 45 -45h429q45 0 45 45v99z" />
    <glyph glyph-name="ebreve" unicode="&#x115;" horiz-adv-x="693" 
d="M289 883h-5q-29 1 -52 43q-8 14 -12 19.5t-12.5 10.5t-19.5 3q-28 -6 -21 -46q7 -51 47 -84q34 -30 76 -30q44 0 77 30q33 29 44 84q7 40 -21 46q-11 2 -20 -3.5t-12.5 -11t-12.5 -19.5q-8 -14 -13 -20.5t-17 -14t-26 -7.5zM559 144q0 45 -45 45h-285v94h210q45 0 45 45
v85q0 45 -45 45h-210v93h285q45 0 45 45v99q0 45 -45 45h-429q-45 0 -45 -45v-650q0 -45 45 -45h429q45 0 45 45v99z" />
    <glyph glyph-name="Edotaccent" unicode="&#x116;" horiz-adv-x="693" 
d="M291 802q27 0 46 19t19 46t-19 46t-46 19q-26 0 -45 -19t-19 -46t19 -46t45 -19zM559 144q0 45 -45 45h-285v94h210q45 0 45 45v85q0 45 -45 45h-210v93h285q45 0 45 45v99q0 45 -45 45h-429q-45 0 -45 -45v-650q0 -45 45 -45h429q45 0 45 45v99z" />
    <glyph glyph-name="edotaccent" unicode="&#x117;" horiz-adv-x="693" 
d="M291 802q27 0 46 19t19 46t-19 46t-46 19q-26 0 -45 -19t-19 -46t19 -46t45 -19zM559 144q0 45 -45 45h-285v94h210q45 0 45 45v85q0 45 -45 45h-210v93h285q45 0 45 45v99q0 45 -45 45h-429q-45 0 -45 -45v-650q0 -45 45 -45h429q45 0 45 45v99z" />
    <glyph glyph-name="Eogonek" unicode="&#x118;" horiz-adv-x="693" 
d="M514 551h-285v-93h210q45 0 45 -45v-85q0 -45 -45 -45h-210v-94h285q45 0 45 -45v-99q0 -45 -45 -45h-142q-1 0 -3 -1t-3 -1q-20 -6 -27.5 -21.5t0.5 -30.5q7 -16 25.5 -25.5t44.5 -4.5q37 8 52 13q17 6 31 -1.5t17 -23.5q2 -15 -7 -24.5t-36 -21.5q-22 -10 -47 -15
t-58 -1t-56 23q-38 32 -44 83q-3 27 4 52h-180q-45 0 -45 45v650q0 45 45 45h429q45 0 45 -45v-99q0 -45 -45 -45z" />
    <glyph glyph-name="eogonek" unicode="&#x119;" horiz-adv-x="693" 
d="M514 551h-285v-93h210q45 0 45 -45v-85q0 -45 -45 -45h-210v-94h285q45 0 45 -45v-99q0 -45 -45 -45h-142q-1 0 -3 -1t-3 -1q-20 -6 -27.5 -21.5t0.5 -30.5q7 -16 25.5 -25.5t44.5 -4.5q37 8 52 13q17 6 31 -1.5t17 -23.5q2 -15 -7 -24.5t-36 -21.5q-22 -10 -47 -15
t-58 -1t-56 23q-38 32 -44 83q-3 27 4 52h-180q-45 0 -45 45v650q0 45 45 45h429q45 0 45 -45v-99q0 -45 -45 -45z" />
    <glyph glyph-name="Ecaron" unicode="&#x11a;" horiz-adv-x="693" 
d="M244 938q-18 21 -46 21h-15q-23 0 -29.5 -13.5t8.5 -32.5l75 -93q18 -21 46 -21h2q29 0 45 21l75 93q16 19 9.5 32.5t-30.5 13.5h-14q-29 0 -47 -21l-39 -47zM559 144q0 45 -45 45h-285v94h210q45 0 45 45v85q0 45 -45 45h-210v93h285q45 0 45 45v99q0 45 -45 45h-429
q-45 0 -45 -45v-650q0 -45 45 -45h429q45 0 45 45v99z" />
    <glyph glyph-name="ecaron" unicode="&#x11b;" horiz-adv-x="693" 
d="M244 938q-18 21 -46 21h-15q-23 0 -29.5 -13.5t8.5 -32.5l75 -93q18 -21 46 -21h2q29 0 45 21l75 93q16 19 9.5 32.5t-30.5 13.5h-14q-29 0 -47 -21l-39 -47zM559 144q0 45 -45 45h-285v94h210q45 0 45 45v85q0 45 -45 45h-210v93h285q45 0 45 45v99q0 45 -45 45h-429
q-45 0 -45 -45v-650q0 -45 45 -45h429q45 0 45 45v99z" />
    <glyph glyph-name="Gcircumflex" unicode="&#x11c;" horiz-adv-x="883" 
d="M418 867l39 -47q18 -21 47 -21h14q24 0 30.5 13.5t-9.5 32.5l-75 93q-16 21 -45 21h-2q-28 0 -46 -21l-75 -93q-15 -19 -8.5 -32.5t29.5 -13.5h15q28 0 46 21zM428 -17q215 0 321 160q12 19 12 50v181q0 45 -45 45h-267q-45 0 -45 -45v-62q0 -45 45 -45h123v-48
q-19 -22 -45 -34q-42 -21 -99 -21q-81 0 -141 63q-58 61 -58 143q0 83 58 141t141 58q71 0 125 -45q33 -28 63 -3l79 62q36 30 5 64q-111 111 -272 111t-274 -113q-114 -114 -114 -275q0 -159 114 -273t274 -114z" />
    <glyph glyph-name="gcircumflex" unicode="&#x11d;" horiz-adv-x="883" 
d="M418 867l39 -47q18 -21 47 -21h14q24 0 30.5 13.5t-9.5 32.5l-75 93q-16 21 -45 21h-2q-28 0 -46 -21l-75 -93q-15 -19 -8.5 -32.5t29.5 -13.5h15q28 0 46 21zM428 -17q215 0 321 160q12 19 12 50v181q0 45 -45 45h-267q-45 0 -45 -45v-62q0 -45 45 -45h123v-48
q-19 -22 -45 -34q-42 -21 -99 -21q-81 0 -141 63q-58 61 -58 143q0 83 58 141t141 58q71 0 125 -45q33 -28 63 -3l79 62q36 30 5 64q-111 111 -272 111t-274 -113q-114 -114 -114 -275q0 -159 114 -273t274 -114z" />
    <glyph glyph-name="Gbreve" unicode="&#x11e;" horiz-adv-x="883" 
d="M418 883h-5q-29 1 -52 43q-8 14 -12 19.5t-12.5 10.5t-19.5 3q-28 -6 -21 -46q7 -51 47 -84q35 -30 76 -30q44 0 77 30q33 29 44 84q7 40 -21 46q-11 2 -20 -3.5t-12.5 -11t-12.5 -19.5q-8 -14 -13 -20.5t-17 -14t-26 -7.5zM428 -17q215 0 321 160q12 19 12 50v181
q0 45 -45 45h-267q-45 0 -45 -45v-62q0 -45 45 -45h123v-48q-19 -22 -45 -34q-42 -21 -99 -21q-81 0 -141 63q-58 61 -58 143q0 83 58 141t141 58q71 0 125 -45q33 -28 63 -3l79 62q36 30 5 64q-111 111 -272 111t-274 -113q-114 -114 -114 -275q0 -159 114 -273t274 -114z
" />
    <glyph glyph-name="gbreve" unicode="&#x11f;" horiz-adv-x="883" 
d="M418 883h-5q-29 1 -52 43q-8 14 -12 19.5t-12.5 10.5t-19.5 3q-28 -6 -21 -46q7 -51 47 -84q35 -30 76 -30q44 0 77 30q33 29 44 84q7 40 -21 46q-11 2 -20 -3.5t-12.5 -11t-12.5 -19.5q-8 -14 -13 -20.5t-17 -14t-26 -7.5zM428 -17q215 0 321 160q12 19 12 50v181
q0 45 -45 45h-267q-45 0 -45 -45v-62q0 -45 45 -45h123v-48q-19 -22 -45 -34q-42 -21 -99 -21q-81 0 -141 63q-58 61 -58 143q0 83 58 141t141 58q71 0 125 -45q33 -28 63 -3l79 62q36 30 5 64q-111 111 -272 111t-274 -113q-114 -114 -114 -275q0 -159 114 -273t274 -114z
" />
    <glyph glyph-name="Gdotaccent" unicode="&#x120;" horiz-adv-x="883" 
d="M419 802q27 0 46 19t19 46t-19 46t-46 19q-26 0 -45 -19t-19 -46t19 -46t45 -19zM428 -17q215 0 321 160q12 19 12 50v181q0 45 -45 45h-267q-45 0 -45 -45v-62q0 -45 45 -45h123v-48q-19 -22 -45 -34q-42 -21 -99 -21q-81 0 -141 63q-58 61 -58 143q0 83 58 141t141 58
q71 0 125 -45q33 -28 63 -3l79 62q36 30 5 64q-111 111 -272 111t-274 -113q-114 -114 -114 -275q0 -159 114 -273t274 -114z" />
    <glyph glyph-name="gdotaccent" unicode="&#x121;" horiz-adv-x="883" 
d="M419 802q27 0 46 19t19 46t-19 46t-46 19q-26 0 -45 -19t-19 -46t19 -46t45 -19zM428 -17q215 0 321 160q12 19 12 50v181q0 45 -45 45h-267q-45 0 -45 -45v-62q0 -45 45 -45h123v-48q-19 -22 -45 -34q-42 -21 -99 -21q-81 0 -141 63q-58 61 -58 143q0 83 58 141t141 58
q71 0 125 -45q33 -28 63 -3l79 62q36 30 5 64q-111 111 -272 111t-274 -113q-114 -114 -114 -275q0 -159 114 -273t274 -114z" />
    <glyph glyph-name="Gcommaaccent" unicode="&#x122;" horiz-adv-x="883" 
d="M428 -17q215 0 321 160q12 19 12 50v181q0 45 -45 45h-267q-45 0 -45 -45v-62q0 -45 45 -45h123v-48q-19 -22 -45 -34q-42 -21 -99 -21q-81 0 -141 63q-58 61 -58 143q0 83 58 141t141 58q71 0 125 -45q33 -28 63 -3l79 62q36 30 5 64q-111 111 -272 111t-274 -113
q-114 -114 -114 -275q0 -159 114 -273t274 -114zM376 -132q0 -47 13 -80q13 -38 34 -38t37 38q15 37 15 78t-24 58.5t-49 1.5t-26 -58z" />
    <glyph glyph-name="gcommaaccent" unicode="&#x123;" horiz-adv-x="883" 
d="M428 -17q215 0 321 160q12 19 12 50v181q0 45 -45 45h-267q-45 0 -45 -45v-62q0 -45 45 -45h123v-48q-19 -22 -45 -34q-42 -21 -99 -21q-81 0 -141 63q-58 61 -58 143q0 83 58 141t141 58q71 0 125 -45q33 -28 63 -3l79 62q36 30 5 64q-111 111 -272 111t-274 -113
q-114 -114 -114 -275q0 -159 114 -273t274 -114zM376 -132q0 -47 13 -80q13 -38 34 -38t37 38q15 37 15 78t-24 58.5t-49 1.5t-26 -58z" />
    <glyph glyph-name="Hcircumflex" unicode="&#x124;" horiz-adv-x="744" 
d="M327 867l39 -47q18 -21 47 -21h14q24 0 30.5 13.5t-9.5 32.5l-75 93q-17 21 -45 21h-2q-28 0 -46 -21l-75 -93q-15 -19 -8.5 -32.5t29.5 -13.5h15q28 0 46 21zM623 695q0 45 -45 45h-99q-45 0 -45 -45v-230h-205v230q0 45 -45 45h-99q-45 0 -45 -45v-650q0 -45 45 -45h99
q45 0 45 45v230h205v-230q0 -45 45 -45h99q45 0 45 45v650z" />
    <glyph glyph-name="hcircumflex" unicode="&#x125;" horiz-adv-x="744" 
d="M327 867l39 -47q18 -21 47 -21h14q24 0 30.5 13.5t-9.5 32.5l-75 93q-17 21 -45 21h-2q-28 0 -46 -21l-75 -93q-15 -19 -8.5 -32.5t29.5 -13.5h15q28 0 46 21zM623 695q0 45 -45 45h-99q-45 0 -45 -45v-230h-205v230q0 45 -45 45h-99q-45 0 -45 -45v-650q0 -45 45 -45h99
q45 0 45 45v230h205v-230q0 -45 45 -45h99q45 0 45 45v650z" />
    <glyph glyph-name="Hbar" unicode="&#x126;" horiz-adv-x="744" 
d="M578 740q45 0 45 -45v-650q0 -45 -45 -45h-99q-45 0 -45 45v230h-205v-230q0 -45 -45 -45h-99q-45 0 -45 45v650q0 45 45 45h99q45 0 45 -45v-51h205v51q0 45 45 45h99zM229 465h205v89h-205v-89z" />
    <glyph glyph-name="hbar" unicode="&#x127;" horiz-adv-x="744" 
d="M578 740q45 0 45 -45v-650q0 -45 -45 -45h-99q-45 0 -45 45v230h-205v-230q0 -45 -45 -45h-99q-45 0 -45 45v650q0 45 45 45h99q45 0 45 -45v-51h205v51q0 45 45 45h99zM229 465h205v89h-205v-89z" />
    <glyph glyph-name="Itilde" unicode="&#x128;" horiz-adv-x="348" 
d="M113 832q61 -44 123 -36q62 6 96 73q16 36 -8 50q-20 11 -52 -19q-35 -33 -66 -26q-29 10 -49 24q-63 44 -123 36q-66 -8 -96 -72q-18 -37 7 -51q10 -2 14 -4t13 4t12.5 9t12.5 11q36 32 66 25q24 -6 50 -24zM85 740q-45 0 -45 -45v-650q0 -45 45 -45h99q45 0 45 45v650
q0 45 -45 45h-99z" />
    <glyph glyph-name="itilde" unicode="&#x129;" horiz-adv-x="348" 
d="M113 832q61 -44 123 -36q62 6 96 73q16 36 -8 50q-20 11 -52 -19q-35 -33 -66 -26q-29 10 -49 24q-63 44 -123 36q-66 -8 -96 -72q-18 -37 7 -51q10 -2 14 -4t13 4t12.5 9t12.5 11q36 32 66 25q24 -6 50 -24zM85 740q-45 0 -45 -45v-650q0 -45 45 -45h99q45 0 45 45v650
q0 45 -45 45h-99z" />
    <glyph glyph-name="Imacron" unicode="&#x12a;" horiz-adv-x="348" 
d="M-12 897q-45 0 -45 -45t45 -45h290q45 0 45 45t-45 45h-290zM85 740q-45 0 -45 -45v-650q0 -45 45 -45h99q45 0 45 45v650q0 45 -45 45h-99z" />
    <glyph glyph-name="imacron" unicode="&#x12b;" horiz-adv-x="348" 
d="M-12 897q-45 0 -45 -45t45 -45h290q45 0 45 45t-45 45h-290zM85 740q-45 0 -45 -45v-650q0 -45 45 -45h99q45 0 45 45v650q0 45 -45 45h-99z" />
    <glyph glyph-name="Ibreve" unicode="&#x12c;" horiz-adv-x="348" 
d="M130 883h-5q-29 1 -52 43q-8 14 -12 19.5t-12.5 10.5t-19.5 3q-28 -6 -21 -46q7 -51 47 -84q35 -30 76 -30q44 0 77 30q33 29 44 84q7 40 -21 46q-11 2 -20 -3.5t-12.5 -11t-12.5 -19.5q-8 -14 -13 -20.5t-17 -14t-26 -7.5zM85 740q-45 0 -45 -45v-650q0 -45 45 -45h99
q45 0 45 45v650q0 45 -45 45h-99z" />
    <glyph glyph-name="ibreve" unicode="&#x12d;" horiz-adv-x="348" 
d="M130 883h-5q-29 1 -52 43q-8 14 -12 19.5t-12.5 10.5t-19.5 3q-28 -6 -21 -46q7 -51 47 -84q35 -30 76 -30q44 0 77 30q33 29 44 84q7 40 -21 46q-11 2 -20 -3.5t-12.5 -11t-12.5 -19.5q-8 -14 -13 -20.5t-17 -14t-26 -7.5zM85 740q-45 0 -45 -45v-650q0 -45 45 -45h99
q45 0 45 45v650q0 45 -45 45h-99z" />
    <glyph glyph-name="Iogonek" unicode="&#x12e;" horiz-adv-x="348" 
d="M300 -96q2 -15 -7 -24.5t-36 -21.5q-22 -10 -47 -15t-58 -1t-56 23q-38 32 -44 83q-4 32 7 58q-19 10 -19 39v650q0 45 45 45h99q45 0 45 -45v-650q0 -45 -45 -45h-21q-1 0 -3 -1t-3 -1q-20 -6 -27.5 -21.5t0.5 -30.5q7 -16 25.5 -25.5t44.5 -4.5q37 8 52 13
q17 6 31 -1.5t17 -23.5z" />
    <glyph glyph-name="iogonek" unicode="&#x12f;" horiz-adv-x="348" 
d="M300 -96q2 -15 -7 -24.5t-36 -21.5q-22 -10 -47 -15t-58 -1t-56 23q-38 32 -44 83q-4 32 7 58q-19 10 -19 39v650q0 45 45 45h99q45 0 45 -45v-650q0 -45 -45 -45h-21q-1 0 -3 -1t-3 -1q-20 -6 -27.5 -21.5t0.5 -30.5q7 -16 25.5 -25.5t44.5 -4.5q37 8 52 13
q17 6 31 -1.5t17 -23.5z" />
    <glyph glyph-name="Idotaccent" unicode="&#x130;" horiz-adv-x="348" 
d="M128 802q27 0 46 19t19 46t-19 46t-46 19q-26 0 -45 -19t-19 -46t19 -46t45 -19zM85 740q-45 0 -45 -45v-650q0 -45 45 -45h99q45 0 45 45v650q0 45 -45 45h-99z" />
    <glyph glyph-name="dotlessi" unicode="&#x131;" horiz-adv-x="348" 
d="M85 740q-45 0 -45 -45v-650q0 -45 45 -45h99q45 0 45 45v650q0 45 -45 45h-99z" />
    <glyph glyph-name="Jcircumflex" unicode="&#x134;" horiz-adv-x="714" 
d="M492 867l39 -47q18 -21 47 -21h14q24 0 30.5 13.5t-9.5 32.5l-75 93q-16 21 -45 21h-2q-28 0 -46 -21l-75 -93q-15 -19 -8.5 -32.5t29.5 -13.5h15q28 0 46 21zM77 197q-40 -25 -18 -61q31 -52 60 -81q74 -74 188 -74q150 0 226 100q60 79 60 194v419q0 45 -45 45h-100
q-45 0 -45 -45v-396q0 -77 -30 -104q-22 -21 -66 -21t-82 58q-26 38 -61 16z" />
    <glyph glyph-name="jcircumflex" unicode="&#x135;" horiz-adv-x="714" 
d="M492 867l39 -47q18 -21 47 -21h14q24 0 30.5 13.5t-9.5 32.5l-75 93q-16 21 -45 21h-2q-28 0 -46 -21l-75 -93q-15 -19 -8.5 -32.5t29.5 -13.5h15q28 0 46 21zM77 197q-40 -25 -18 -61q31 -52 60 -81q74 -74 188 -74q150 0 226 100q60 79 60 194v419q0 45 -45 45h-100
q-45 0 -45 -45v-396q0 -77 -30 -104q-22 -21 -66 -21t-82 58q-26 38 -61 16z" />
    <glyph glyph-name="Kcommaaccent" unicode="&#x136;" horiz-adv-x="731" 
d="M329 377l264 307q19 22 11 38.5t-37 16.5h-109q-34 0 -55 -25l-174 -201v182q0 45 -45 45h-99q-45 0 -45 -45v-650q0 -45 45 -45h99q45 0 45 45v182l170 -201q23 -26 55 -26h128q29 0 37 16.5t-12 38.5zM251 -87q0 -47 13 -80q13 -38 34 -38t37 38q15 37 15 78t-24 58.5
t-49 1.5t-26 -58z" />
    <glyph glyph-name="kcommaaccent" unicode="&#x137;" horiz-adv-x="731" 
d="M329 377l264 307q19 22 11 38.5t-37 16.5h-109q-34 0 -55 -25l-174 -201v182q0 45 -45 45h-99q-45 0 -45 -45v-650q0 -45 45 -45h99q45 0 45 45v182l170 -201q23 -26 55 -26h128q29 0 37 16.5t-12 38.5zM251 -87q0 -47 13 -80q13 -38 34 -38t37 38q15 37 15 78t-24 58.5
t-49 1.5t-26 -58z" />
    <glyph glyph-name="Lacute" unicode="&#x139;" horiz-adv-x="646" 
d="M205 935q-27 -19 -45 -34q-46 -39 -58 -70q-7 -15 -1 -24t23 -9q18 0 39 7q45 14 96 47q26 17 33 40t-4.5 37.5t-32 19.5t-50.5 -14zM229 189v506q0 45 -45 45h-99q-45 0 -45 -45v-650q0 -45 45 -45h409q45 0 45 45v99q0 45 -45 45h-265z" />
    <glyph glyph-name="lacute" unicode="&#x13a;" horiz-adv-x="646" 
d="M205 935q-27 -19 -45 -34q-46 -39 -58 -70q-7 -15 -1 -24t23 -9q18 0 39 7q45 14 96 47q26 17 33 40t-4.5 37.5t-32 19.5t-50.5 -14zM229 189v506q0 45 -45 45h-99q-45 0 -45 -45v-650q0 -45 45 -45h409q45 0 45 45v99q0 45 -45 45h-265z" />
    <glyph glyph-name="Lcommaaccent" unicode="&#x13b;" horiz-adv-x="646" 
d="M229 189v506q0 45 -45 45h-99q-45 0 -45 -45v-650q0 -45 45 -45h409q45 0 45 45v99q0 45 -45 45h-265zM229 -107q0 -47 13 -80q13 -38 34 -38t37 38q15 37 15 78t-24 58.5t-49 1.5t-26 -58z" />
    <glyph glyph-name="lcommaaccent" unicode="&#x13c;" horiz-adv-x="646" 
d="M229 189v506q0 45 -45 45h-99q-45 0 -45 -45v-650q0 -45 45 -45h409q45 0 45 45v99q0 45 -45 45h-265zM229 -107q0 -47 13 -80q13 -38 34 -38t37 38q15 37 15 78t-24 58.5t-49 1.5t-26 -58z" />
    <glyph glyph-name="Lcaron" unicode="&#x13d;" horiz-adv-x="646" 
d="M354 742q-26 0 -46 -18q-19 -19 -19 -46q0 -18 13 -34q13 -17 35 -21l-22 -25q-18 -18 -9 -27q0 -1 2 -3q6 -6 11 -8.5t8.5 -3t7.5 1.5t6.5 4t6.5 7t7 7q14 14 20 21q2 2 7.5 9t8.5 10q7 7 9 13q18 23 18 49q0 27 -19 46q-20 18 -45 18zM229 189v506q0 45 -45 45h-99
q-45 0 -45 -45v-650q0 -45 45 -45h409q45 0 45 45v99q0 45 -45 45h-265z" />
    <glyph glyph-name="lcaron" unicode="&#x13e;" horiz-adv-x="646" 
d="M354 742q-26 0 -46 -18q-19 -19 -19 -46q0 -18 13 -34q13 -17 35 -21l-22 -25q-18 -18 -9 -27q0 -1 2 -3q6 -6 11 -8.5t8.5 -3t7.5 1.5t6.5 4t6.5 7t7 7q14 14 20 21q2 2 7.5 9t8.5 10q7 7 9 13q18 23 18 49q0 27 -19 46q-20 18 -45 18zM229 189v506q0 45 -45 45h-99
q-45 0 -45 -45v-650q0 -45 45 -45h409q45 0 45 45v99q0 45 -45 45h-265z" />
    <glyph glyph-name="Ldot" unicode="&#x13f;" horiz-adv-x="646" 
d="M229 189v506q0 45 -45 45h-99q-45 0 -45 -45v-650q0 -45 45 -45h409q45 0 45 45v99q0 45 -45 45h-265zM385 411q27 0 46 19t19 46t-19 46t-46 19q-26 0 -45 -19t-19 -46t19 -46t45 -19z" />
    <glyph glyph-name="ldot" unicode="&#x140;" horiz-adv-x="646" 
d="M229 189v506q0 45 -45 45h-99q-45 0 -45 -45v-650q0 -45 45 -45h409q45 0 45 45v99q0 45 -45 45h-265zM385 411q27 0 46 19t19 46t-19 46t-46 19q-26 0 -45 -19t-19 -46t19 -46t45 -19z" />
    <glyph glyph-name="Lslash" unicode="&#x141;" horiz-adv-x="646" 
d="M494 189q45 0 45 -45v-99q0 -45 -45 -45h-409q-45 0 -45 45v134q-27 -17 -53 9l-7 7q-32 32 0 64l60 60v376q0 45 45 45h99q45 0 45 -45v-187q32 30 62 -2l7 -7q33 -31 0 -63l-69 -69v-178h265z" />
    <glyph glyph-name="lslash" unicode="&#x142;" horiz-adv-x="646" 
d="M494 189q45 0 45 -45v-99q0 -45 -45 -45h-409q-45 0 -45 45v134q-27 -17 -53 9l-7 7q-32 32 0 64l60 60v376q0 45 45 45h99q45 0 45 -45v-187q32 30 62 -2l7 -7q33 -31 0 -63l-69 -69v-178h265z" />
    <glyph glyph-name="Nacute" unicode="&#x143;" horiz-adv-x="777" 
d="M398 935q-27 -19 -45 -34q-46 -39 -58 -70q-7 -15 -1 -24t23 -9q18 0 39 7q45 14 96 47q26 17 33 40t-4.5 37.5t-32 19.5t-50.5 -14zM184 0q45 0 45 45v322l231 -338q20 -29 55 -29h86q45 0 45 45v650q0 45 -45 45h-99q-45 0 -45 -45v-319l-231 335q-20 29 -55 29h-86
q-45 0 -45 -45v-650q0 -45 45 -45h99z" />
    <glyph glyph-name="nacute" unicode="&#x144;" horiz-adv-x="777" 
d="M398 935q-27 -19 -45 -34q-46 -39 -58 -70q-7 -15 -1 -24t23 -9q18 0 39 7q45 14 96 47q26 17 33 40t-4.5 37.5t-32 19.5t-50.5 -14zM184 0q45 0 45 45v322l231 -338q20 -29 55 -29h86q45 0 45 45v650q0 45 -45 45h-99q-45 0 -45 -45v-319l-231 335q-20 29 -55 29h-86
q-45 0 -45 -45v-650q0 -45 45 -45h99z" />
    <glyph glyph-name="Ncommaaccent" unicode="&#x145;" horiz-adv-x="777" 
d="M184 0q45 0 45 45v322l231 -338q20 -29 55 -29h86q45 0 45 45v650q0 45 -45 45h-99q-45 0 -45 -45v-319l-231 335q-20 29 -55 29h-86q-45 0 -45 -45v-650q0 -45 45 -45h99zM297 -107q0 -47 13 -80q13 -38 34 -38t37 38q15 37 15 78t-24 58.5t-49 1.5t-26 -58z" />
    <glyph glyph-name="ncommaaccent" unicode="&#x146;" horiz-adv-x="777" 
d="M184 0q45 0 45 45v322l231 -338q20 -29 55 -29h86q45 0 45 45v650q0 45 -45 45h-99q-45 0 -45 -45v-319l-231 335q-20 29 -55 29h-86q-45 0 -45 -45v-650q0 -45 45 -45h99zM297 -107q0 -47 13 -80q13 -38 34 -38t37 38q15 37 15 78t-24 58.5t-49 1.5t-26 -58z" />
    <glyph glyph-name="Ncaron" unicode="&#x147;" horiz-adv-x="777" 
d="M307 938q-18 21 -46 21h-15q-23 0 -29.5 -13.5t8.5 -32.5l75 -93q18 -21 46 -21h2q28 0 45 21l75 93q16 19 9.5 32.5t-30.5 13.5h-14q-29 0 -47 -21l-39 -47zM184 0q45 0 45 45v322l231 -338q20 -29 55 -29h86q45 0 45 45v650q0 45 -45 45h-99q-45 0 -45 -45v-319
l-231 335q-20 29 -55 29h-86q-45 0 -45 -45v-650q0 -45 45 -45h99z" />
    <glyph glyph-name="ncaron" unicode="&#x148;" horiz-adv-x="777" 
d="M307 938q-18 21 -46 21h-15q-23 0 -29.5 -13.5t8.5 -32.5l75 -93q18 -21 46 -21h2q28 0 45 21l75 93q16 19 9.5 32.5t-30.5 13.5h-14q-29 0 -47 -21l-39 -47zM184 0q45 0 45 45v322l231 -338q20 -29 55 -29h86q45 0 45 45v650q0 45 -45 45h-99q-45 0 -45 -45v-319
l-231 335q-20 29 -55 29h-86q-45 0 -45 -45v-650q0 -45 45 -45h99z" />
    <glyph glyph-name="napostrophe" unicode="&#x149;" horiz-adv-x="901" 
d="M42 729q0 -47 13 -80q13 -38 34 -38t37 38q15 37 15 78t-24 58.5t-49 1.5t-26 -58zM310 0q45 0 45 45v322l231 -338q20 -29 55 -29h86q45 0 45 45v650q0 45 -45 45h-99q-45 0 -45 -45v-319l-231 335q-20 29 -55 29h-86q-45 0 -45 -45v-650q0 -45 45 -45h99z" />
    <glyph glyph-name="Eng" unicode="&#x14a;" horiz-adv-x="777" 
d="M601 740q45 0 45 -45v-650q0 -96 -43 -161q-54 -83 -160 -83q-82 0 -134 61q-24 30 -40 63q-18 36 15 58l43 29q38 26 62 -12q21 -34 42 -47t36 0q11 16 4 42.5t-21 48.5l-3 4l-218 319v-322q0 -45 -45 -45h-99q-45 0 -45 45v650q0 45 45 45h86q35 0 55 -29l231 -335v319
q0 45 45 45h99z" />
    <glyph glyph-name="eng" unicode="&#x14b;" horiz-adv-x="777" 
d="M601 740q45 0 45 -45v-650q0 -96 -43 -161q-54 -83 -160 -83q-82 0 -134 61q-24 30 -40 63q-18 36 15 58l43 29q38 26 62 -12q21 -34 42 -47t36 0q11 16 4 42.5t-21 48.5l-3 4l-218 319v-322q0 -45 -45 -45h-99q-45 0 -45 45v650q0 45 45 45h86q35 0 55 -29l231 -335v319
q0 45 45 45h99z" />
    <glyph glyph-name="Omacron" unicode="&#x14c;" horiz-adv-x="913" 
d="M275 897q-45 0 -45 -45t45 -45h290q45 0 45 45t-45 45h-290zM429 -18q159 0 275 114q114 112 114 274q0 161 -114 275t-275 114t-275 -114t-114 -275q0 -162 114 -274q116 -114 275 -114zM429 570q82 0 141 -59q58 -58 58 -141t-58 -141t-141 -58t-141 58q-59 59 -59 141
t59 141t141 59z" />
    <glyph glyph-name="omacron" unicode="&#x14d;" horiz-adv-x="913" 
d="M275 897q-45 0 -45 -45t45 -45h290q45 0 45 45t-45 45h-290zM429 -18q159 0 275 114q114 112 114 274q0 161 -114 275t-275 114t-275 -114t-114 -275q0 -162 114 -274q116 -114 275 -114zM429 570q82 0 141 -59q58 -58 58 -141t-58 -141t-141 -58t-141 58q-59 59 -59 141
t59 141t141 59z" />
    <glyph glyph-name="Obreve" unicode="&#x14e;" horiz-adv-x="913" 
d="M421 883h-5q-29 1 -52 43q-8 14 -12 19.5t-12.5 10.5t-19.5 3q-28 -6 -21 -46q7 -51 47 -84q34 -30 76 -30q44 0 77 30q33 29 44 84q7 40 -21 46q-11 2 -20 -3.5t-12.5 -11t-12.5 -19.5q-8 -14 -13 -20.5t-17 -14t-26 -7.5zM429 -18q159 0 275 114q114 112 114 274
q0 161 -114 275t-275 114t-275 -114t-114 -275q0 -162 114 -274q116 -114 275 -114zM429 570q82 0 141 -59q58 -58 58 -141t-58 -141t-141 -58t-141 58q-59 59 -59 141t59 141t141 59z" />
    <glyph glyph-name="obreve" unicode="&#x14f;" horiz-adv-x="913" 
d="M421 883h-5q-29 1 -52 43q-8 14 -12 19.5t-12.5 10.5t-19.5 3q-28 -6 -21 -46q7 -51 47 -84q34 -30 76 -30q44 0 77 30q33 29 44 84q7 40 -21 46q-11 2 -20 -3.5t-12.5 -11t-12.5 -19.5q-8 -14 -13 -20.5t-17 -14t-26 -7.5zM429 -18q159 0 275 114q114 112 114 274
q0 161 -114 275t-275 114t-275 -114t-114 -275q0 -162 114 -274q116 -114 275 -114zM429 570q82 0 141 -59q58 -58 58 -141t-58 -141t-141 -58t-141 58q-59 59 -59 141t59 141t141 59z" />
    <glyph glyph-name="Ohungarumlaut" unicode="&#x150;" horiz-adv-x="913" 
d="M367 932q-37 -33 -60 -70q-24 -41 -13 -54q11 -15 52 4q35 17 74 51q26 23 23.5 50.5t-25 33.5t-51.5 -15zM517 932q-37 -33 -60 -70q-24 -41 -13 -54q11 -15 52 4q35 17 74 51q26 23 23.5 50.5t-25 33.5t-51.5 -15zM429 -18q159 0 275 114q114 112 114 274
q0 161 -114 275t-275 114t-275 -114t-114 -275q0 -162 114 -274q116 -114 275 -114zM429 570q82 0 141 -59q58 -58 58 -141t-58 -141t-141 -58t-141 58q-59 59 -59 141t59 141t141 59z" />
    <glyph glyph-name="ohungarumlaut" unicode="&#x151;" horiz-adv-x="913" 
d="M367 932q-37 -33 -60 -70q-24 -41 -13 -54q11 -15 52 4q35 17 74 51q26 23 23.5 50.5t-25 33.5t-51.5 -15zM517 932q-37 -33 -60 -70q-24 -41 -13 -54q11 -15 52 4q35 17 74 51q26 23 23.5 50.5t-25 33.5t-51.5 -15zM429 -18q159 0 275 114q114 112 114 274
q0 161 -114 275t-275 114t-275 -114t-114 -275q0 -162 114 -274q116 -114 275 -114zM429 570q82 0 141 -59q58 -58 58 -141t-58 -141t-141 -58t-141 58q-59 59 -59 141t59 141t141 59z" />
    <glyph glyph-name="OE" unicode="&#x152;" horiz-adv-x="1210" 
d="M1102 551h-285v-93h210q45 0 45 -45v-85q0 -45 -45 -45h-210v-94h285q45 0 45 -45v-99q0 -45 -45 -45h-429q-41 0 -45 37q-91 -55 -199 -55q-159 0 -275 114q-114 112 -114 274q0 161 114 275t275 114q107 0 200 -55q3 36 44 36h429q45 0 45 -45v-99q0 -45 -45 -45z
M429 171q83 0 141 58t58 141t-58 141q-59 59 -141 59t-141 -59t-59 -141t59 -141q58 -58 141 -58z" />
    <glyph glyph-name="oe" unicode="&#x153;" horiz-adv-x="1210" 
d="M1102 551h-285v-93h210q45 0 45 -45v-85q0 -45 -45 -45h-210v-94h285q45 0 45 -45v-99q0 -45 -45 -45h-429q-41 0 -45 37q-91 -55 -199 -55q-159 0 -275 114q-114 112 -114 274q0 161 114 275t275 114q107 0 200 -55q3 36 44 36h429q45 0 45 -45v-99q0 -45 -45 -45z
M429 171q83 0 141 58t58 141t-58 141q-59 59 -141 59t-141 -59t-59 -141t59 -141q58 -58 141 -58z" />
    <glyph glyph-name="Racute" unicode="&#x154;" horiz-adv-x="715" 
d="M367 935q-27 -19 -45 -34q-46 -39 -58 -70q-7 -15 -1 -24t23 -9q18 0 39 7q45 14 96 47q26 17 33 40t-4.5 37.5t-32 19.5t-50.5 -14zM622 497q0 62 -24 117q-19 42 -49 70q-65 56 -160 56h-304q-45 0 -45 -45v-650q0 -45 45 -45h99q45 0 45 45v219h91l118 -229
q19 -35 52 -35h110q27 0 37.5 14t-2.5 38l-130 235l1 1q1 0 2.5 0.5t4 1.5t4.5 2q12 6 21 14q40 31 62 83t22 108zM439 497q0 -28 -20 -45.5t-47 -17.5h-143v124h150q29 0 44.5 -17t15.5 -44z" />
    <glyph glyph-name="racute" unicode="&#x155;" horiz-adv-x="715" 
d="M367 935q-27 -19 -45 -34q-46 -39 -58 -70q-7 -15 -1 -24t23 -9q18 0 39 7q45 14 96 47q26 17 33 40t-4.5 37.5t-32 19.5t-50.5 -14zM622 497q0 62 -24 117q-19 42 -49 70q-65 56 -160 56h-304q-45 0 -45 -45v-650q0 -45 45 -45h99q45 0 45 45v219h91l118 -229
q19 -35 52 -35h110q27 0 37.5 14t-2.5 38l-130 235l1 1q1 0 2.5 0.5t4 1.5t4.5 2q12 6 21 14q40 31 62 83t22 108zM439 497q0 -28 -20 -45.5t-47 -17.5h-143v124h150q29 0 44.5 -17t15.5 -44z" />
    <glyph glyph-name="Rcommaaccent" unicode="&#x156;" horiz-adv-x="715" 
d="M622 497q0 62 -24 117q-19 42 -49 70q-65 56 -160 56h-304q-45 0 -45 -45v-650q0 -45 45 -45h99q45 0 45 45v219h91l118 -229q19 -35 52 -35h110q27 0 37.5 14t-2.5 38l-130 235l1 1q1 0 2.5 0.5t4 1.5t4.5 2q12 6 21 14q40 31 62 83t22 108zM439 497q0 -28 -20 -45.5
t-47 -17.5h-143v124h150q29 0 44.5 -17t15.5 -44zM267 -83q0 -47 13 -80q13 -38 34 -38t37 38q15 37 15 78t-24 58.5t-49 1.5t-26 -58z" />
    <glyph glyph-name="rcommaaccent" unicode="&#x157;" horiz-adv-x="715" 
d="M622 497q0 62 -24 117q-19 42 -49 70q-65 56 -160 56h-304q-45 0 -45 -45v-650q0 -45 45 -45h99q45 0 45 45v219h91l118 -229q19 -35 52 -35h110q27 0 37.5 14t-2.5 38l-130 235l1 1q1 0 2.5 0.5t4 1.5t4.5 2q12 6 21 14q40 31 62 83t22 108zM439 497q0 -28 -20 -45.5
t-47 -17.5h-143v124h150q29 0 44.5 -17t15.5 -44zM267 -83q0 -47 13 -80q13 -38 34 -38t37 38q15 37 15 78t-24 58.5t-49 1.5t-26 -58z" />
    <glyph glyph-name="Rcaron" unicode="&#x158;" horiz-adv-x="715" 
d="M264 938q-18 21 -46 21h-15q-23 0 -29.5 -13.5t8.5 -32.5l75 -93q18 -21 46 -21h2q29 0 45 21l75 93q16 19 9.5 32.5t-30.5 13.5h-14q-29 0 -47 -21l-39 -47zM622 497q0 62 -24 117q-19 42 -49 70q-65 56 -160 56h-304q-45 0 -45 -45v-650q0 -45 45 -45h99q45 0 45 45
v219h91l118 -229q19 -35 52 -35h110q27 0 37.5 14t-2.5 38l-130 235l1 1q1 0 2.5 0.5t4 1.5t4.5 2q12 6 21 14q40 31 62 83t22 108zM439 497q0 -28 -20 -45.5t-47 -17.5h-143v124h150q29 0 44.5 -17t15.5 -44z" />
    <glyph glyph-name="rcaron" unicode="&#x159;" horiz-adv-x="715" 
d="M264 938q-18 21 -46 21h-15q-23 0 -29.5 -13.5t8.5 -32.5l75 -93q18 -21 46 -21h2q29 0 45 21l75 93q16 19 9.5 32.5t-30.5 13.5h-14q-29 0 -47 -21l-39 -47zM622 497q0 62 -24 117q-19 42 -49 70q-65 56 -160 56h-304q-45 0 -45 -45v-650q0 -45 45 -45h99q45 0 45 45
v219h91l118 -229q19 -35 52 -35h110q27 0 37.5 14t-2.5 38l-130 235l1 1q1 0 2.5 0.5t4 1.5t4.5 2q12 6 21 14q40 31 62 83t22 108zM439 497q0 -28 -20 -45.5t-47 -17.5h-143v124h150q29 0 44.5 -17t15.5 -44z" />
    <glyph glyph-name="Sacute" unicode="&#x15a;" horiz-adv-x="764" 
d="M415 935q-27 -19 -45 -34q-46 -39 -58 -70q-7 -15 -1 -24t23 -9q18 0 39 7q45 14 96 47q26 17 33 40t-4.5 37.5t-32 19.5t-50.5 -14zM472 178q-36 -25 -128 -14q-78 10 -149 52q-38 23 -63 -11l-67 -84q-31 -39 12 -63q122 -70 266 -77q7 -1 20 -1h18q137 0 214 61
q67 52 79 132q18 101 -38 174q-59 77 -277 120q-56 12 -77 25q-30 18 -19 45q7 18 27 29q30 17 77 17q71 0 143 -42q39 -22 62 13l54 75q28 37 -10 62q-48 31 -98 47q-75 22 -151 22q-107 0 -188 -47q-85 -49 -108 -125q-12 -35 -9 -83q3 -50 32 -95q57 -81 244 -121
q39 -7 67 -15q41 -12 65 -27q10 -8 12 -10q11 -11 9 -28q-2 -19 -19 -31z" />
    <glyph glyph-name="sacute" unicode="&#x15b;" horiz-adv-x="764" 
d="M415 935q-27 -19 -45 -34q-46 -39 -58 -70q-7 -15 -1 -24t23 -9q18 0 39 7q45 14 96 47q26 17 33 40t-4.5 37.5t-32 19.5t-50.5 -14zM472 178q-36 -25 -128 -14q-78 10 -149 52q-38 23 -63 -11l-67 -84q-31 -39 12 -63q122 -70 266 -77q7 -1 20 -1h18q137 0 214 61
q67 52 79 132q18 101 -38 174q-59 77 -277 120q-56 12 -77 25q-30 18 -19 45q7 18 27 29q30 17 77 17q71 0 143 -42q39 -22 62 13l54 75q28 37 -10 62q-48 31 -98 47q-75 22 -151 22q-107 0 -188 -47q-85 -49 -108 -125q-12 -35 -9 -83q3 -50 32 -95q57 -81 244 -121
q39 -7 67 -15q41 -12 65 -27q10 -8 12 -10q11 -11 9 -28q-2 -19 -19 -31z" />
    <glyph glyph-name="Scircumflex" unicode="&#x15c;" horiz-adv-x="764" 
d="M356 867l39 -47q18 -21 47 -21h14q24 0 30.5 13.5t-9.5 32.5l-75 93q-16 21 -45 21h-2q-28 0 -46 -21l-75 -93q-15 -19 -8.5 -32.5t29.5 -13.5h15q28 0 46 21zM472 178q-36 -25 -128 -14q-78 10 -149 52q-38 23 -63 -11l-67 -84q-31 -39 12 -63q122 -70 266 -77
q7 -1 20 -1h18q137 0 214 61q67 52 79 132q18 101 -38 174q-59 77 -277 120q-56 12 -77 25q-30 18 -19 45q7 18 27 29q30 17 77 17q71 0 143 -42q39 -22 62 13l54 75q28 37 -10 62q-48 31 -98 47q-75 22 -151 22q-107 0 -188 -47q-85 -49 -108 -125q-12 -35 -9 -83
q3 -50 32 -95q57 -81 244 -121q39 -7 67 -15q41 -12 65 -27q10 -8 12 -10q11 -11 9 -28q-2 -19 -19 -31z" />
    <glyph glyph-name="scircumflex" unicode="&#x15d;" horiz-adv-x="764" 
d="M356 867l39 -47q18 -21 47 -21h14q24 0 30.5 13.5t-9.5 32.5l-75 93q-16 21 -45 21h-2q-28 0 -46 -21l-75 -93q-15 -19 -8.5 -32.5t29.5 -13.5h15q28 0 46 21zM472 178q-36 -25 -128 -14q-78 10 -149 52q-38 23 -63 -11l-67 -84q-31 -39 12 -63q122 -70 266 -77
q7 -1 20 -1h18q137 0 214 61q67 52 79 132q18 101 -38 174q-59 77 -277 120q-56 12 -77 25q-30 18 -19 45q7 18 27 29q30 17 77 17q71 0 143 -42q39 -22 62 13l54 75q28 37 -10 62q-48 31 -98 47q-75 22 -151 22q-107 0 -188 -47q-85 -49 -108 -125q-12 -35 -9 -83
q3 -50 32 -95q57 -81 244 -121q39 -7 67 -15q41 -12 65 -27q10 -8 12 -10q11 -11 9 -28q-2 -19 -19 -31z" />
    <glyph glyph-name="Scedilla" unicode="&#x15e;" horiz-adv-x="764" 
d="M636 347q56 -73 38 -174q-12 -80 -79 -132q-69 -54 -185 -60v-1q-3 -25 4 -30q4 -3 15 -1q17 3 36 3q40 0 67 -30q12 -13 20 -42q25 -101 -94 -130q-71 -18 -105 -2q-11 5 -13.5 17t3.5 23q6 10 27 18q18 6 55 12q26 5 39 16.5t12 23.5t-13.5 18.5t-32.5 0.5
q-76 -20 -100 -3q-14 11 -14 49q0 27 3 60q-129 11 -242 75q-43 24 -12 63l67 84q25 34 63 11q71 -42 149 -52q92 -11 128 14q17 12 19 31q2 17 -9 28q-2 2 -12 10q-24 15 -65 27q-28 8 -67 15q-187 40 -244 121q-29 45 -32 95q-3 48 9 83q23 76 108 125q81 47 188 47
q76 0 151 -22q50 -16 98 -47q38 -25 10 -62l-54 -75q-23 -35 -62 -13q-72 42 -143 42q-47 0 -77 -17q-20 -11 -27 -29q-11 -27 19 -45q21 -13 77 -25q218 -43 277 -120z" />
    <glyph glyph-name="scedilla" unicode="&#x15f;" horiz-adv-x="764" 
d="M636 347q56 -73 38 -174q-12 -80 -79 -132q-69 -54 -185 -60v-1q-3 -25 4 -30q4 -3 15 -1q17 3 36 3q40 0 67 -30q12 -13 20 -42q25 -101 -94 -130q-71 -18 -105 -2q-11 5 -13.5 17t3.5 23q6 10 27 18q18 6 55 12q26 5 39 16.5t12 23.5t-13.5 18.5t-32.5 0.5
q-76 -20 -100 -3q-14 11 -14 49q0 27 3 60q-129 11 -242 75q-43 24 -12 63l67 84q25 34 63 11q71 -42 149 -52q92 -11 128 14q17 12 19 31q2 17 -9 28q-2 2 -12 10q-24 15 -65 27q-28 8 -67 15q-187 40 -244 121q-29 45 -32 95q-3 48 9 83q23 76 108 125q81 47 188 47
q76 0 151 -22q50 -16 98 -47q38 -25 10 -62l-54 -75q-23 -35 -62 -13q-72 42 -143 42q-47 0 -77 -17q-20 -11 -27 -29q-11 -27 19 -45q21 -13 77 -25q218 -43 277 -120z" />
    <glyph glyph-name="Scaron" unicode="&#x160;" horiz-adv-x="764" 
d="M323 938q-18 21 -46 21h-15q-23 0 -29.5 -13.5t8.5 -32.5l75 -93q18 -21 46 -21h2q28 0 45 21l75 93q16 19 9.5 32.5t-30.5 13.5h-14q-29 0 -47 -21l-39 -47zM472 178q-36 -25 -128 -14q-78 10 -149 52q-38 23 -63 -11l-67 -84q-31 -39 12 -63q122 -70 266 -77
q7 -1 20 -1h18q137 0 214 61q67 52 79 132q18 101 -38 174q-59 77 -277 120q-56 12 -77 25q-30 18 -19 45q7 18 27 29q30 17 77 17q71 0 143 -42q39 -22 62 13l54 75q28 37 -10 62q-48 31 -98 47q-75 22 -151 22q-107 0 -188 -47q-85 -49 -108 -125q-12 -35 -9 -83
q3 -50 32 -95q57 -81 244 -121q39 -7 67 -15q41 -12 65 -27q10 -8 12 -10q11 -11 9 -28q-2 -19 -19 -31z" />
    <glyph glyph-name="scaron" unicode="&#x161;" horiz-adv-x="764" 
d="M323 938q-18 21 -46 21h-15q-23 0 -29.5 -13.5t8.5 -32.5l75 -93q18 -21 46 -21h2q28 0 45 21l75 93q16 19 9.5 32.5t-30.5 13.5h-14q-29 0 -47 -21l-39 -47zM472 178q-36 -25 -128 -14q-78 10 -149 52q-38 23 -63 -11l-67 -84q-31 -39 12 -63q122 -70 266 -77
q7 -1 20 -1h18q137 0 214 61q67 52 79 132q18 101 -38 174q-59 77 -277 120q-56 12 -77 25q-30 18 -19 45q7 18 27 29q30 17 77 17q71 0 143 -42q39 -22 62 13l54 75q28 37 -10 62q-48 31 -98 47q-75 22 -151 22q-107 0 -188 -47q-85 -49 -108 -125q-12 -35 -9 -83
q3 -50 32 -95q57 -81 244 -121q39 -7 67 -15q41 -12 65 -27q10 -8 12 -10q11 -11 9 -28q-2 -19 -19 -31z" />
    <glyph glyph-name="uni0162" unicode="&#x162;" horiz-adv-x="706" 
d="M582 740q45 0 45 -45v-99q0 -45 -45 -45h-154v-506q0 -45 -45 -45h-5q0 -14 -1 -20q-3 -25 4 -30q4 -3 15 -1q16 3 36 3q40 0 67 -30q12 -13 20 -42q25 -101 -94 -130q-71 -18 -105 -2q-11 5 -13.5 17t3.5 23q6 10 27 18q18 6 55 12q26 5 39 16.5t12 23.5t-13.5 18.5
t-32.5 0.5q-76 -20 -100 -3q-14 11 -14 49q0 19 4 77h-3q-45 0 -45 45v506h-154q-45 0 -45 45v99q0 45 45 45h497z" />
    <glyph glyph-name="uni0163" unicode="&#x163;" horiz-adv-x="706" 
d="M582 740q45 0 45 -45v-99q0 -45 -45 -45h-154v-506q0 -45 -45 -45h-5q0 -14 -1 -20q-3 -25 4 -30q4 -3 15 -1q16 3 36 3q40 0 67 -30q12 -13 20 -42q25 -101 -94 -130q-71 -18 -105 -2q-11 5 -13.5 17t3.5 23q6 10 27 18q18 6 55 12q26 5 39 16.5t12 23.5t-13.5 18.5
t-32.5 0.5q-76 -20 -100 -3q-14 11 -14 49q0 19 4 77h-3q-45 0 -45 45v506h-154q-45 0 -45 45v99q0 45 45 45h497z" />
    <glyph glyph-name="Tcaron" unicode="&#x164;" horiz-adv-x="706" 
d="M290 938q-18 21 -46 21h-15q-23 0 -29.5 -13.5t8.5 -32.5l75 -93q18 -21 46 -21h2q29 0 45 21l75 93q16 19 9.5 32.5t-30.5 13.5h-14q-29 0 -47 -21l-39 -47zM383 0q45 0 45 45v506h154q45 0 45 45v99q0 45 -45 45h-497q-45 0 -45 -45v-99q0 -45 45 -45h154v-506
q0 -45 45 -45h99z" />
    <glyph glyph-name="tcaron" unicode="&#x165;" horiz-adv-x="706" 
d="M290 938q-18 21 -46 21h-15q-23 0 -29.5 -13.5t8.5 -32.5l75 -93q18 -21 46 -21h2q29 0 45 21l75 93q16 19 9.5 32.5t-30.5 13.5h-14q-29 0 -47 -21l-39 -47zM383 0q45 0 45 45v506h154q45 0 45 45v99q0 45 -45 45h-497q-45 0 -45 -45v-99q0 -45 45 -45h154v-506
q0 -45 45 -45h99z" />
    <glyph glyph-name="Tbar" unicode="&#x166;" horiz-adv-x="706" 
d="M582 740q45 0 45 -45v-99q0 -45 -45 -45h-154v-91h45q45 0 45 -45t-45 -45h-45v-325q0 -45 -45 -45h-99q-45 0 -45 45v325h-56q-45 0 -45 45t45 45h56v91h-154q-45 0 -45 45v99q0 45 45 45h497z" />
    <glyph glyph-name="tbar" unicode="&#x167;" horiz-adv-x="706" 
d="M582 740q45 0 45 -45v-99q0 -45 -45 -45h-154v-91h45q45 0 45 -45t-45 -45h-45v-325q0 -45 -45 -45h-99q-45 0 -45 45v325h-56q-45 0 -45 45t45 45h56v91h-154q-45 0 -45 45v99q0 45 45 45h497z" />
    <glyph glyph-name="Utilde" unicode="&#x168;" 
d="M362 832q61 -44 123 -36q62 6 96 73q16 36 -8 50q-20 11 -52 -19q-35 -33 -66 -26q-29 10 -49 24q-63 44 -123 36q-66 -8 -96 -72q-18 -37 7 -51q10 -2 14 -4t13 4t12.5 9t12.5 11q36 32 66 25q24 -6 50 -24zM726 695q0 45 -45 45h-100q-45 0 -45 -45v-348
q0 -78 -45 -129q-44 -52 -108 -52q-65 0 -109 52q-45 51 -45 129v348q0 45 -45 45h-99q-45 0 -45 -45v-348q5 -153 98 -257q97 -108 245 -108q149 0 249 113q92 107 94 252v348z" />
    <glyph glyph-name="utilde" unicode="&#x169;" 
d="M362 832q61 -44 123 -36q62 6 96 73q16 36 -8 50q-20 11 -52 -19q-35 -33 -66 -26q-29 10 -49 24q-63 44 -123 36q-66 -8 -96 -72q-18 -37 7 -51q10 -2 14 -4t13 4t12.5 9t12.5 11q36 32 66 25q24 -6 50 -24zM726 695q0 45 -45 45h-100q-45 0 -45 -45v-348
q0 -78 -45 -129q-44 -52 -108 -52q-65 0 -109 52q-45 51 -45 129v348q0 45 -45 45h-99q-45 0 -45 -45v-348q5 -153 98 -257q97 -108 245 -108q149 0 249 113q92 107 94 252v348z" />
    <glyph glyph-name="Umacron" unicode="&#x16a;" 
d="M237 897q-45 0 -45 -45t45 -45h290q45 0 45 45t-45 45h-290zM726 695q0 45 -45 45h-100q-45 0 -45 -45v-348q0 -78 -45 -129q-44 -52 -108 -52q-65 0 -109 52q-45 51 -45 129v348q0 45 -45 45h-99q-45 0 -45 -45v-348q5 -153 98 -257q97 -108 245 -108q149 0 249 113
q92 107 94 252v348z" />
    <glyph glyph-name="umacron" unicode="&#x16b;" 
d="M237 897q-45 0 -45 -45t45 -45h290q45 0 45 45t-45 45h-290zM726 695q0 45 -45 45h-100q-45 0 -45 -45v-348q0 -78 -45 -129q-44 -52 -108 -52q-65 0 -109 52q-45 51 -45 129v348q0 45 -45 45h-99q-45 0 -45 -45v-348q5 -153 98 -257q97 -108 245 -108q149 0 249 113
q92 107 94 252v348z" />
    <glyph glyph-name="Ubreve" unicode="&#x16c;" 
d="M378 883h-5q-29 1 -52 43q-8 14 -12 19.5t-12.5 10.5t-19.5 3q-28 -6 -21 -46q7 -51 47 -84q35 -30 76 -30q44 0 77 30q33 29 44 84q7 40 -21 46q-11 2 -20 -3.5t-12.5 -11t-12.5 -19.5q-8 -14 -13 -20.5t-17 -14t-26 -7.5zM726 695q0 45 -45 45h-100q-45 0 -45 -45v-348
q0 -78 -45 -129q-44 -52 -108 -52q-65 0 -109 52q-45 51 -45 129v348q0 45 -45 45h-99q-45 0 -45 -45v-348q5 -153 98 -257q97 -108 245 -108q149 0 249 113q92 107 94 252v348z" />
    <glyph glyph-name="ubreve" unicode="&#x16d;" 
d="M378 883h-5q-29 1 -52 43q-8 14 -12 19.5t-12.5 10.5t-19.5 3q-28 -6 -21 -46q7 -51 47 -84q35 -30 76 -30q44 0 77 30q33 29 44 84q7 40 -21 46q-11 2 -20 -3.5t-12.5 -11t-12.5 -19.5q-8 -14 -13 -20.5t-17 -14t-26 -7.5zM726 695q0 45 -45 45h-100q-45 0 -45 -45v-348
q0 -78 -45 -129q-44 -52 -108 -52q-65 0 -109 52q-45 51 -45 129v348q0 45 -45 45h-99q-45 0 -45 -45v-348q5 -153 98 -257q97 -108 245 -108q149 0 249 113q92 107 94 252v348z" />
    <glyph glyph-name="Uring" unicode="&#x16e;" 
d="M384 796q33 0 55.5 22t22.5 53q0 33 -22.5 55.5t-55.5 22.5q-32 0 -54.5 -22.5t-22.5 -55.5q0 -31 22.5 -53t54.5 -22zM384 902q13 0 22 -9t9 -22q0 -12 -9 -21t-22 -9q-12 0 -21.5 9t-9.5 21q0 13 9.5 22t21.5 9zM726 695q0 45 -45 45h-100q-45 0 -45 -45v-348
q0 -78 -45 -129q-44 -52 -108 -52q-65 0 -109 52q-45 51 -45 129v348q0 45 -45 45h-99q-45 0 -45 -45v-348q5 -153 98 -257q97 -108 245 -108q149 0 249 113q92 107 94 252v348z" />
    <glyph glyph-name="uring" unicode="&#x16f;" 
d="M384 796q33 0 55.5 22t22.5 53q0 33 -22.5 55.5t-55.5 22.5q-32 0 -54.5 -22.5t-22.5 -55.5q0 -31 22.5 -53t54.5 -22zM384 902q13 0 22 -9t9 -22q0 -12 -9 -21t-22 -9q-12 0 -21.5 9t-9.5 21q0 13 9.5 22t21.5 9zM726 695q0 45 -45 45h-100q-45 0 -45 -45v-348
q0 -78 -45 -129q-44 -52 -108 -52q-65 0 -109 52q-45 51 -45 129v348q0 45 -45 45h-99q-45 0 -45 -45v-348q5 -153 98 -257q97 -108 245 -108q149 0 249 113q92 107 94 252v348z" />
    <glyph glyph-name="Uhungarumlaut" unicode="&#x170;" 
d="M333 932q-37 -33 -60 -70q-24 -41 -13 -54q11 -15 52 4q35 17 74 51q26 23 23.5 50.5t-25 33.5t-51.5 -15zM483 932q-37 -33 -60 -70q-24 -41 -13 -54q11 -15 52 4q35 17 74 51q26 23 23.5 50.5t-25 33.5t-51.5 -15zM726 695q0 45 -45 45h-100q-45 0 -45 -45v-348
q0 -78 -45 -129q-44 -52 -108 -52q-65 0 -109 52q-45 51 -45 129v348q0 45 -45 45h-99q-45 0 -45 -45v-348q5 -153 98 -257q97 -108 245 -108q149 0 249 113q92 107 94 252v348z" />
    <glyph glyph-name="uhungarumlaut" unicode="&#x171;" 
d="M336 935q-56 36 -82 -5q-10 -21 -8.5 -36t18 -29t31 -22t31.5 -16q3 -1 5 -2q54 -27 86 -27q17 0 23 9q11 17 -22 57q-32 38 -82 71zM726 695q0 45 -45 45h-100q-45 0 -45 -45v-348q0 -78 -45 -129q-44 -52 -108 -52q-65 0 -109 52q-45 51 -45 129v348q0 45 -45 45h-99
q-45 0 -45 -45v-348q5 -153 98 -257q97 -108 245 -108q149 0 249 113q92 107 94 252v348z" />
    <glyph glyph-name="Uogonek" unicode="&#x172;" 
d="M681 740q45 0 45 -45v-348q-2 -145 -94 -252q-82 -92 -196 -109l-19 -6q-20 -6 -27.5 -21.5t0.5 -30.5q7 -16 25.5 -25.5t44.5 -4.5q37 8 52 13q17 6 31 -1.5t17 -23.5q2 -15 -7 -24.5t-36 -21.5q-22 -10 -47 -15t-58 -1t-56 23q-38 32 -44 83q-4 32 7 58
q-107 21 -181 102q-93 104 -98 257v348q0 45 45 45h99q45 0 45 -45v-348q0 -78 45 -129q44 -52 109 -52q64 0 108 52q45 51 45 129v348q0 45 45 45h100z" />
    <glyph glyph-name="uogonek" unicode="&#x173;" 
d="M681 740q45 0 45 -45v-348q-2 -145 -94 -252q-82 -92 -196 -109l-19 -6q-20 -6 -27.5 -21.5t0.5 -30.5q7 -16 25.5 -25.5t44.5 -4.5q37 8 52 13q17 6 31 -1.5t17 -23.5q2 -15 -7 -24.5t-36 -21.5q-22 -10 -47 -15t-58 -1t-56 23q-38 32 -44 83q-4 32 7 58
q-107 21 -181 102q-93 104 -98 257v348q0 45 45 45h99q45 0 45 -45v-348q0 -78 45 -129q44 -52 109 -52q64 0 108 52q45 51 45 129v348q0 45 45 45h100z" />
    <glyph glyph-name="Wcircumflex" unicode="&#x174;" horiz-adv-x="1038" 
d="M503 867l39 -47q18 -21 47 -21h14q24 0 30.5 13.5t-9.5 32.5l-75 93q-17 21 -45 21h-2q-28 0 -46 -21l-75 -93q-15 -19 -8.5 -32.5t29.5 -13.5h15q28 0 46 21zM194 40q9 -40 50 -40h116q39 0 51 38l95 348l95 -348q11 -38 50 -38h116q41 0 50 40l142 652q5 23 -5.5 36
t-34.5 13h-101q-41 0 -50 -40l-69 -323l-89 325q-11 38 -50 38h-109q-39 0 -50 -38l-89 -327l-69 325q-9 40 -50 40h-102q-24 0 -34.5 -13t-5.5 -36z" />
    <glyph glyph-name="wcircumflex" unicode="&#x175;" horiz-adv-x="1038" 
d="M503 867l39 -47q18 -21 47 -21h14q24 0 30.5 13.5t-9.5 32.5l-75 93q-17 21 -45 21h-2q-28 0 -46 -21l-75 -93q-15 -19 -8.5 -32.5t29.5 -13.5h15q28 0 46 21zM194 40q9 -40 50 -40h116q39 0 51 38l95 348l95 -348q11 -38 50 -38h116q41 0 50 40l142 652q5 23 -5.5 36
t-34.5 13h-101q-41 0 -50 -40l-69 -323l-89 325q-11 38 -50 38h-109q-39 0 -50 -38l-89 -327l-69 325q-9 40 -50 40h-102q-24 0 -34.5 -13t-5.5 -36z" />
    <glyph glyph-name="Ycircumflex" unicode="&#x176;" horiz-adv-x="757" 
d="M367 867l39 -47q18 -21 47 -21h14q24 0 30.5 13.5t-9.5 32.5l-75 93q-17 21 -45 21h-2q-28 0 -46 -21l-75 -93q-15 -19 -8.5 -32.5t29.5 -13.5h15q28 0 46 21zM421 0q45 0 45 45v299l212 342q15 23 6.5 38.5t-36.5 15.5h-119q-35 0 -54 -30l-104 -167l-104 167
q-19 30 -54 30h-119q-28 0 -36 -15.5t6 -38.5l213 -342v-299q0 -45 45 -45h99z" />
    <glyph glyph-name="ycircumflex" unicode="&#x177;" horiz-adv-x="757" 
d="M367 867l39 -47q18 -21 47 -21h14q24 0 30.5 13.5t-9.5 32.5l-75 93q-17 21 -45 21h-2q-28 0 -46 -21l-75 -93q-15 -19 -8.5 -32.5t29.5 -13.5h15q28 0 46 21zM421 0q45 0 45 45v299l212 342q15 23 6.5 38.5t-36.5 15.5h-119q-35 0 -54 -30l-104 -167l-104 167
q-19 30 -54 30h-119q-28 0 -36 -15.5t6 -38.5l213 -342v-299q0 -45 45 -45h99z" />
    <glyph glyph-name="Ydieresis" unicode="&#x178;" horiz-adv-x="757" 
d="M274 802q27 0 46 19t19 46t-19 46t-46 19q-26 0 -45 -19t-19 -46t19 -46t45 -19zM467 802q27 0 46 19t19 46t-19 46t-46 19q-26 0 -45 -19t-19 -46t19 -46t45 -19zM421 0q45 0 45 45v299l212 342q15 23 6.5 38.5t-36.5 15.5h-119q-35 0 -54 -30l-104 -167l-104 167
q-19 30 -54 30h-119q-28 0 -36 -15.5t6 -38.5l213 -342v-299q0 -45 45 -45h99z" />
    <glyph glyph-name="Zacute" unicode="&#x179;" horiz-adv-x="688" 
d="M354 935q-27 -19 -45 -34q-46 -39 -58 -70q-7 -15 -1 -24t23 -9q18 0 39 7q45 14 96 47q26 17 33 40t-4.5 37.5t-32 19.5t-50.5 -14zM544 0q45 0 45 45v99q0 45 -45 45h-257l269 373q18 26 18 56v77q0 45 -45 45h-429q-45 0 -45 -45v-99q0 -45 45 -45h236l-277 -372
q-19 -24 -19 -56v-78q0 -45 45 -45h459z" />
    <glyph glyph-name="zacute" unicode="&#x17a;" horiz-adv-x="688" 
d="M354 935q-27 -19 -45 -34q-46 -39 -58 -70q-7 -15 -1 -24t23 -9q18 0 39 7q45 14 96 47q26 17 33 40t-4.5 37.5t-32 19.5t-50.5 -14zM544 0q45 0 45 45v99q0 45 -45 45h-257l269 373q18 26 18 56v77q0 45 -45 45h-429q-45 0 -45 -45v-99q0 -45 45 -45h236l-277 -372
q-19 -24 -19 -56v-78q0 -45 45 -45h459z" />
    <glyph glyph-name="Zdotaccent" unicode="&#x17b;" horiz-adv-x="688" 
d="M321 802q27 0 46 19t19 46t-19 46t-46 19q-26 0 -45 -19t-19 -46t19 -46t45 -19zM544 0q45 0 45 45v99q0 45 -45 45h-257l269 373q18 26 18 56v77q0 45 -45 45h-429q-45 0 -45 -45v-99q0 -45 45 -45h236l-277 -372q-19 -24 -19 -56v-78q0 -45 45 -45h459z" />
    <glyph glyph-name="zdotaccent" unicode="&#x17c;" horiz-adv-x="688" 
d="M321 802q27 0 46 19t19 46t-19 46t-46 19q-26 0 -45 -19t-19 -46t19 -46t45 -19zM544 0q45 0 45 45v99q0 45 -45 45h-257l269 373q18 26 18 56v77q0 45 -45 45h-429q-45 0 -45 -45v-99q0 -45 45 -45h236l-277 -372q-19 -24 -19 -56v-78q0 -45 45 -45h459z" />
    <glyph glyph-name="Zcaron" unicode="&#x17d;" horiz-adv-x="688" 
d="M285 938q-18 21 -46 21h-15q-23 0 -29.5 -13.5t8.5 -32.5l75 -93q18 -21 46 -21h2q28 0 45 21l75 93q16 19 9.5 32.5t-30.5 13.5h-14q-29 0 -47 -21l-39 -47zM544 0q45 0 45 45v99q0 45 -45 45h-257l269 373q18 26 18 56v77q0 45 -45 45h-429q-45 0 -45 -45v-99
q0 -45 45 -45h236l-277 -372q-19 -24 -19 -56v-78q0 -45 45 -45h459z" />
    <glyph glyph-name="zcaron" unicode="&#x17e;" horiz-adv-x="688" 
d="M285 938q-18 21 -46 21h-15q-23 0 -29.5 -13.5t8.5 -32.5l75 -93q18 -21 46 -21h2q28 0 45 21l75 93q16 19 9.5 32.5t-30.5 13.5h-14q-29 0 -47 -21l-39 -47zM544 0q45 0 45 45v99q0 45 -45 45h-257l269 373q18 26 18 56v77q0 45 -45 45h-429q-45 0 -45 -45v-99
q0 -45 45 -45h236l-277 -372q-19 -24 -19 -56v-78q0 -45 45 -45h459z" />
    <glyph glyph-name="AEacute" unicode="&#x1fc;" horiz-adv-x="1150" 
d="M694 935q-27 -19 -45 -34q-46 -39 -58 -70q-7 -15 -1 -24t23 -9q18 0 39 7q45 14 96 47q26 17 33 40t-4.5 37.5t-32 19.5t-50.5 -14zM1073 144q0 45 -45 45h-285v94h210q45 0 45 45v85q0 45 -45 45h-210v93h285q45 0 45 45v99q0 45 -45 45h-414h-15q-39 0 -64 -36
l-453 -652q-17 -24 -12 -38t31 -14h107q38 0 65 37l62 91h220v-91q-1 -19 8.5 -28t29.5 -9h26h409q45 0 45 45v99zM570 498v-206h-132z" />
    <glyph glyph-name="aeacute" unicode="&#x1fd;" horiz-adv-x="1150" 
d="M694 935q-27 -19 -45 -34q-46 -39 -58 -70q-7 -15 -1 -24t23 -9q18 0 39 7q45 14 96 47q26 17 33 40t-4.5 37.5t-32 19.5t-50.5 -14zM1073 144q0 45 -45 45h-285v94h210q45 0 45 45v85q0 45 -45 45h-210v93h285q45 0 45 45v99q0 45 -45 45h-414h-15q-39 0 -64 -36
l-453 -652q-17 -24 -12 -38t31 -14h107q38 0 65 37l62 91h220v-91q-1 -19 8.5 -28t29.5 -9h26h409q45 0 45 45v99zM570 498v-206h-132z" />
    <glyph glyph-name="Oslashacute" unicode="&#x1fe;" horiz-adv-x="913" 
d="M385 798q-17 0 -23 9t1 24q12 31 58 70q18 15 45 34q30 19 50.5 14t32 -19.5t4.5 -37.5t-33 -40q-51 -33 -96 -47q-21 -7 -39 -7zM704 645q114 -114 114 -275q0 -162 -114 -274q-116 -114 -275 -114h-5l-5 -18q-11 -38 -50 -38h-74q-25 0 -35 14t-3 37l12 40
q-65 28 -115 79q-114 112 -114 274q0 161 114 275t275 114q28 0 60 -5l5 16q11 38 50 38h74q25 0 35 -14t3 -37l-18 -59q35 -22 66 -53zM288 229q15 -15 36 -28l110 369h-5q-82 0 -141 -59t-59 -141t59 -141zM570 229q58 58 58 141q0 76 -49 131l-96 -323q52 16 87 51z" />
    <glyph glyph-name="oslashacute" unicode="&#x1ff;" horiz-adv-x="913" 
d="M385 798q-17 0 -23 9t1 24q12 31 58 70q18 15 45 34q30 19 50.5 14t32 -19.5t4.5 -37.5t-33 -40q-51 -33 -96 -47q-21 -7 -39 -7zM704 645q114 -114 114 -275q0 -162 -114 -274q-116 -114 -275 -114h-5l-5 -18q-11 -38 -50 -38h-74q-25 0 -35 14t-3 37l12 40
q-65 28 -115 79q-114 112 -114 274q0 161 114 275t275 114q28 0 60 -5l5 16q11 38 50 38h74q25 0 35 -14t3 -37l-18 -59q35 -22 66 -53zM288 229q15 -15 36 -28l110 369h-5q-82 0 -141 -59t-59 -141t59 -141zM570 229q58 58 58 141q0 76 -49 131l-96 -323q52 16 87 51z" />
    <glyph glyph-name="Scommaaccent" unicode="&#x218;" horiz-adv-x="764" 
d="M472 178q-36 -25 -128 -14q-78 10 -149 52q-38 23 -63 -11l-67 -84q-31 -39 12 -63q122 -70 266 -77q7 -1 20 -1h18q137 0 214 61q67 52 79 132q18 101 -38 174q-59 77 -277 120q-56 12 -77 25q-30 18 -19 45q7 18 27 29q30 17 77 17q71 0 143 -42q39 -22 62 13l54 75
q28 37 -10 62q-48 31 -98 47q-75 22 -151 22q-107 0 -188 -47q-85 -49 -108 -125q-12 -35 -9 -83q3 -50 32 -95q57 -81 244 -121q39 -7 67 -15q41 -12 65 -27q10 -8 12 -10q11 -11 9 -28q-2 -19 -19 -31zM320 -107q0 -47 13 -80q13 -38 34 -38t37 38q15 37 15 78t-24 58.5
t-49 1.5t-26 -58z" />
    <glyph glyph-name="scommaaccent" unicode="&#x219;" horiz-adv-x="764" 
d="M472 178q-36 -25 -128 -14q-78 10 -149 52q-38 23 -63 -11l-67 -84q-31 -39 12 -63q122 -70 266 -77q7 -1 20 -1h18q137 0 214 61q67 52 79 132q18 101 -38 174q-59 77 -277 120q-56 12 -77 25q-30 18 -19 45q7 18 27 29q30 17 77 17q71 0 143 -42q39 -22 62 13l54 75
q28 37 -10 62q-48 31 -98 47q-75 22 -151 22q-107 0 -188 -47q-85 -49 -108 -125q-12 -35 -9 -83q3 -50 32 -95q57 -81 244 -121q39 -7 67 -15q41 -12 65 -27q10 -8 12 -10q11 -11 9 -28q-2 -19 -19 -31zM320 -107q0 -47 13 -80q13 -38 34 -38t37 38q15 37 15 78t-24 58.5
t-49 1.5t-26 -58z" />
    <glyph glyph-name="uni021A" unicode="&#x21a;" horiz-adv-x="706" 
d="M383 0q45 0 45 45v506h154q45 0 45 45v99q0 45 -45 45h-497q-45 0 -45 -45v-99q0 -45 45 -45h154v-506q0 -45 45 -45h99zM281 -107q0 -47 13 -80q13 -38 34 -38t37 38q15 37 15 78t-24 58.5t-49 1.5t-26 -58z" />
    <glyph glyph-name="uni021B" unicode="&#x21b;" horiz-adv-x="706" 
d="M383 0q45 0 45 45v506h154q45 0 45 45v99q0 45 -45 45h-497q-45 0 -45 -45v-99q0 -45 45 -45h154v-506q0 -45 45 -45h99zM281 -107q0 -47 13 -80q13 -38 34 -38t37 38q15 37 15 78t-24 58.5t-49 1.5t-26 -58z" />
    <glyph glyph-name="circumflex" unicode="&#x2c6;" horiz-adv-x="322" 
d="M163 867l39 -47q18 -21 47 -21h14q24 0 30.5 13.5t-9.5 32.5l-75 93q-17 21 -45 21h-2q-28 0 -46 -21l-75 -93q-15 -19 -8.5 -32.5t29.5 -13.5h15q28 0 46 21z" />
    <glyph glyph-name="caron" unicode="&#x2c7;" horiz-adv-x="315" 
d="M123 938q-18 21 -46 21h-15q-23 0 -29.5 -13.5t8.5 -32.5l75 -93q18 -21 46 -21h2q28 0 45 21l75 93q16 19 9.5 32.5t-30.5 13.5h-14q-29 0 -47 -21l-39 -47z" />
    <glyph glyph-name="breve" unicode="&#x2d8;" horiz-adv-x="290" 
d="M163 883h-5q-29 1 -52 43q-8 14 -12 19.5t-12.5 10.5t-19.5 3q-28 -6 -21 -46q7 -51 47 -84q34 -30 76 -30q44 0 77 30q33 29 44 84q7 40 -21 46q-11 2 -20 -3.5t-12.5 -11t-12.5 -19.5q-8 -14 -13 -20.5t-17 -14t-26 -7.5z" />
    <glyph glyph-name="dotaccent" unicode="&#x2d9;" horiz-adv-x="190" 
d="M99 802q27 0 46 19t19 46t-19 46t-46 19q-26 0 -45 -19t-19 -46t19 -46t45 -19z" />
    <glyph glyph-name="ring" unicode="&#x2da;" horiz-adv-x="184" 
d="M103 796q33 0 55.5 22t22.5 53q0 33 -22.5 55.5t-55.5 22.5q-32 0 -54.5 -22.5t-22.5 -55.5q0 -31 22.5 -53t54.5 -22zM103 902q13 0 22 -9t9 -22q0 -12 -9 -21t-22 -9q-12 0 -21.5 9t-9.5 21q0 13 9.5 22t21.5 9z" />
    <glyph glyph-name="ogonek" unicode="&#x2db;" horiz-adv-x="356" 
d="M261 73q-6 6 -19 6q-20 -3 -23 -4l-40 -9q-38 -8 -60 -36q-27 -32 -21 -82q6 -51 44 -83q23 -19 56 -23t58 1t47 15q27 12 36 21.5t7 24.5q-3 16 -17 23.5t-31 1.5q-15 -5 -52 -13q-26 -5 -44.5 4.5t-25.5 25.5q-8 15 -0.5 30.5t27.5 21.5q30 10 32 11q5 2 15 8
q14 11 20 24q6 18 -9 32z" />
    <glyph glyph-name="tilde" unicode="&#x2dc;" horiz-adv-x="434" 
d="M206 832q61 -44 123 -36q62 6 96 73q16 36 -8 50q-20 11 -52 -19q-35 -33 -66 -26q-29 10 -49 24q-63 44 -123 36q-66 -8 -96 -72q-18 -37 7 -51q10 -2 14 -4t13 4t12.5 9t12.5 11q36 32 66 25q24 -6 50 -24z" />
    <glyph glyph-name="hungarumlaut" unicode="&#x2dd;" horiz-adv-x="380" 
d="M133 932q-37 -33 -60 -70q-24 -41 -13 -54q11 -15 52 4q35 17 74 51q26 23 23.5 50.5t-25 33.5t-51.5 -15zM283 932q-37 -33 -60 -70q-24 -41 -13 -54q11 -15 52 4q35 17 74 51q26 23 23.5 50.5t-25 33.5t-51.5 -15z" />
    <glyph glyph-name="uni0326" unicode="&#x326;" horiz-adv-x="0" 
d="M-200 489q0 -47 13 -80q13 -38 34 -38t37 38q15 37 15 78t-24 58.5t-49 1.5t-26 -58z" />
    <glyph glyph-name="Wgrave" unicode="&#x1e80;" horiz-adv-x="1038" 
d="M477 935q-56 36 -82 -5q-10 -21 -8.5 -36t18 -29t31 -22t31.5 -16q3 -1 5 -2q54 -27 86 -27q17 0 23 9q11 17 -22 57q-32 38 -82 71zM194 40q9 -40 50 -40h116q39 0 51 38l95 348l95 -348q11 -38 50 -38h116q41 0 50 40l142 652q5 23 -5.5 36t-34.5 13h-101
q-41 0 -50 -40l-69 -323l-89 325q-11 38 -50 38h-109q-39 0 -50 -38l-89 -327l-69 325q-9 40 -50 40h-102q-24 0 -34.5 -13t-5.5 -36z" />
    <glyph glyph-name="wgrave" unicode="&#x1e81;" horiz-adv-x="1038" 
d="M477 935q-56 36 -82 -5q-10 -21 -8.5 -36t18 -29t31 -22t31.5 -16q3 -1 5 -2q54 -27 86 -27q17 0 23 9q11 17 -22 57q-32 38 -82 71zM194 40q9 -40 50 -40h116q39 0 51 38l95 348l95 -348q11 -38 50 -38h116q41 0 50 40l142 652q5 23 -5.5 36t-34.5 13h-101
q-41 0 -50 -40l-69 -323l-89 325q-11 38 -50 38h-109q-39 0 -50 -38l-89 -327l-69 325q-9 40 -50 40h-102q-24 0 -34.5 -13t-5.5 -36z" />
    <glyph glyph-name="Wacute" unicode="&#x1e82;" horiz-adv-x="1038" 
d="M545 935q-27 -19 -45 -34q-46 -39 -58 -70q-7 -15 -1 -24t23 -9q18 0 39 7q45 14 96 47q26 17 33 40t-4.5 37.5t-32 19.5t-50.5 -14zM194 40q9 -40 50 -40h116q39 0 51 38l95 348l95 -348q11 -38 50 -38h116q41 0 50 40l142 652q5 23 -5.5 36t-34.5 13h-101
q-41 0 -50 -40l-69 -323l-89 325q-11 38 -50 38h-109q-39 0 -50 -38l-89 -327l-69 325q-9 40 -50 40h-102q-24 0 -34.5 -13t-5.5 -36z" />
    <glyph glyph-name="wacute" unicode="&#x1e83;" horiz-adv-x="1038" 
d="M545 935q-27 -19 -45 -34q-46 -39 -58 -70q-7 -15 -1 -24t23 -9q18 0 39 7q45 14 96 47q26 17 33 40t-4.5 37.5t-32 19.5t-50.5 -14zM194 40q9 -40 50 -40h116q39 0 51 38l95 348l95 -348q11 -38 50 -38h116q41 0 50 40l142 652q5 23 -5.5 36t-34.5 13h-101
q-41 0 -50 -40l-69 -323l-89 325q-11 38 -50 38h-109q-39 0 -50 -38l-89 -327l-69 325q-9 40 -50 40h-102q-24 0 -34.5 -13t-5.5 -36z" />
    <glyph glyph-name="Wdieresis" unicode="&#x1e84;" horiz-adv-x="1038" 
d="M409 802q27 0 46 19t19 46t-19 46t-46 19q-26 0 -45 -19t-19 -46t19 -46t45 -19zM602 802q27 0 46 19t19 46t-19 46t-46 19q-26 0 -45 -19t-19 -46t19 -46t45 -19zM194 40q9 -40 50 -40h116q39 0 51 38l95 348l95 -348q11 -38 50 -38h116q41 0 50 40l142 652
q5 23 -5.5 36t-34.5 13h-101q-41 0 -50 -40l-69 -323l-89 325q-11 38 -50 38h-109q-39 0 -50 -38l-89 -327l-69 325q-9 40 -50 40h-102q-24 0 -34.5 -13t-5.5 -36z" />
    <glyph glyph-name="wdieresis" unicode="&#x1e85;" horiz-adv-x="1038" 
d="M409 802q27 0 46 19t19 46t-19 46t-46 19q-26 0 -45 -19t-19 -46t19 -46t45 -19zM602 802q27 0 46 19t19 46t-19 46t-46 19q-26 0 -45 -19t-19 -46t19 -46t45 -19zM194 40q9 -40 50 -40h116q39 0 51 38l95 348l95 -348q11 -38 50 -38h116q41 0 50 40l142 652
q5 23 -5.5 36t-34.5 13h-101q-41 0 -50 -40l-69 -323l-89 325q-11 38 -50 38h-109q-39 0 -50 -38l-89 -327l-69 325q-9 40 -50 40h-102q-24 0 -34.5 -13t-5.5 -36z" />
    <glyph glyph-name="Ygrave" unicode="&#x1ef2;" horiz-adv-x="757" 
d="M329 935q-56 36 -82 -5q-10 -21 -8.5 -36t18 -29t31 -22t31.5 -16q3 -1 5 -2q54 -27 86 -27q17 0 23 9q11 17 -22 57q-32 38 -82 71zM421 0q45 0 45 45v299l212 342q15 23 6.5 38.5t-36.5 15.5h-119q-35 0 -54 -30l-104 -167l-104 167q-19 30 -54 30h-119
q-28 0 -36 -15.5t6 -38.5l213 -342v-299q0 -45 45 -45h99z" />
    <glyph glyph-name="ygrave" unicode="&#x1ef3;" horiz-adv-x="757" 
d="M329 935q-56 36 -82 -5q-10 -21 -8.5 -36t18 -29t31 -22t31.5 -16q3 -1 5 -2q54 -27 86 -27q17 0 23 9q11 17 -22 57q-32 38 -82 71zM421 0q45 0 45 45v299l212 342q15 23 6.5 38.5t-36.5 15.5h-119q-35 0 -54 -30l-104 -167l-104 167q-19 30 -54 30h-119
q-28 0 -36 -15.5t6 -38.5l213 -342v-299q0 -45 45 -45h99z" />
    <glyph glyph-name="endash" unicode="&#x2013;" horiz-adv-x="639" 
d="M77 437q-45 0 -45 -45v-50q0 -45 45 -45h400q45 0 45 45v50q0 45 -45 45h-400z" />
    <glyph glyph-name="emdash" unicode="&#x2014;" horiz-adv-x="709" 
d="M77 437q-45 0 -45 -45v-50q0 -45 45 -45h470q45 0 45 45v50q0 45 -45 45h-470z" />
    <glyph glyph-name="quoteleft" unicode="&#x2018;" horiz-adv-x="306" 
d="M133 466q42 0 74 30q30 30 30 73q0 30 -21 56t-56 32l35 41l9 9t6 7.5t4.5 9t0 8t-4.5 9.5l-2 2q-1 2 -2 3q-30 28 -41 20q-38 -33 -66 -67q-35 -40 -41 -51q-28 -38 -28 -79q0 -43 30 -73t73 -30z" />
    <glyph glyph-name="quoteright" unicode="&#x2019;" horiz-adv-x="306" 
d="M134 774q-43 0 -73 -30q-31 -29 -31 -73q0 -30 21 -56t56 -32l-35 -41l-9 -9t-6 -7.5t-4.5 -9t0 -8t4.5 -9.5l1 -2l3 -3q30 -28 41 -20q36 31 67 67q36 43 40 51q28 38 28 79q0 43 -30 73t-73 30z" />
    <glyph glyph-name="quotedblleft" unicode="&#x201c;" horiz-adv-x="546" 
d="M133 466q42 0 74 30q30 30 30 73q0 30 -21 56t-56 32l35 41l9 9t6 7.5t4.5 9t0 8t-4.5 9.5l-2 2q-1 2 -2 3q-30 28 -41 20q-38 -33 -66 -67q-35 -40 -41 -51q-28 -38 -28 -79q0 -43 30 -73t73 -30zM387 466q43 0 73 30t30 73q0 30 -21 56t-55 32l13 17q5 7 22 24q1 1 2 3
q21 21 16 32q-1 4 -4 8l-1 2l-3 3q-30 28 -41 20q-38 -33 -66 -67q-35 -40 -41 -51q-28 -38 -28 -79q0 -44 31 -73q30 -30 73 -30z" />
    <glyph glyph-name="quotedblright" unicode="&#x201d;" horiz-adv-x="558" 
d="M143 774q-43 0 -73 -30t-30 -73q0 -30 21 -56t55 -32q-1 -1 -5.5 -6.5t-7.5 -9.5q-8 -11 -22 -25q-21 -23 -19 -33q1 -5 5 -10l1 -2l3 -3q30 -28 41 -20q36 31 67 67q36 43 40 51q28 38 28 79q0 43 -30 73q-32 30 -74 30zM397 774q-43 0 -73 -30q-31 -29 -31 -73
q0 -30 21 -56t56 -32l-35 -41l-9 -9t-6 -7.5t-4.5 -9t0 -8t4.5 -9.5l2 -2q1 -2 2 -3q30 -28 41 -20q36 31 67 67q36 43 40 51q28 38 28 79q0 43 -30 73t-73 30z" />
    <glyph glyph-name="bullet" unicode="&#x2022;" horiz-adv-x="466" 
d="M185 212q60 0 102 42t42 101q0 60 -42 102t-102 42t-102 -42t-42 -102q0 -59 42 -101t102 -42z" />
    <glyph glyph-name="Euro" unicode="&#x20ac;" horiz-adv-x="644" 
d="M437 591q-113 0 -165 -79h184q45 0 45 -45v-30q0 -45 -45 -45h-218q-1 -7 -1 -22q0 -17 1 -25h218q45 0 45 -45v-30q0 -45 -45 -45h-180q48 -65 161 -65h82q45 0 45 -48v-64q0 -48 -45 -48h-82q-127 0 -219.5 56.5t-128.5 168.5h-44q-45 0 -45 45v30q0 45 45 45h24
q-1 8 -1 25v22h-23q-45 0 -45 45v30q0 45 45 45h43q36 117 129 177.5t220 60.5h82q45 0 45 -48v-63q0 -48 -45 -48h-82z" />
    <glyph glyph-name="trademark" unicode="&#x2122;" horiz-adv-x="604" 
d="M137 480q33 0 33 45v149h25q45 0 45 31q0 21 -10.5 28t-34.5 7h-116q-45 0 -45 -31q0 -35 45 -35h25v-149q0 -45 33 -45zM282 525q0 -45 32 -45q35 0 35 45v61l30 -71q13 -35 35 -35q9 0 15.5 4.5t9.5 10t10 20.5l30 72v-62q0 -45 34 -45q20 0 26.5 10.5t6.5 34.5v170
q0 24 -6 34.5t-23 10.5q-18 0 -27.5 -7.5t-18.5 -26.5l-57 -124l-57 124q-9 19 -17.5 26.5t-22.5 7.5q-21 0 -28 -10.5t-7 -34.5v-170z" />
    </font>
</defs>
</svg>
