<?xml version="1.0" standalone="no"?>
<!DOCTYPE svg PUBLIC "-//W3C//DTD SVG 1.1//EN" "http://www.w3.org/Graphics/SVG/1.1/DTD/svg11.dtd" >
<svg xmlns="http://www.w3.org/2000/svg">
<metadata>
Created by FontPrep 20130207 at Tue Feb 24 16:57:16 2015
 By Tyler Finck
Copyright (c) 2014 by Tyler Finck. All rights reserved.
</metadata>
<defs>
<font id="70d2bfc85c35028265fa73bb826a63f0" horiz-adv-x='1024' >
  <font-face 
    font-family="KatahdinRound-Bold"
    font-weight="700"
    font-stretch="normal"
    units-per-em="2048"
    panose-1="0 0 8 0 0 0 0 0 0 0"
    ascent="1536"
    descent="-512"
    x-height="1516"
    cap-height="1516"
    bbox="36.4218 -247.5 1967.67 1717.13"
    underline-thickness="102"
    underline-position="-102"
    unicode-range="U+000D-2122"
  />
<missing-glyph horiz-adv-x="595" 
 />
    <glyph glyph-name=".notdef" horiz-adv-x="595" 
 />
    <glyph glyph-name=".null" horiz-adv-x="0" 
 />
    <glyph glyph-name="nonmarkingreturn" horiz-adv-x="681" 
 />
    <glyph glyph-name="NULL" horiz-adv-x="0" 
 />
    <glyph glyph-name="NULL" horiz-adv-x="0" 
 />
    <glyph glyph-name="CR" unicode="&#xd;" horiz-adv-x="595" 
 />
    <glyph glyph-name="space" unicode=" " horiz-adv-x="595" 
 />
    <glyph glyph-name="exclam" unicode="!" horiz-adv-x="690" 
d="M279 -33q-89 1 -153 63t-65 152t63 154t154 63q90 0 153 -63q63 -62 63 -152t-62 -154t-153 -63zM334 526h-111q-90 0 -94 90l-41 799q-4 94 90 94h199q94 0 90 -94l-39 -799q-4 -90 -94 -90z" />
    <glyph glyph-name="quotedbl" unicode="&#x22;" horiz-adv-x="917" 
d="M598 977q-33 0 -53 80l-74 305q-4 20 -4 35q0 82 44 125t112 43q69 0 111 -43t42 -125q0 -41 -28 -148q-28 -106 -46 -182q-20 -90 -104 -90zM225 977q-33 0 -53 80l-74 305q-4 20 -4 35q0 82 44 125t112 43t110 -43t43 -125q1 -41 -27 -148q-28 -106 -46 -182
q-20 -90 -105 -90z" />
    <glyph glyph-name="numbersign" unicode="#" horiz-adv-x="1882" 
d="M1110 868h-315l-58 -290h316zM1341 1614h105q100 0 82 -101l-70 -358h207q100 0 82 -100l-21 -105q-14 -82 -100 -82h-225l-58 -290h207q100 0 82 -101l-20 -104q-14 -82 -101 -82h-225l-61 -305q-14 -82 -101 -82h-104q-100 0 -82 100l57 287h-313l-61 -305
q-14 -82 -101 -82h-104q-100 0 -82 100l55 287h-225q-100 0 -82 100l20 105q14 82 101 82h243l58 290h-225q-100 0 -82 101l20 104q14 82 100 82h244l76 377q14 82 100 82h105q100 0 82 -101l-72 -358h315l74 377q14 82 100 82z" />
    <glyph glyph-name="dollar" unicode="$" horiz-adv-x="1439" 
d="M823 -53q0 -92 -92 -92h-156q-92 0 -92 92v96q-215 49 -360 201q-66 68 12 131l105 84q63 53 129 -13q143 -133 336 -133q69 0 145 34t86 91t-21 86q-74 70 -294 94q-336 37 -459 230q-98 154 -43 328q35 106 132 184t232 113v96q0 92 92 92h156q92 0 92 -92v-92
q164 -35 303 -148q74 -63 -4 -131l-96 -80q-59 -51 -129 0q-111 80 -235 80q-176 0 -232 -104q-20 -39 2 -74q45 -66 223 -84q356 -39 510 -238q111 -147 85 -310t-148 -253q-106 -84 -279 -106v-82z" />
    <glyph glyph-name="percent" unicode="%" horiz-adv-x="2066" 
d="M1534 258q51 0 87 36t36 86t-36 86t-87 36t-86 -36t-35 -86t35 -86t86 -36zM1534 758q158 0 268 -111t111 -267q0 -156 -111 -266q-112 -112 -268 -112t-266 111t-111 267t109 268q110 110 268 110zM338 1139q0 -51 36 -86t86 -35t86 35t36 86t-36 86t-86 35t-86 -35
t-36 -86zM1307 1518h141q56 0 74 -31t-9 -80l-725 -1341q-35 -66 -108 -66h-141q-55 0 -74 31t8 80l725 1341q35 66 109 66zM838 1139q0 -158 -111 -269q-111 -110 -267 -110t-268 112q-110 112 -110 267t111 267t267 112t268 -110q110 -110 110 -269z" />
    <glyph glyph-name="ampersand" unicode="&#x26;" horiz-adv-x="1792" 
d="M645 285q55 -1 111 25t84 50l28 25l-215 227q-205 -103 -202 -202q-1 -125 194 -125zM625 1159q0 -46 39 -94t90 -98q152 82 151 184q0 70 -36 114t-111 38q-133 -12 -133 -144zM1491 0h-203q-70 0 -112 49l-101 107q-117 -98 -184 -131q-194 -91 -434 -32
q-90 21 -175 65t-139 128q-53 84 -53 197q0 233 381 434q-27 26 -45 53t-40 55t-28 39q-6 10 -21 34q-46 72 -46 153q0 182 126 290q126 107 349 107t342 -120t119 -277q0 -159 -178 -310q-41 -34 -70 -50l-29 -19l180 -205q55 41 111 88q70 61 131 0l78 -77q66 -66 2 -132
q-41 -41 -117 -106l207 -227q41 -45 26 -79t-77 -34z" />
    <glyph glyph-name="quotesingle" unicode="'" horiz-adv-x="509" 
d="M205 977q-33 0 -53 80l-74 305q-4 20 -4 35q0 82 44 125t112 43t110 -43q43 -43 43 -125q1 -41 -27 -148q-28 -106 -47 -182q-20 -90 -104 -90z" />
    <glyph glyph-name="parenleft" unicode="(" horiz-adv-x="770" 
d="M61 738q0 447 232 805q47 75 97 134t126 29l74 -31q92 -41 37 -125q-258 -416 -258 -811t233 -782q55 -84 -37 -123l-73 -31q-76 -31 -124 25q-93 109 -200 337q-107 227 -107 573z" />
    <glyph glyph-name="parenright" unicode=")" horiz-adv-x="770" 
d="M315 739q0 395 -258 811q-55 84 37 125l74 31q76 32 126 -28q101 -120 215 -360t114 -581t-117 -593q-93 -200 -189 -314q-48 -58 -124 -27l-74 31q-92 39 -37 123q233 387 233 782z" />
    <glyph glyph-name="asterisk" unicode="*" horiz-adv-x="931" 
d="M424 1511h2q92 0 92 -92l2 -125l123 37q88 29 116 -58t-57 -118l-127 -47l72 -109q51 -76 -21 -125t-126 23l-76 98l-74 -98q-55 -72 -128 -23t-21 125l71 109l-125 47q-86 31 -57 118t115 58l125 -37l2 125q0 92 92 92z" />
    <glyph glyph-name="plus" unicode="+" horiz-adv-x="1183" 
d="M563 301h-102q-92 0 -92 92v215h-215q-92 0 -93 92v103q0 92 93 92h215v215q0 92 92 92h102q92 0 92 -92v-215h215q92 0 93 -92v-103q0 -92 -93 -92h-215v-215q0 -92 -92 -92z" />
    <glyph glyph-name="comma" unicode="," horiz-adv-x="704" 
d="M502 174q0 -96 -58 -190q-27 -41 -87 -108t-111 -93q-123 -61 -131 0q-2 20 21 39q96 72 136 166l2 12q-88 -12 -150 46t-62 141t64 148q65 65 156 65q92 0 156 -66q64 -64 64 -160z" />
    <glyph glyph-name="hyphen" unicode="-" horiz-adv-x="1206" 
d="M158 895h716q92 0 93 -92v-103q0 -92 -93 -92h-716q-92 0 -92 92v103q0 92 92 92z" />
    <glyph glyph-name="period" unicode="." horiz-adv-x="684" 
d="M319 -33q-90 1 -153 63t-64 152q0 90 64 154t153 63q91 0 153 -63q62 -62 62 -152t-62 -154q-63 -64 -153 -63z" />
    <glyph glyph-name="slash" unicode="/" horiz-adv-x="1003" 
d="M680 1655h151q51 0 71 -29t7 -76l-485 -1624q-20 -78 -102 -78h-152q-51 0 -72 29q-20 29 -6 76l486 1624q20 78 102 78z" />
    <glyph glyph-name="zero" unicode="0" horiz-adv-x="1669" 
d="M803 330q88 0 151 39q150 93 150 389q0 211 -131 353q-72 77 -170 77q-139 0 -220 -138t-81 -295t57 -280q31 -69 93 -107t151 -38zM803 -37q-315 0 -502 226q-186 226 -186 553t177 560q85 112 217 180t294 72q299 0 495 -236t195 -557q0 -322 -169 -552
q-83 -113 -218 -179t-303 -67z" />
    <glyph glyph-name="one" unicode="1" horiz-adv-x="1019" 
d="M373 1051h-170q-57 0 -74 33q-16 34 18 79l230 297q43 55 112 56h179q92 0 92 -93v-1331q0 -92 -92 -92h-203q-92 0 -92 92v959z" />
    <glyph glyph-name="two" unicode="2" horiz-adv-x="1404" 
d="M1141 369q92 0 92 -93v-184q0 -92 -92 -92h-965q-92 0 -92 92v101q0 49 16 86t30 51t278 240q266 226 391 350q27 28 43 72q32 90 -62 149q-45 29 -114 28q-127 0 -252 -172q-55 -74 -129 -22l-168 117q-78 51 -27 127q82 121 146 176q193 164 430 164q178 1 319 -91
t201 -240t31 -294q-23 -108 -163 -248t-374 -317h461z" />
    <glyph glyph-name="three" unicode="3" horiz-adv-x="1443" 
d="M682 -39q-350 0 -537 279q-61 96 -12 129l193 114q74 45 127 -24q98 -127 229 -135q80 -4 139 40q83 62 60 152q-6 26 -44 56t-106 40q-96 16 -96 95v96q0 78 94 96q96 17 127 65q69 106 -39 187q-57 43 -135 41q-135 -8 -229 -127q-55 -70 -127 -29l-164 99
q-45 27 -56 45q-10 18 9 53q146 213 331 284q92 34 205 42q237 14 387 -97t183 -227q43 -152 -17 -295t-172 -180q111 -25 173 -169q61 -145 19 -287t-173 -242t-369 -101z" />
    <glyph glyph-name="four" unicode="4" horiz-adv-x="1517" 
d="M754 637v356l-305 -356h305zM862 1516h156q92 0 92 -93v-786h90q92 0 92 -92v-131q0 -92 -92 -92h-90v-230q0 -92 -92 -92h-172q-92 0 -92 92v230h-600q-92 0 -93 92v157q0 66 41 115l648 776q44 54 112 54z" />
    <glyph glyph-name="five" unicode="5" horiz-adv-x="1472" 
d="M651 -39h-35q-299 14 -497 242q-59 72 20 129l170 114q68 45 127 -22q86 -94 199 -96q152 -2 207 70t39 190q-10 70 -77 120t-168 49t-178 -59t-136 -45l-150 33q-88 18 -72 107l113 639q16 84 98 84h736q92 0 92 -93v-153q0 -92 -92 -92h-558l-34 -230q26 34 99 66
q74 31 144 33q139 1 252 -49t176 -138q96 -129 104 -300t-65 -308q-147 -291 -514 -291z" />
    <glyph glyph-name="six" unicode="6" horiz-adv-x="1398" 
d="M629 305q188 0 188 213q0 86 -52 131t-130 45t-129 -55t-55 -137t43 -140t135 -57zM629 -39q-123 0 -225 43q-183 77 -273 268q-39 84 -47 170q-14 205 74 363l348 647q35 66 108 66h195q53 0 71 -32t-8 -79l-251 -457q54 30 182 6t243 -135q52 -51 86 -136t33 -189
q1 -225 -151 -380t-385 -155z" />
    <glyph glyph-name="seven" unicode="7" horiz-adv-x="1243" 
d="M176 1178q-92 0 -92 92v153q0 92 92 93h823q92 0 93 -93v-139q0 -59 -29 -115l-580 -1103q-35 -66 -108 -66h-189q-55 0 -73 31t8 80l569 1067h-514z" />
    <glyph glyph-name="eight" unicode="8" horiz-adv-x="1466" 
d="M667 629q-103 0 -155 -44t-53 -117q1 -73 61 -121t147 -48t148 49t61 119t-52 116q-54 46 -157 46zM864 1099q0 65 -50 109t-147 43q-97 0 -147 -42q-50 -43 -51 -111t57 -113t140 -45t140 47t58 112zM1251 444q-1 -213 -159 -348t-425 -135t-426 135t-159 348
q0 109 52 212t157 147q-154 94 -154 297t152 330q152 126 378 126q225 0 377 -126t152 -322q0 -90 -38 -176t-116 -129q98 -47 154 -151t55 -208z" />
    <glyph glyph-name="nine" unicode="9" horiz-adv-x="1292" 
d="M592 823q78 -1 129 55t55 138t-43 138t-135 56q-188 0 -188 -213q0 -84 52 -129t130 -45zM61 1022q0 224 152 378q153 154 389 154t380 -146t161 -333q14 -205 -74 -362l-348 -647q-35 -66 -109 -66h-194q-55 0 -74 32q-18 32 8 79l254 454q-53 -30 -184 -4t-241 134
q-52 51 -86 137t-34 190z" />
    <glyph glyph-name="colon" unicode=":" horiz-adv-x="763" 
d="M319 70q-90 0 -153 62q-64 62 -64 152t64 154t153 64q91 0 153 -64t62 -152t-62 -152q-63 -64 -153 -64zM319 1001q-90 1 -153 63q-64 62 -64 152t64 154t153 64q91 0 153 -64t62 -153q0 -90 -62 -153q-63 -63 -153 -63z" />
    <glyph glyph-name="semicolon" unicode=";" horiz-adv-x="763" 
d="M323 502q91 0 155 -65t65 -161q0 -96 -58 -190q-27 -41 -87 -108t-111 -93q-123 -61 -131 0q-2 20 21 39q95 71 136 166l2 12q-88 -12 -150 46q-63 58 -63 142t65 148t156 64zM319 1001q-90 1 -153 63q-64 62 -64 152t64 154t153 64q91 0 153 -64t62 -153q0 -90 -62 -153
q-63 -63 -153 -63z" />
    <glyph glyph-name="less" unicode="&#x3c;" horiz-adv-x="1042" 
d="M842 389v-121q0 -53 -31 -71t-78 4l-579 288q-68 33 -68 109v262q0 76 68 109l579 288q47 23 78 5t31 -72v-121q0 -74 -66 -108l-454 -232l454 -231q66 -35 66 -109z" />
    <glyph glyph-name="equal" unicode="=" horiz-adv-x="1085" 
d="M154 657h618q92 0 92 -92v-102q0 -92 -92 -92h-618q-92 0 -93 92v102q1 92 93 92zM154 1128h618q92 0 92 -92v-100q0 -92 -92 -92h-618q-92 0 -93 92v100q1 92 93 92z" />
    <glyph glyph-name="greater" unicode="&#x3e;" horiz-adv-x="1042" 
d="M86 268v121q0 74 66 109l454 231l-454 232q-66 35 -66 108v121q0 54 31 72t78 -5l579 -288q68 -33 68 -109v-262q0 -76 -68 -109l-579 -288q-47 -23 -78 -5t-31 72z" />
    <glyph glyph-name="question" unicode="?" horiz-adv-x="1206" 
d="M782 182q0 -90 -63 -152t-153 -62t-153 62q-63 64 -63 153t62 153t153 63q90 0 154 -63q63 -64 63 -154zM606 1227q-119 0 -227 -125q-53 -66 -125 -31l-107 51q-90 43 -36 123q76 117 200 210q125 93 292 93t295 -84t167 -227q74 -274 -191 -471q-113 -84 -151 -158
l-10 -20q-7 -16 -11 -20t-17 -24q-13 -18 -54 -18h-154q-47 0 -69 16t-23 56q0 154 236 346q2 2 42 35t66 73q25 41 17 77t-44 67t-96 31z" />
    <glyph glyph-name="at" unicode="@" horiz-adv-x="1847" 
d="M895 666q61 0 93 38t32 89q0 119 -109 118q-67 0 -97 -38t-30 -80q0 -127 111 -127zM909 -35q-352 -1 -600 227t-248 580t248 578t593 227q344 0 578 -211t234 -539q0 -193 -85 -289t-201 -98q-116 0 -183 74q-35 39 -45 70l-8 30q0 -57 -93 -135t-197 -78
q-104 -1 -196 49q-91 50 -143 134q-51 84 -51 185t57 203t147 150q90 49 187 49q240 0 346 -213q25 -49 40 -127q15 -77 35 -119t67 -50q59 0 73 28t15 137q0 221 -161 363t-405 141q-245 0 -411 -164t-166 -393t168 -385t405 -156q172 0 293 76q39 27 70 27t59 -21l68 -45
q47 -30 47 -66t-53 -81q-189 -158 -484 -158z" />
    <glyph glyph-name="A" unicode="A" horiz-adv-x="1687" 
d="M801 1018l-129 -420h270zM684 1516h234q78 0 106 -74l467 -1336q16 -50 -4 -78t-72 -28h-219q-80 0 -104 76l-64 186h-450l-64 -186q-27 -76 -106 -76h-222q-51 0 -71 29t-4 77l469 1336q26 74 104 74z" />
    <glyph glyph-name="B" unicode="B" horiz-adv-x="1501" 
d="M451 350h335q59 0 97 33q37 33 37 94q0 127 -146 127h-323v-254zM451 918h272q51 0 94 32t43 87t-30 95t-87 39h-292v-253zM852 0h-678q-92 0 -92 92v1331q0 92 92 93h569q244 0 399 -188q28 -34 54 -104t25 -157v-2q0 -88 -46 -168t-96 -96q59 -9 139 -99t88 -230
q9 -140 -89 -296q-49 -76 -145 -126t-220 -50z" />
    <glyph glyph-name="C" unicode="C" horiz-adv-x="1669" 
d="M862 -39q-322 1 -555 235t-233 563t233 562t562 233t563 -229q68 -68 -13 -129l-162 -127q-61 -49 -129 6q-112 92 -270 92q-158 -1 -278 -121t-119 -288q0 -168 120 -288t275 -120t264 86q72 53 131 4l158 -133q76 -66 6 -131q-231 -215 -553 -215z" />
    <glyph glyph-name="D" unicode="D" horiz-adv-x="1615" 
d="M469 387h186q137 0 240 112q102 112 102 259t-101 259t-239 111h-188v-741zM655 0h-481q-92 0 -92 92v1331q0 92 92 93h483q305 0 517 -228t212 -534t-217 -530t-514 -224z" />
    <glyph glyph-name="E" unicode="E" horiz-adv-x="1419" 
d="M1145 295v-203q0 -92 -92 -92h-879q-92 0 -92 92v1331q0 92 92 93h879q92 0 92 -93v-202q0 -92 -92 -93h-584v-190h430q92 0 92 -92v-174q0 -92 -92 -92h-430v-193h584q92 0 92 -92z" />
    <glyph glyph-name="F" unicode="F" 
d="M469 580v-488q0 -92 -92 -92h-203q-92 0 -92 92v1331q0 92 92 93h850q92 0 92 -93v-202q0 -92 -92 -93h-555v-190h401q92 0 93 -92v-174q0 -92 -93 -92h-401z" />
    <glyph glyph-name="G" unicode="G" horiz-adv-x="1808" 
d="M877 -35q-327 1 -561 233t-234 560t233 561t561 233t558 -227q66 -68 -11 -131l-161 -127q-61 -49 -129 6q-111 92 -267 92q-156 1 -277 -119q-120 -120 -120 -289t120 -295q121 -126 305 -126t277 113v98h-251q-92 0 -93 92v127q0 92 93 92h546q92 0 93 -92v-371
q0 -63 -25 -102q-213 -328 -657 -328z" />
    <glyph glyph-name="H" unicode="H" horiz-adv-x="1523" 
d="M1276 1423v-1331q0 -92 -92 -92h-203q-92 0 -92 92v471h-420v-471q0 -92 -92 -92h-203q-92 0 -92 92v1331q0 92 92 93h203q92 0 92 -93v-471h420v471q0 92 92 93h203q92 -1 92 -93z" />
    <glyph glyph-name="I" unicode="I" horiz-adv-x="712" 
d="M174 1516h203q92 0 92 -93v-1331q0 -92 -92 -92h-203q-92 0 -92 92v1331q0 93 92 93z" />
    <glyph glyph-name="J" unicode="J" horiz-adv-x="1462" 
d="M630 354q91 0 143 50t52 206v811q0 92 93 92h204q92 0 92 -92v-858q0 -219 -120 -396q-64 -93 -184 -149t-281 -57q-330 0 -508 318q-43 75 37 124l178 103q74 45 125 -33q78 -119 169 -119z" />
    <glyph glyph-name="K" unicode="K" horiz-adv-x="1497" 
d="M1192 0h-262q-66 0 -113 53l-348 412v-373q0 -92 -92 -92h-203q-92 0 -92 92v1331q0 92 92 93h203q92 0 92 -93v-372l356 411q45 51 113 51h223q59 0 76 -33q16 -34 -23 -79l-540 -629l569 -659q39 -45 24 -79t-75 -34z" />
    <glyph glyph-name="L" unicode="L" 
d="M469 387h543q92 0 92 -92v-203q0 -92 -92 -92h-838q-92 0 -92 92v1331q0 92 92 93h203q92 0 92 -93v-1036z" />
    <glyph glyph-name="M" unicode="M" horiz-adv-x="1859" 
d="M82 92v1331q0 92 92 93h172q76 0 109 -70l393 -850l395 850q33 70 109 70h172q92 0 92 -93v-1331q0 -92 -92 -92h-203q-92 0 -92 92v529l-232 -549q-31 -72 -108 -72h-82q-78 0 -109 72l-229 546v-526q0 -92 -92 -92h-203q-92 0 -92 92z" />
    <glyph glyph-name="N" unicode="N" horiz-adv-x="1591" 
d="M377 0h-203q-92 0 -92 92v1331q0 92 92 93h176q72 0 113 -60l473 -686v653q0 92 92 93h203q92 0 92 -93v-1331q0 -92 -92 -92h-176q-72 0 -113 59l-473 693v-660q0 -92 -92 -92z" />
    <glyph glyph-name="O" unicode="O" horiz-adv-x="1869" 
d="M879 350q171 0 289 120t118 289t-120 289t-288 119q-169 -1 -289 -121t-120 -288t120 -288t290 -120zM879 -37q-329 1 -563 233t-234 562t233 563t563 233t564 -233q233 -233 233 -562t-233 -563t-563 -233z" />
    <glyph glyph-name="P" unicode="P" horiz-adv-x="1439" 
d="M893 1017q0 56 -33 91t-92 35h-307v-254h293q57 0 98 36t41 92zM1266 1024q0 -121 -45 -226t-127 -171q-139 -111 -340 -111h-293v-424q0 -92 -92 -92h-203q-92 0 -92 92v1331q0 92 92 93h622q197 0 328 -115q58 -55 104 -155t46 -222z" />
    <glyph glyph-name="Q" unicode="Q" horiz-adv-x="1898" 
d="M1286 758q0 170 -120 290t-288 120t-289 -122q-120 -120 -120 -288t120 -288t290 -120q18 0 28 2l-86 111q-57 76 15 131l159 125q76 53 131 -17l109 -141q51 90 51 197zM879 -37q-329 1 -563 233t-234 562t233 563t563 233t564 -233q233 -233 233 -563q0 -293 -190 -516
l133 -170q56 -74 -16 -131l-160 -123q-74 -57 -129 14l-144 184q-137 -53 -290 -53z" />
    <glyph glyph-name="R" unicode="R" horiz-adv-x="1464" 
d="M899 1017q0 56 -32 91t-91 35h-307v-254h293q55 0 96 36t41 92zM1274 1024q0 -121 -45 -226t-127 -171q-16 -12 -68 -39l205 -482q20 -46 0 -76t-72 -30h-225q-76 0 -106 72l-181 469h-186v-449q0 -92 -92 -92h-203q-92 0 -92 92v1331q0 92 92 93h623q197 0 327 -115
q58 -55 104 -155t46 -222z" />
    <glyph glyph-name="S" unicode="S" horiz-adv-x="1564" 
d="M752 1556q285 0 510 -141q78 -49 20 -127l-111 -153q-47 -72 -127 -27q-147 86 -292 86q-98 0 -150 -30t-63 -64q-21 -57 31 -89t165 -55q446 -88 568 -245q113 -143 77 -357q-24 -166 -174 -280t-426 -115q-345 0 -622 160q-86 47 -25 129l137 172q51 70 129 22
q145 -86 319 -106t249 29q35 20 39 61t-19 59q-57 57 -263 99q-416 86 -531 256q-57 86 -67 194t19 170q51 158 221 255t386 97z" />
    <glyph glyph-name="T" unicode="T" horiz-adv-x="1445" 
d="M784 0h-202q-92 0 -93 92v1036h-315q-92 0 -92 93v202q0 92 92 93h1018q92 0 92 -93v-202q0 -92 -92 -93h-315v-1036q-1 -92 -93 -92z" />
    <glyph glyph-name="U" unicode="U" horiz-adv-x="1732" 
d="M1487 1423v-712q-4 -299 -201 -523t-500 -225q-304 0 -500 218t-204 530v712q0 92 92 93h203q92 0 92 -93v-712q0 -159 92 -265t223 -106t223 106q91 106 91 265v712q0 92 92 93h205q92 -1 92 -93z" />
    <glyph glyph-name="V" unicode="V" horiz-adv-x="1648" 
d="M1169 1518h220q51 0 70 -29t3 -76l-461 -1339q-27 -74 -106 -74h-207q-78 0 -106 74l-463 1339q-16 47 3 76t71 29h219q80 0 106 -74l273 -789l272 789q27 74 106 74z" />
    <glyph glyph-name="W" unicode="W" horiz-adv-x="2125" 
d="M186 1518h209q84 0 103 -82l141 -666l182 670q20 78 103 78h223q82 0 102 -78l183 -666l141 662q18 82 102 82h207q49 0 71 -27t11 -74l-291 -1335q-18 -82 -102 -82h-238q-82 0 -102 78l-195 713l-194 -713q-25 -78 -105 -78h-237q-85 0 -103 82l-293 1335q-10 47 12 74
t70 27z" />
    <glyph glyph-name="X" unicode="X" horiz-adv-x="1738" 
d="M1444 1516q56 0 74 -33t-15 -80l-436 -639l442 -651q33 -47 16 -80t-75 -33h-262q-72 0 -113 59l-241 359l-244 -359q-41 -59 -113 -59h-262q-57 0 -75 33q-17 33 16 80l442 651l-436 639q-33 47 -16 80t75 33h262q72 0 113 -60l238 -348l235 348q41 59 113 60h262z" />
    <glyph glyph-name="Y" unicode="Y" horiz-adv-x="1550" 
d="M862 0h-203q-92 0 -92 92v613l-436 700q-29 47 -13 79t75 32h243q72 0 111 -62l213 -342l213 342q39 61 110 62h244q57 0 75 -32t-13 -79l-435 -700v-613q0 -92 -92 -92z" />
    <glyph glyph-name="Z" unicode="Z" horiz-adv-x="1409" 
d="M1114 0h-940q-92 0 -92 92v160q0 66 39 115l567 761h-483q-92 0 -92 93v202q0 92 92 93h878q92 0 93 -93v-157q0 -63 -37 -115l-551 -764h526q92 0 92 -92v-203q0 -92 -92 -92z" />
    <glyph glyph-name="bracketleft" unicode="[" horiz-adv-x="747" 
d="M387 23h193q92 0 92 -93v-61q0 -92 -92 -92h-406q-92 0 -92 92v1745q0 92 92 92h406q92 0 92 -92v-60q0 -92 -92 -92h-193v-1439z" />
    <glyph glyph-name="backslash" unicode="\" horiz-adv-x="1038" 
d="M831 -152h-151q-82 0 -102 78l-486 1624q-14 47 6 76t72 29h152q82 0 102 -78l485 -1624q14 -47 -6 -76t-72 -29z" />
    <glyph glyph-name="bracketright" unicode="]" horiz-adv-x="794" 
d="M346 1462h-192q-92 0 -93 92v60q0 92 93 92h405q92 0 92 -92v-1745q0 -92 -92 -92h-405q-92 0 -93 92v61q0 92 93 93h192v1439z" />
    <glyph glyph-name="asciicircum" unicode="^" horiz-adv-x="970" 
d="M236 1116h-37q-59 0 -75 34q-15 34 21 79l187 229q45 53 112 53h5q68 0 112 -53l184 -229q39 -45 23 -79t-76 -34h-35q-68 0 -114 53l-97 115l-98 -117q-45 -51 -112 -51z" />
    <glyph glyph-name="underscore" unicode="_" horiz-adv-x="1351" 
d="M1073 -170h-919q-92 0 -93 92v156q0 92 93 92h919q92 0 92 -92v-156q0 -92 -92 -92z" />
    <glyph glyph-name="a" unicode="a" horiz-adv-x="1687" 
d="M801 1018l-129 -420h270zM684 1516h234q78 0 106 -74l467 -1336q16 -50 -4 -78t-72 -28h-219q-80 0 -104 76l-64 186h-450l-64 -186q-27 -76 -106 -76h-222q-51 0 -71 29t-4 77l469 1336q26 74 104 74z" />
    <glyph glyph-name="b" unicode="b" horiz-adv-x="1501" 
d="M451 350h335q59 0 97 33q37 33 37 94q0 127 -146 127h-323v-254zM451 918h272q51 0 94 32t43 87t-30 95t-87 39h-292v-253zM852 0h-678q-92 0 -92 92v1331q0 92 92 93h569q244 0 399 -188q28 -34 54 -104t25 -157v-2q0 -88 -46 -168t-96 -96q59 -9 139 -99t88 -230
q9 -140 -89 -296q-49 -76 -145 -126t-220 -50z" />
    <glyph glyph-name="c" unicode="c" horiz-adv-x="1669" 
d="M862 -39q-322 1 -555 235t-233 563t233 562t562 233t563 -229q68 -68 -13 -129l-162 -127q-61 -49 -129 6q-112 92 -270 92q-158 -1 -278 -121t-119 -288q0 -168 120 -288t275 -120t264 86q72 53 131 4l158 -133q76 -66 6 -131q-231 -215 -553 -215z" />
    <glyph glyph-name="d" unicode="d" horiz-adv-x="1615" 
d="M469 387h186q137 0 240 112q102 112 102 259t-101 259t-239 111h-188v-741zM655 0h-481q-92 0 -92 92v1331q0 92 92 93h483q305 0 517 -228t212 -534t-217 -530t-514 -224z" />
    <glyph glyph-name="e" unicode="e" horiz-adv-x="1419" 
d="M469 387h584q92 0 92 -92v-203q0 -92 -92 -92h-879q-92 0 -92 92v1331q0 92 92 93h879q92 0 92 -93v-202q0 -92 -92 -93h-584v-190h430q92 0 92 -92v-174q0 -92 -92 -92h-430v-193z" />
    <glyph glyph-name="f" unicode="f" 
d="M469 580v-488q0 -92 -92 -92h-203q-92 0 -92 92v1331q0 92 92 93h850q92 0 92 -93v-202q0 -92 -92 -93h-555v-190h401q92 0 93 -92v-174q0 -92 -93 -92h-401z" />
    <glyph glyph-name="g" unicode="g" horiz-adv-x="1808" 
d="M877 -35q-327 1 -561 233t-234 560t233 561t561 233t558 -227q66 -68 -11 -131l-161 -127q-61 -49 -129 6q-111 92 -267 92q-156 1 -277 -119q-120 -120 -120 -289t120 -295q121 -126 305 -126t277 113v98h-251q-92 0 -93 92v127q0 92 93 92h546q92 0 93 -92v-371
q0 -63 -25 -102q-213 -328 -657 -328z" />
    <glyph glyph-name="h" unicode="h" horiz-adv-x="1523" 
d="M1276 1423v-1331q0 -92 -92 -92h-203q-92 0 -92 92v471h-420v-471q0 -92 -92 -92h-203q-92 0 -92 92v1331q0 92 92 93h203q92 0 92 -93v-471h420v471q0 92 92 93h203q92 -1 92 -93z" />
    <glyph glyph-name="i" unicode="i" horiz-adv-x="712" 
d="M174 1516h203q92 0 92 -93v-1331q0 -92 -92 -92h-203q-92 0 -92 92v1331q0 93 92 93z" />
    <glyph glyph-name="j" unicode="j" horiz-adv-x="1462" 
d="M630 354q91 0 143 50t52 206v811q0 92 93 92h204q92 0 92 -92v-858q0 -219 -120 -396q-64 -93 -184 -149t-281 -57q-330 0 -508 318q-43 75 37 124l178 103q74 45 125 -33q78 -119 169 -119z" />
    <glyph glyph-name="k" unicode="k" horiz-adv-x="1497" 
d="M938 1513h223q59 0 76 -33q16 -34 -23 -79l-540 -629l569 -659q39 -45 24 -79t-75 -34h-262q-66 0 -113 53l-348 412v-373q0 -92 -92 -92h-203q-92 0 -92 92v1331q0 92 92 93h203q92 0 92 -93v-372l356 411q45 51 113 51z" />
    <glyph glyph-name="l" unicode="l" 
d="M469 387h543q92 0 92 -92v-203q0 -92 -92 -92h-838q-92 0 -92 92v1331q0 92 92 93h203q92 0 92 -93v-1036z" />
    <glyph glyph-name="m" unicode="m" horiz-adv-x="1861" 
d="M82 92v1331q0 92 92 93h172q76 0 109 -70l393 -850l395 850q33 70 109 70h172q92 0 92 -93v-1331q0 -92 -92 -92h-203q-92 0 -92 92v529l-232 -549q-31 -72 -108 -72h-82q-78 0 -109 72l-229 546v-526q0 -92 -92 -92h-203q-92 0 -92 92z" />
    <glyph glyph-name="n" unicode="n" horiz-adv-x="1589" 
d="M377 0h-203q-92 0 -92 92v1331q0 92 92 93h176q72 0 113 -60l473 -686v653q0 92 92 93h203q92 0 92 -93v-1331q0 -92 -92 -92h-176q-72 0 -113 59l-473 693v-660q0 -92 -92 -92z" />
    <glyph glyph-name="o" unicode="o" horiz-adv-x="1869" 
d="M879 350q171 0 289 120t118 289t-120 289t-288 119q-169 -1 -289 -121t-120 -288t120 -288t290 -120zM879 -37q-329 1 -563 233t-234 562t233 563t563 233t564 -233q233 -233 233 -562t-233 -563t-563 -233z" />
    <glyph glyph-name="p" unicode="p" horiz-adv-x="1439" 
d="M893 1017q0 56 -33 91t-92 35h-307v-254h293q57 0 98 36t41 92zM1266 1024q0 -121 -45 -226t-127 -171q-139 -111 -340 -111h-293v-424q0 -92 -92 -92h-203q-92 0 -92 92v1331q0 92 92 93h622q197 0 328 -115q58 -55 104 -155t46 -222z" />
    <glyph glyph-name="q" unicode="q" horiz-adv-x="1898" 
d="M1286 758q0 170 -120 290t-288 120t-289 -122q-120 -120 -120 -288t120 -288t290 -120q18 0 28 2l-86 111q-57 76 15 131l159 125q76 53 131 -17l109 -141q51 90 51 197zM879 -37q-329 1 -563 233t-234 562t233 563t563 233t564 -233q233 -233 233 -563q0 -293 -190 -516
l133 -170q56 -74 -16 -131l-160 -123q-74 -57 -129 14l-144 184q-137 -53 -290 -53z" />
    <glyph glyph-name="r" unicode="r" horiz-adv-x="1464" 
d="M899 1017q0 56 -32 91t-91 35h-307v-254h293q55 0 96 36t41 92zM1274 1024q0 -121 -45 -226t-127 -171q-16 -12 -68 -39l205 -482q20 -46 0 -76t-72 -30h-225q-76 0 -106 72l-181 469h-186v-449q0 -92 -92 -92h-203q-92 0 -92 92v1331q0 92 92 93h623q197 0 327 -115
q58 -55 104 -155t46 -222z" />
    <glyph glyph-name="s" unicode="s" horiz-adv-x="1564" 
d="M752 1556q285 0 510 -141q78 -49 20 -127l-111 -153q-47 -72 -127 -27q-147 86 -292 86q-98 0 -150 -30t-63 -64q-21 -57 31 -89t165 -55q446 -88 568 -245q113 -143 77 -357q-24 -166 -174 -280t-426 -115q-345 0 -622 160q-86 47 -25 129l137 172q51 70 129 22
q145 -86 319 -106t249 29q35 20 39 61t-19 59q-57 57 -263 99q-416 86 -531 256q-57 86 -67 194t19 170q51 158 221 255t386 97z" />
    <glyph glyph-name="t" unicode="t" horiz-adv-x="1445" 
d="M784 0h-202q-92 0 -93 92v1036h-315q-92 0 -92 93v202q0 92 92 93h1018q92 0 92 -93v-202q0 -92 -92 -93h-315v-1036q-1 -92 -93 -92z" />
    <glyph glyph-name="u" unicode="u" horiz-adv-x="1732" 
d="M1190 1516h205q92 0 92 -93v-712q-4 -299 -201 -523t-500 -225q-304 0 -500 218t-204 530v712q0 92 92 93h203q92 0 92 -93v-712q0 -159 92 -265t223 -106t223 106q91 106 91 265v712q0 93 92 93z" />
    <glyph glyph-name="v" unicode="v" horiz-adv-x="1648" 
d="M1169 1518h220q51 0 70 -29t3 -76l-461 -1339q-27 -74 -106 -74h-207q-78 0 -106 74l-463 1339q-16 47 3 76t71 29h219q80 0 106 -74l273 -789l272 789q27 74 106 74z" />
    <glyph glyph-name="w" unicode="w" horiz-adv-x="2125" 
d="M737 0h-237q-84 0 -103 82l-293 1335q-10 47 12 74t70 27h209q84 0 103 -82l141 -666l182 670q20 78 103 78h223q82 0 102 -78l183 -666l141 662q18 82 102 82h207q49 0 71 -27t11 -74l-291 -1335q-18 -82 -102 -82h-238q-82 0 -102 78l-195 713l-194 -713
q-25 -78 -105 -78z" />
    <glyph glyph-name="x" unicode="x" horiz-adv-x="1738" 
d="M1444 1516q56 0 74 -33t-15 -80l-436 -639l442 -651q33 -47 16 -80t-75 -33h-262q-72 0 -113 59l-241 359l-244 -359q-41 -59 -113 -59h-262q-57 0 -75 33q-17 33 16 80l442 651l-436 639q-33 47 -16 80t75 33h262q72 0 113 -60l238 -348l235 348q41 59 113 60h262z" />
    <glyph glyph-name="y" unicode="y" horiz-adv-x="1550" 
d="M862 0h-203q-92 0 -92 92v613l-436 700q-29 47 -13 79t75 32h243q72 0 111 -62l213 -342l213 342q39 61 110 62h244q57 0 75 -32t-13 -79l-435 -700v-613q0 -92 -92 -92z" />
    <glyph glyph-name="z" unicode="z" horiz-adv-x="1409" 
d="M1114 0h-940q-92 0 -92 92v160q0 66 39 115l567 761h-483q-92 0 -92 93v202q0 92 92 93h878q92 0 93 -93v-157q0 -63 -37 -115l-551 -764h526q92 0 92 -92v-203q0 -92 -92 -92z" />
    <glyph glyph-name="braceleft" unicode="{" horiz-adv-x="743" 
d="M178 106v449q0 84 -92 84q-25 0 -25 92v23q0 92 25 92q92 0 92 84v448q0 156 77 242t216 86h94q92 0 92 -92v-78q0 -92 -92 -92q-35 0 -59 -26t-23 -64v-383q0 -91 -49 -153t-129 -77q80 -16 129 -73t49 -154v-383q0 -39 24 -65t58 -25q92 0 92 -92v-80q0 -92 -92 -92
h-94q-139 -1 -216 85t-77 244z" />
    <glyph glyph-name="bar" unicode="|" horiz-adv-x="638" 
d="M154 1655h155q92 0 92 -92v-1622q0 -92 -92 -93h-155q-92 0 -93 93v1622q1 92 93 92z" />
    <glyph glyph-name="braceright" unicode="}" horiz-adv-x="743" 
d="M541 555v-449q0 -158 -77 -244t-216 -85h-94q-92 0 -93 92v80q0 92 93 92q34 0 58 26t24 64v383q0 96 49 154t129 73q-80 15 -129 77t-49 153v383q0 38 -24 64t-58 26q-92 0 -93 92v78q0 92 93 92h94q139 0 216 -86t77 -242v-448q0 -84 92 -84q25 0 24 -92v-23
q0 -92 -24 -92q-92 0 -92 -84z" />
    <glyph glyph-name="copyright" unicode="&#xa9;" horiz-adv-x="1828" 
d="M862 426q-137 0 -236 99q-100 99 -100 237t98 237q98 98 238 99q102 0 189 -58q39 -30 37 -64t-40 -65t-110 7q-37 18 -76 18q-72 0 -123 -51t-51 -122t51 -122t123 -51q39 0 68 14q80 37 127 -4q31 -26 29 -60t-42 -59q-88 -55 -182 -55zM856 1286q-215 0 -368 -152
q-152 -152 -152 -368q0 -215 152 -368q152 -152 368 -152q215 0 368 152t152 368q0 215 -152 368q-153 152 -368 152zM856 -29q-328 -1 -561 233t-234 562t233 561t562 233t561 -232q233 -234 233 -562t-232 -562q-234 -234 -562 -233z" />
    <glyph glyph-name="registered" unicode="&#xae;" horiz-adv-x="1705" 
d="M948 866q0 49 -47 49h-119v-98h113q23 0 38 13t15 36zM909 1059q75 1 129 -47t54 -147t-66 -148q-16 -14 -27 -15l52 -120q20 -47 0 -77q-21 -30 -69 -30t-77 74l-51 135h-72v-117q0 -92 -92 -92q-55 0 -55 92v400q0 92 92 92h182zM856 1286q-215 0 -368 -152
q-152 -152 -152 -368q0 -215 152 -368q152 -152 368 -152q215 0 368 152t152 368q0 215 -152 368q-153 152 -368 152zM856 -29q-328 -1 -561 233t-234 562t233 561t562 233t561 -232q233 -234 233 -562t-232 -562q-234 -234 -562 -233z" />
    <glyph glyph-name="quoteleft" unicode="&#x2018;" horiz-adv-x="626" 
d="M272 954q-88 0 -149 62t-61 143q0 82 57 168q20 35 88 112t131 130q23 16 84 -41q18 -18 18 -30t-3 -23q-3 -10 -13 -19q-10 -10 -16 -17t-9 -9l-71 -84q68 -10 112 -64t45 -130q-1 -74 -63 -136t-150 -62z" />
    <glyph glyph-name="quoteright" unicode="&#x2019;" horiz-adv-x="626" 
d="M274 1585q88 0 150 -61q62 -62 61 -144q0 -82 -57 -168q-20 -36 -88 -112t-131 -129q-23 -16 -84 41q-15 15 -17 29q-3 22 7 32t17 19t15 18l72 84q-68 10 -113 64t-45 129q1 75 63 137t150 61z" />
    <glyph glyph-name="quotedblleft" unicode="&#x201c;" horiz-adv-x="1118" 
d="M793 954q-89 0 -151 62t-62 143q0 82 57 168q20 35 88 112t131 130q23 16 84 -41q33 -33 8 -64q-6 -8 -10 -14t-32 -36t-58 -68q68 -10 112 -64t44 -130q0 -74 -62 -136t-149 -62zM272 954q-88 0 -149 62t-61 143q0 82 57 168q20 35 88 112t131 130q23 16 84 -41
q18 -18 18 -30t-3 -23q-3 -10 -13 -19q-10 -10 -16 -17t-9 -9l-71 -84q68 -10 112 -64t45 -130q-1 -74 -63 -136t-150 -62z" />
    <glyph glyph-name="quotedblright" unicode="&#x201d;" horiz-adv-x="1142" 
d="M813 1585q87 0 149 -61q62 -62 62 -144t-57 -168q-20 -36 -88 -112t-131 -129q-23 -16 -84 41q-19 19 -19 31t1 15t4 9q2 6 10 14q8 7 14 15t12 14l72 84q-68 10 -113 64t-45 129t62 137t151 61zM293 1585q88 0 150 -61q63 -62 63 -144t-57 -168q-21 -36 -89 -112
t-131 -129q-23 -16 -84 41q-23 23 -20 37q4 14 5 17t7 10t10 13t32 36t59 69q-68 10 -112 64t-44 129t61 137q62 61 150 61z" />
    <glyph glyph-name="bullet" unicode="&#x2022;" horiz-adv-x="954" 
d="M379 434q-123 0 -209 85t-86 208t86 209t209 86t209 -86t86 -209t-86 -208t-209 -85z" />
    <glyph glyph-name="trademark" unicode="&#x2122;" horiz-adv-x="1236" 
d="M578 1075v348q0 49 14 71t50 22t53 -16t36 -54l117 -254l117 254q18 39 37 54q20 16 56 16t48 -22t12 -71v-348q0 -49 -13 -71t-54 -21q-70 0 -70 92v127l-61 -147q-16 -41 -30 -57t-42 -15q-45 0 -72 72l-61 145v-125q0 -92 -72 -92q-65 0 -65 92zM281 983q-68 0 -68 92
v305h-51q-92 0 -92 72q0 63 92 64h237q49 0 71 -14t22 -58q0 -63 -93 -64h-51v-305q1 -92 -67 -92z" />
    </font>
</defs>
</svg>
